<svg width="800" height="504" viewBox="0 0 800 504" fill="none" xmlns="http://www.w3.org/2000/svg">
<g clip-path="url(#clip0_72_1501)">
<path d="M474.702 15.4619C532.293 -15.3249 605.389 0.81503 644.142 55.4042L642.823 56.3393C604.548 2.42394 532.347 -13.5128 475.464 16.8872C470.631 19.4705 465.966 22.3555 461.497 25.525C403.001 66.9757 389.165 148.244 430.654 206.685L429.335 207.62C387.33 148.452 401.338 66.1726 460.561 24.207C465.086 20.9988 469.809 18.078 474.702 15.4619Z" fill="#E6E6E6"/>
<path d="M779.8 147.056L590.375 132.333C587.434 132.101 584.706 130.713 582.788 128.474C580.871 126.235 579.92 123.327 580.146 120.389L588.358 28.4388C588.59 25.501 589.979 22.7751 592.22 20.8592C594.461 18.9434 597.371 17.9939 600.312 18.2191L789.737 32.9421C792.678 33.174 795.406 34.5617 797.324 36.8008C799.241 39.04 800.192 41.9476 799.966 44.8859L791.754 136.836C791.522 139.774 790.133 142.5 787.892 144.416C785.651 146.332 782.741 147.281 779.8 147.056Z" fill="#E6E6E6"/>
<path d="M735.055 126.283C733.617 126.283 732.174 126.227 730.726 126.115L608.307 116.6C605.859 116.41 603.473 115.74 601.284 114.628C599.096 113.516 597.148 111.985 595.552 110.121C593.956 108.257 592.743 106.098 591.982 103.766C591.221 101.434 590.927 98.9745 591.118 96.529L593.909 60.6783C594.299 55.7413 596.633 51.1605 600.4 47.9408C604.166 44.721 609.057 43.1254 613.999 43.504L772.301 55.808C777.242 56.1978 781.827 58.5298 785.05 62.2925C788.272 66.0552 789.869 70.9413 789.491 75.879C788.423 89.5798 782.228 102.376 772.139 111.717C762.051 121.058 748.81 126.259 735.055 126.283Z" fill="white"/>
<path d="M768.514 84.3082L613.33 72.2466C613.006 72.2215 612.691 72.133 612.402 71.9861C612.113 71.8393 611.856 71.637 611.645 71.3909C611.434 71.1447 611.274 70.8594 611.173 70.5514C611.073 70.2434 611.034 69.9186 611.059 69.5956C611.084 69.2726 611.173 68.9577 611.32 68.6689C611.467 68.3801 611.669 68.123 611.916 67.9124C612.162 67.7017 612.448 67.5417 612.756 67.4413C613.064 67.3409 613.389 67.3021 613.713 67.3273L768.897 79.3889C769.22 79.414 769.535 79.5025 769.824 79.6493C770.113 79.7961 770.371 79.9984 770.581 80.2446C770.792 80.4908 770.952 80.776 771.053 81.0841C771.153 81.3921 771.192 81.7169 771.167 82.0399C771.142 82.3629 771.053 82.6778 770.906 82.9666C770.759 83.2554 770.557 83.5125 770.311 83.7231C770.064 83.9337 769.779 84.0938 769.47 84.1942C769.162 84.2946 768.837 84.3333 768.514 84.3082Z" fill="#E6E6E6"/>
<path d="M704.077 89.0781L612.573 81.9659C611.92 81.9148 611.314 81.6068 610.889 81.1097C610.464 80.6126 610.253 79.967 610.304 79.3149C610.355 78.6628 610.662 78.0575 611.16 77.6321C611.657 77.2067 612.303 76.996 612.956 77.0464L704.46 84.1586C704.784 84.1835 705.099 84.2719 705.388 84.4186C705.678 84.5654 705.935 84.7677 706.146 85.0139C706.357 85.2601 706.517 85.5454 706.618 85.8536C706.719 86.1617 706.757 86.4867 706.732 86.8098C706.707 87.133 706.618 87.448 706.471 87.7369C706.324 88.0258 706.122 88.2829 705.875 88.4936C705.629 88.7042 705.343 88.8643 705.034 88.9646C704.726 89.0649 704.401 89.1034 704.077 89.0781Z" fill="#E6E6E6"/>
<path d="M724.234 100.423L611.816 91.6854C611.493 91.6605 611.177 91.5721 610.888 91.4253C610.599 91.2786 610.341 91.0763 610.13 90.8301C609.919 90.5839 609.759 90.2985 609.658 89.9904C609.558 89.6822 609.519 89.3573 609.544 89.0342C609.569 88.711 609.658 88.396 609.805 88.1071C609.952 87.8182 610.155 87.5611 610.401 87.3504C610.648 87.1398 610.933 86.9797 611.242 86.8794C611.55 86.7791 611.876 86.7405 612.199 86.7658L724.617 95.5035C725.27 95.5547 725.876 95.8626 726.301 96.3597C726.727 96.8568 726.937 97.5024 726.886 98.1545C726.836 98.8067 726.528 99.4119 726.03 99.8373C725.533 100.263 724.887 100.473 724.234 100.423Z" fill="#E6E6E6"/>
<path d="M767.124 271.878L577.699 257.155C574.759 256.923 572.03 255.535 570.113 253.296C568.195 251.057 567.245 248.149 567.47 245.211L575.682 153.26C575.914 150.323 577.303 147.597 579.544 145.681C581.785 143.765 584.696 142.815 587.637 143.041L777.061 157.764C780.002 157.995 782.73 159.383 784.648 161.622C786.566 163.861 787.516 166.769 787.29 169.707L779.079 261.658C778.847 264.596 777.458 267.322 775.216 269.237C772.975 271.153 770.065 272.103 767.124 271.878Z" fill="#E6E6E6"/>
<path d="M722.331 251.103C720.913 251.103 719.486 251.047 718.05 250.936L595.632 241.421C593.184 241.231 590.798 240.561 588.609 239.449C586.42 238.338 584.472 236.807 582.876 234.943C581.28 233.079 580.067 230.919 579.306 228.587C578.545 226.255 578.252 223.796 578.442 221.35L581.234 185.5C581.424 183.054 582.095 180.67 583.207 178.484C584.32 176.297 585.853 174.351 587.719 172.756C589.584 171.161 591.746 169.949 594.08 169.189C596.415 168.429 598.876 168.136 601.324 168.326L759.625 180.63C762.073 180.82 764.459 181.49 766.648 182.602C768.837 183.713 770.785 185.245 772.381 187.108C773.977 188.972 775.19 191.132 775.951 193.464C776.712 195.796 777.005 198.255 776.815 200.701C775.731 214.404 769.524 227.197 759.428 236.536C749.333 245.875 736.089 251.075 722.331 251.103Z" fill="white"/>
<path d="M755.838 209.13L600.654 197.068C600.331 197.043 600.015 196.954 599.726 196.808C599.437 196.661 599.18 196.459 598.969 196.212C598.758 195.966 598.598 195.681 598.498 195.373C598.397 195.065 598.358 194.74 598.383 194.417C598.409 194.094 598.497 193.779 598.644 193.49C598.791 193.202 598.994 192.945 599.24 192.734C599.486 192.523 599.772 192.363 600.08 192.263C600.388 192.162 600.714 192.124 601.037 192.149L756.221 204.21C756.544 204.236 756.859 204.324 757.148 204.471C757.437 204.618 757.695 204.82 757.906 205.066C758.116 205.312 758.277 205.598 758.377 205.906C758.478 206.214 758.516 206.538 758.491 206.861C758.466 207.184 758.377 207.499 758.231 207.788C758.084 208.077 757.881 208.334 757.635 208.545C757.388 208.755 757.103 208.915 756.794 209.016C756.486 209.116 756.161 209.155 755.838 209.13Z" fill="#E6E6E6"/>
<path d="M691.401 213.9L599.897 206.787C599.574 206.763 599.258 206.674 598.969 206.527C598.68 206.381 598.422 206.178 598.211 205.932C598 205.686 597.84 205.401 597.739 205.092C597.639 204.784 597.6 204.459 597.625 204.136C597.65 203.813 597.739 203.498 597.886 203.209C598.033 202.92 598.236 202.663 598.482 202.452C598.729 202.242 599.015 202.082 599.323 201.981C599.631 201.881 599.957 201.843 600.28 201.868L691.784 208.98C692.437 209.031 693.043 209.339 693.468 209.836C693.894 210.333 694.104 210.979 694.054 211.631C694.003 212.283 693.695 212.888 693.198 213.314C692.7 213.739 692.054 213.95 691.401 213.9Z" fill="#E6E6E6"/>
<path d="M711.559 225.244L599.14 216.507C598.487 216.456 597.881 216.148 597.455 215.651C597.03 215.154 596.819 214.508 596.87 213.855C596.921 213.203 597.229 212.598 597.726 212.172C598.224 211.747 598.87 211.536 599.523 211.587L711.942 220.325C712.595 220.375 713.201 220.683 713.626 221.18C714.052 221.678 714.263 222.323 714.212 222.976C714.161 223.628 713.853 224.234 713.356 224.659C712.858 225.085 712.211 225.295 711.559 225.244Z" fill="#E6E6E6"/>
<path d="M285.282 223.836C282.877 218.392 281.569 212.528 281.433 206.579C281.297 200.63 282.335 194.712 284.488 189.164C286.641 183.616 289.866 178.546 293.98 174.243C298.094 169.94 303.016 166.489 308.465 164.087C313.914 161.685 319.783 160.378 325.738 160.242C331.692 160.106 337.615 161.143 343.168 163.294C348.722 165.445 353.796 168.667 358.103 172.778C362.41 176.888 365.864 181.806 368.268 187.25L366.788 187.902C364.47 182.652 361.139 177.91 356.986 173.947C352.833 169.983 347.939 166.875 342.584 164.801C337.229 162.727 331.517 161.727 325.775 161.858C320.033 161.989 314.373 163.249 309.118 165.566C303.864 167.882 299.117 171.21 295.15 175.36C291.183 179.509 288.072 184.398 285.996 189.748C283.92 195.099 282.919 200.805 283.051 206.542C283.182 212.278 284.443 217.933 286.762 223.183L285.282 223.836Z" fill="#E6E6E6"/>
<path d="M755.392 476.533C773.91 467.766 787.703 450.128 785.551 430.743C768.938 444.183 746.32 451.689 722.97 451.509C713.875 451.439 703.69 450.515 697.081 455.613C692.969 458.786 691.114 463.823 690.88 468.843C690.645 473.864 691.864 478.945 693.075 483.96L692.707 485.149C714.449 486.532 736.873 485.3 755.392 476.533Z" fill="#F2F2F2"/>
<path d="M785.095 430.695C777.933 444.657 765.515 456.295 750.083 463.106C746.702 464.682 743.102 465.739 739.404 466.241C735.639 466.634 731.834 466.137 728.297 464.79C724.943 463.588 721.637 462.022 718.08 461.546C716.338 461.303 714.565 461.413 712.868 461.871C711.17 462.328 709.582 463.123 708.199 464.207C704.912 466.761 702.951 470.295 701.175 473.82C699.202 477.734 697.226 481.833 693.363 484.5C692.895 484.823 693.547 485.496 694.014 485.173C700.734 480.532 701.704 472.14 707.044 466.519C708.3 465.1 709.861 463.983 711.61 463.253C713.36 462.522 715.252 462.197 717.145 462.3C720.775 462.568 724.186 464.18 727.572 465.423C731.015 466.781 734.71 467.387 738.407 467.199C742.135 466.871 745.785 465.944 749.216 464.453C756.678 461.35 763.585 457.056 769.668 451.74C776.388 445.933 781.935 438.897 786.012 431.01C786.259 430.528 785.341 430.216 785.095 430.695Z" fill="white"/>
<path d="M755.253 461.139C757.203 463.436 759.82 465.07 762.742 465.812C765.664 466.554 768.745 466.368 771.556 465.279C772.095 465.052 771.655 464.263 771.115 464.49C768.5 465.508 765.631 465.681 762.912 464.986C760.193 464.29 757.76 462.76 755.957 460.612C755.578 460.152 754.877 460.681 755.253 461.139Z" fill="white"/>
<path d="M729.926 465.594C730.284 462.866 731.217 460.246 732.663 457.905C734.108 455.564 736.033 453.555 738.312 452.011C738.778 451.686 738.127 451.014 737.661 451.338C735.293 452.949 733.294 455.044 731.796 457.483C730.298 459.923 729.334 462.652 728.968 465.49C728.902 466.031 729.86 466.132 729.926 465.594Z" fill="white"/>
<path d="M775.289 445.34C774.398 444.656 773.697 443.757 773.252 442.726C772.808 441.696 772.634 440.569 772.747 439.453C772.821 438.914 771.863 438.814 771.789 439.35C771.67 440.583 771.863 441.827 772.352 442.966C772.841 444.105 773.609 445.103 774.585 445.867C774.674 445.954 774.788 446.008 774.911 446.021C775.034 446.035 775.158 446.006 775.263 445.94C775.308 445.905 775.345 445.861 775.372 445.81C775.398 445.759 775.413 445.703 775.415 445.646C775.418 445.589 775.408 445.532 775.386 445.479C775.364 445.426 775.331 445.379 775.289 445.34Z" fill="white"/>
<path d="M724.454 389.758C724.397 390.093 724.34 390.428 724.275 390.766C723.483 395.255 722.272 399.661 720.659 403.925C720.541 404.257 720.415 404.591 720.285 404.919C716.206 415.244 710.003 424.598 702.077 432.377C698.848 435.556 695.365 438.466 691.663 441.079C686.503 444.727 680.548 448.291 677.282 453.207C676.936 453.713 676.626 454.244 676.354 454.794L691.066 484.535C691.137 484.59 691.2 484.648 691.27 484.704L691.799 485.911C692.003 485.788 692.212 485.656 692.416 485.532C692.535 485.461 692.651 485.383 692.77 485.312C692.849 485.263 692.927 485.213 693.001 485.172C693.027 485.156 693.053 485.139 693.072 485.125C693.146 485.085 693.21 485.04 693.276 485.002C694.446 484.266 695.611 483.521 696.772 482.767C696.779 482.765 696.779 482.765 696.783 482.756C705.608 476.991 713.908 470.476 720.727 462.96C720.932 462.734 721.145 462.505 721.343 462.265C724.374 458.888 727.089 455.239 729.453 451.366C730.727 449.26 731.877 447.082 732.899 444.843C735.522 439.058 737.076 432.847 737.486 426.51C738.317 413.816 734.548 400.69 725.178 390.529C724.938 390.269 724.701 390.016 724.454 389.758Z" fill="#F2F2F2"/>
<path d="M724.077 389.961C728.176 405.661 726.764 422.221 719.825 436.311C718.382 439.439 716.394 442.287 713.954 444.722C711.34 447.115 708.126 448.757 704.654 449.474C701.329 450.261 697.792 450.714 694.807 452.226C693.342 452.958 692.071 454.027 691.099 455.345C690.126 456.662 689.48 458.191 689.212 459.805C688.482 463.742 689.408 467.795 690.467 471.742C691.642 476.125 692.939 480.666 691.855 485.009C691.723 485.535 692.667 485.754 692.798 485.229C694.685 477.673 689.725 470.032 689.914 462.388C690.002 458.821 691.303 455.346 694.618 453.369C697.517 451.64 701.163 451.171 704.541 450.401C707.953 449.739 711.151 448.252 713.856 446.071C716.433 443.774 718.548 441.008 720.088 437.92C723.619 431.117 725.888 423.731 726.786 416.12C727.863 407.29 727.25 398.335 724.978 389.734C724.836 389.192 723.937 389.422 724.077 389.961Z" fill="white"/>
<path d="M722.362 431.857C728.414 433.752 734.835 431.485 737.373 426.588C737.623 426.105 736.759 425.673 736.508 426.156C734.131 430.744 728.189 432.802 722.532 431.032C721.936 430.845 721.77 431.672 722.362 431.857Z" fill="white"/>
<path d="M706.418 449.278C704.869 446.943 703.811 444.317 703.308 441.56C702.805 438.803 702.868 435.972 703.494 433.241C703.623 432.714 702.679 432.494 702.55 433.021C701.906 435.865 701.846 438.811 702.376 441.68C702.906 444.548 704.013 447.279 705.632 449.707C705.949 450.201 706.734 449.77 706.418 449.278Z" fill="white"/>
<path d="M726.658 407.665C725.47 407.531 724.326 407.136 723.307 406.51C722.289 405.883 721.421 405.04 720.766 404.041C720.456 403.543 719.671 403.975 719.98 404.469C720.708 405.571 721.667 406.501 722.791 407.196C723.915 407.89 725.177 408.332 726.489 408.491C726.749 408.522 726.992 408.43 727.045 408.188C727.06 408.068 727.028 407.947 726.956 407.85C726.884 407.752 726.777 407.686 726.658 407.665Z" fill="white"/>
<path d="M755.686 265.369L744.431 205.507L722.336 176.45L705.961 187.146C708.275 199.684 725.777 223.091 725.777 223.091L741.29 269.387C741.228 269.628 741.171 269.871 741.129 270.121C740.883 271.585 741.019 273.089 741.525 274.485C742.03 275.882 742.888 277.125 744.014 278.094C745.141 279.062 746.499 279.725 747.957 280.016C749.414 280.307 750.922 280.218 752.335 279.757C753.748 279.296 755.018 278.478 756.023 277.383C757.027 276.288 757.732 274.953 758.069 273.507C758.406 272.06 758.363 270.551 757.946 269.126C757.529 267.7 756.75 266.406 755.686 265.369Z" fill="#FFB8B8"/>
<path d="M706.401 193.471L724.939 178.438L724.974 178.359C728.441 170.509 720.743 157.049 713.674 147.14C711.341 143.874 707.853 141.616 703.917 140.821C699.98 140.026 695.889 140.754 692.469 142.858C689.957 144.427 687.934 146.667 686.629 149.324C685.324 151.982 684.79 154.951 685.085 157.896L686.644 172.892L706.401 193.471Z" fill="#3F3D56"/>
<path d="M640.882 491.385L628.547 491.384L622.679 443.85L640.884 443.851L640.882 491.385Z" fill="#FFB8B8"/>
<path d="M644.028 487.361L640.557 487.361L627.002 481.854L619.737 487.36H619.736C615.63 487.36 611.693 488.99 608.79 491.89C605.887 494.791 604.256 498.724 604.255 502.826V503.329L644.028 503.33L644.028 487.361Z" fill="#2F2E41"/>
<path d="M695.613 491.385L683.278 491.384L677.411 443.85L695.616 443.851L695.613 491.385Z" fill="#FFB8B8"/>
<path d="M698.76 487.361L695.288 487.361L681.733 481.854L674.468 487.36H674.467C670.362 487.36 666.424 488.99 663.521 491.89C660.618 494.791 658.987 498.724 658.987 502.826V503.329L698.759 503.33L698.76 487.361Z" fill="#2F2E41"/>
<path d="M714.422 286.641C714.422 286.641 715.862 303.909 712.261 320.457C708.66 337.005 708.661 383.611 708.661 383.611L700.739 474.429L676.974 472.27L670.492 320.457L647.448 371.541L649.608 378.736L646.73 380.535C646.73 380.535 648.888 394.565 647.448 394.565C646.007 394.565 642.407 396.723 642.407 396.723L645.287 470.831L620.802 470.112L612.16 365.785L621.522 306.067L622.242 294.555L625.483 294.688L627.133 289.879L630.164 281.604L714.422 286.641Z" fill="#2F2E41"/>
<path d="M715.666 290.268L715.795 290.088C722.649 280.5 712.34 257.46 710.785 254.12L717.334 251.997L715.859 239.472L715.161 233.888L720.166 228.887L720.18 228.763L723.061 203.58L727.249 186.854C728.827 180.531 728.693 173.903 726.859 167.649C725.026 161.395 721.56 155.741 716.817 151.268L707.136 142.148L695.37 124.755H676.396L669.891 137.032C663.583 138.488 657.987 142.109 654.078 147.264C650.168 152.419 648.192 158.781 648.494 165.241L649.968 197.44L644.196 237.531L644.193 244.786L637.697 251.999L639.115 259.085L634.172 261.201L631.989 271.378C631.085 272.569 625.123 280.512 625.123 282.684C625.123 283.01 625.363 283.325 625.88 283.675C629.944 286.424 652.404 292.028 662.344 288.054C672.932 283.824 715.023 290.17 715.447 290.234L715.666 290.268Z" fill="#3F3D56"/>
<path d="M550.669 503.039C550.669 503.293 550.769 503.537 550.948 503.717C551.128 503.897 551.372 503.999 551.626 504H778.287C778.542 504 778.787 503.899 778.967 503.718C779.147 503.538 779.249 503.294 779.249 503.039C779.249 502.784 779.147 502.539 778.967 502.359C778.787 502.178 778.542 502.077 778.287 502.077H551.632C551.377 502.076 551.133 502.177 550.952 502.356C550.772 502.535 550.67 502.779 550.669 503.033V503.039Z" fill="#CCCCCC"/>
<path d="M683.432 119.14C697.31 119.14 708.561 107.9 708.561 94.0349C708.561 80.1697 697.31 68.9297 683.432 68.9297C669.554 68.9297 658.304 80.1697 658.304 94.0349C658.304 107.9 669.554 119.14 683.432 119.14Z" fill="#FFB8B8"/>
<path d="M681.025 119.547C684.917 119.507 688.798 119.135 692.626 118.435C696.416 117.563 704.778 111.103 707.057 107.287C708.75 104.451 709.766 100.065 710.321 96.8856C711.069 92.6774 710.925 88.359 709.897 84.2101C708.869 80.0612 706.981 76.1742 704.354 72.8008C703.341 71.3876 701.965 70.2742 700.371 69.5782C700.23 69.5273 700.085 69.4827 699.938 69.4451C697.628 68.901 695.533 67.6793 693.922 65.9368C693.609 65.5841 693.271 65.2543 692.911 64.95C691.104 63.5046 688.981 62.507 686.714 62.0386C683.052 61.16 677.814 62.261 671.145 65.3139C667.795 66.8478 664.076 66.4199 661.21 65.8757C661.049 65.849 660.884 65.8647 660.732 65.9214C660.579 65.9782 660.444 66.0738 660.34 66.1989C659.156 67.3676 657.574 68.0455 655.911 68.0964C654.893 68.1673 653.861 69.6042 652.616 71.4753C652.334 71.9001 652.005 72.3958 651.766 72.6982L651.718 72.1302L651.158 72.7797C650.278 73.8006 649.671 75.0274 649.393 76.3459C649.115 77.6644 649.176 79.0316 649.57 80.3203C649.963 81.609 650.677 82.7772 651.644 83.7162C652.611 84.6552 653.8 85.3344 655.101 85.6906C656.133 85.9365 657.187 86.0766 658.247 86.1086C658.89 86.1497 659.555 86.1923 660.194 86.2861C662.245 86.6509 664.166 87.5408 665.77 88.869C667.374 90.1972 668.606 91.9183 669.346 93.8643C669.521 94.314 669.796 94.7176 670.152 95.0439C670.507 95.3702 670.933 95.6106 671.397 95.7464C671.86 95.8822 672.348 95.9098 672.824 95.8271C673.299 95.7445 673.75 95.5537 674.14 95.2695C674.789 94.7372 675.557 94.3697 676.379 94.1981C677.201 94.0266 678.052 94.0562 678.86 94.2845C679.562 94.6514 680.117 95.2485 680.432 95.9757C680.812 96.785 681.424 97.463 682.192 97.923C684.808 99.1863 685.138 105.073 684.338 110.009C683.566 114.766 681.888 118.236 680.256 118.448C679 118.61 678.858 118.703 678.773 118.928L678.697 119.129L678.843 119.312C679.545 119.546 680.289 119.626 681.025 119.547Z" fill="#2F2E41"/>
<path d="M404.867 248.95C432.462 248.95 454.833 226.6 454.833 199.03C454.833 171.46 432.462 149.111 404.867 149.111C377.272 149.111 354.902 171.46 354.902 199.03C354.902 226.6 377.272 248.95 404.867 248.95Z" fill="#6C63FF"/>
<path d="M675.237 191.601L658.756 181.071C648.261 188.323 634.077 213.874 634.077 213.874L598.18 247.008C596.684 247.264 595.283 247.909 594.116 248.879C592.95 249.848 592.06 251.108 591.535 252.53C591.011 253.953 590.871 255.488 591.129 256.982C591.387 258.476 592.035 259.875 593.007 261.04C593.979 262.204 595.24 263.092 596.665 263.614C598.089 264.136 599.626 264.274 601.121 264.014C602.616 263.754 604.016 263.106 605.18 262.133C606.344 261.161 607.231 259.899 607.752 258.476L657.781 223.655L675.237 191.601Z" fill="#FFB8B8"/>
<path d="M673.666 195.874L684.643 169.553L680.673 155.007C679.883 152.155 678.31 149.579 676.132 147.573C673.954 145.566 671.258 144.208 668.348 143.652C664.399 142.925 660.32 143.723 656.937 145.886C653.554 148.048 651.119 151.413 650.125 155.301C647.118 167.093 644.809 182.423 650.882 188.49L650.943 188.551L673.666 195.874Z" fill="#3F3D56"/>
<path d="M34.414 488.77C12.9267 477.751 -2.6628 456.458 0.596501 433.702C19.665 450.155 46.0296 459.841 73.5431 460.5C84.2593 460.757 96.2924 460.048 103.887 466.301C108.613 470.192 110.61 476.195 110.698 482.118C110.787 488.041 109.162 493.982 107.547 499.844L107.937 501.258C82.2714 502.076 55.9013 499.789 34.414 488.77Z" fill="#F2F2F2"/>
<path d="M1.13564 433.663C9.05093 450.378 23.244 464.55 41.1689 473.15C45.0932 475.133 49.2949 476.513 53.6317 477.241C58.0526 477.845 62.5537 477.402 66.7714 475.947C70.7673 474.656 74.7205 472.934 78.9286 472.506C80.9892 472.285 83.0733 472.481 85.0562 473.083C87.0392 473.685 88.8802 474.681 90.4692 476.01C94.2456 479.141 96.4231 483.377 98.3842 487.596C100.562 492.281 102.737 497.183 107.187 500.469C107.726 500.868 106.934 501.635 106.395 501.237C98.6521 495.52 97.8234 485.597 91.7429 478.776C88.9057 475.594 84.9027 473.225 80.0011 473.43C75.7148 473.609 71.6368 475.381 67.601 476.719C63.494 478.191 59.119 478.767 54.7706 478.407C50.3918 477.882 46.1266 476.653 42.1399 474.769C33.466 470.836 25.4897 465.52 18.5229 459.029C10.8234 451.938 4.55114 443.443 0.0435084 434C-0.22991 433.422 0.863999 433.089 1.13564 433.663Z" fill="white"/>
<path d="M35.1526 470.639C30.4422 476.007 22.1517 477.822 15.7928 474.908C15.1663 474.621 15.7143 473.708 16.3416 473.996C19.3845 475.293 22.7577 475.604 25.9869 474.886C29.216 474.168 32.1387 472.456 34.3438 469.993C34.8072 469.464 35.6133 470.114 35.1526 470.639Z" fill="white"/>
<path d="M64.8226 476.833C64.502 473.606 63.5012 470.485 61.886 467.673C60.2708 464.861 58.0779 462.423 55.4516 460.519C54.9141 460.119 55.7069 459.351 56.2437 459.75C58.9724 461.737 61.2486 464.279 62.9225 467.209C64.5963 470.138 65.6297 473.389 65.9546 476.747C66.0124 477.387 64.8801 477.469 64.8226 476.833Z" fill="white"/>
<path d="M12.1406 451.281C13.2152 450.509 14.0746 449.475 14.6371 448.278C15.1997 447.081 15.4468 445.76 15.355 444.441C15.288 443.802 16.4204 443.721 16.487 444.355C16.5818 445.812 16.3074 447.27 15.689 448.594C15.0707 449.918 14.1285 451.064 12.9494 451.928C12.8424 452.027 12.7051 452.086 12.5598 452.097C12.4144 452.108 12.2697 452.07 12.149 451.988C12.0968 451.946 12.0547 451.892 12.0255 451.831C11.9963 451.77 11.9808 451.704 11.98 451.636C11.9792 451.569 11.9932 451.502 12.0209 451.441C12.0487 451.379 12.0895 451.325 12.1406 451.281Z" fill="white"/>
<path d="M74.1029 387.7C74.1577 388.097 74.2124 388.493 74.2755 388.894C75.0411 394.212 76.3026 399.447 78.0435 404.531C78.1709 404.926 78.3068 405.325 78.4469 405.715C82.8666 418.03 89.8245 429.282 98.8707 438.742C102.556 442.606 106.549 446.164 110.813 449.381C116.755 453.871 123.638 458.292 127.301 464.204C127.69 464.814 128.036 465.451 128.335 466.109L109.892 500.596C109.807 500.658 109.73 500.724 109.645 500.787L108.978 502.19C108.741 502.037 108.5 501.873 108.264 501.72C108.126 501.632 107.993 501.536 107.855 501.448C107.765 501.386 107.675 501.325 107.589 501.274C107.559 501.254 107.529 501.233 107.507 501.216C107.421 501.166 107.348 501.11 107.271 501.063C105.921 500.153 104.576 499.232 103.237 498.301C103.228 498.298 103.228 498.298 103.224 498.287C93.0434 491.166 83.5094 483.182 75.7572 474.073C75.5241 473.799 75.2822 473.522 75.0575 473.232C71.6131 469.14 68.5515 464.74 65.9113 460.09C64.4895 457.561 63.2153 454.952 62.0951 452.276C59.2217 445.364 57.6232 437.989 57.3768 430.509C56.8724 415.524 61.803 400.202 73.2213 388.581C73.5136 388.284 73.802 387.994 74.1029 387.7Z" fill="#F2F2F2"/>
<path d="M74.5386 387.953C69.1241 406.296 70.1685 425.856 77.8157 442.713C79.3988 446.453 81.6342 449.882 84.4178 452.841C87.4076 455.758 91.1316 457.812 95.1951 458.786C99.0835 459.837 103.232 460.502 106.693 462.395C108.392 463.313 109.848 464.619 110.945 466.208C112.041 467.796 112.745 469.621 113 471.533C113.714 476.198 112.471 480.938 111.076 485.548C109.528 490.667 107.83 495.968 108.945 501.125C109.08 501.75 107.961 501.973 107.826 501.349C105.886 492.377 112.014 483.561 112.077 474.549C112.106 470.344 110.704 466.201 106.872 463.749C103.522 461.605 99.2444 460.915 95.2944 459.882C91.2993 458.975 87.5872 457.105 84.4822 454.434C81.5325 451.632 79.1442 448.294 77.4452 444.599C73.5404 436.453 71.1434 427.668 70.3701 418.669C69.4309 408.226 70.4886 397.7 73.4869 387.652C73.6739 387.019 74.7244 387.324 74.5386 387.953Z" fill="white"/>
<path d="M74.9938 437.372C67.7931 439.378 60.3139 436.469 57.5075 430.604C57.231 430.027 58.2651 429.55 58.542 430.128C61.1711 435.622 68.0938 438.268 74.825 436.393C75.5333 436.196 75.6981 437.176 74.9938 437.372Z" fill="white"/>
<path d="M93.1249 458.49C95.0377 455.796 96.3825 452.742 97.0778 449.513C97.7732 446.284 97.8045 442.947 97.1699 439.706C97.0373 439.081 98.1569 438.857 98.2893 439.482C98.9423 442.857 98.902 446.33 98.1708 449.689C97.4397 453.049 96.0329 456.224 94.0358 459.024C93.6439 459.595 92.7352 459.058 93.1249 458.49Z" fill="white"/>
<path d="M70.8373 408.713C72.2423 408.599 73.6048 408.177 74.8279 407.477C76.051 406.777 77.1046 405.816 77.9136 404.663C78.2974 404.089 79.2058 404.626 78.8245 405.197C77.9254 406.468 76.7604 407.528 75.4104 408.304C74.0604 409.08 72.5576 409.554 71.0062 409.692C70.6981 409.719 70.4152 409.602 70.362 409.314C70.3495 409.172 70.3917 409.031 70.48 408.919C70.5684 408.807 70.6962 408.733 70.8373 408.713Z" fill="white"/>
<path d="M139.107 214.861L140.726 229.859L139.773 249.527L183.377 244.352L187.474 214.861L182.254 214.911L139.107 214.861Z" fill="#FFB6B6"/>
<path d="M116.491 487.171H126.024L130.561 450.434H116.491V487.171Z" fill="#FFB6B6"/>
<path d="M113.38 480.647L128.61 479.739V486.258L143.09 496.249C143.805 496.743 144.344 497.452 144.627 498.273C144.911 499.093 144.924 499.983 144.665 500.812C144.407 501.641 143.89 502.366 143.19 502.881C142.49 503.395 141.643 503.673 140.774 503.673H122.642L119.516 497.224L118.296 503.673H111.459L113.38 480.647Z" fill="#2F2E41"/>
<path d="M170.04 487.171H179.573L184.11 450.434H170.04V487.171Z" fill="#FFB6B6"/>
<path d="M166.929 480.647L182.159 479.739V486.258L196.639 496.249C197.354 496.743 197.893 497.452 198.176 498.273C198.46 499.093 198.473 499.983 198.214 500.812C197.956 501.641 197.439 502.366 196.739 502.881C196.038 503.395 195.192 503.673 194.323 503.673H176.191L173.065 497.224L171.845 503.673H165.008L166.929 480.647Z" fill="#2F2E41"/>
<path d="M112.378 455.49H112.482L114.315 395.757C113.128 393.47 112.526 390.926 112.562 388.351C112.598 385.776 113.271 383.25 114.52 380.997L114.783 380.522L114.102 377.37C113.228 373.321 113.629 369.1 115.25 365.287L116.961 309.567C110.85 270.002 139.971 244.199 139.971 244.199H183.595L192.96 276.347C199.152 336.613 198.028 395.34 188.203 452.237L188.471 452.372C189.436 452.705 189.849 454.039 189.395 455.353C188.941 456.668 187.791 457.463 186.827 457.131L163.789 456.33C162.824 455.997 162.411 454.663 162.865 453.348C163.319 452.034 164.468 451.239 165.433 451.571L166.999 452.363L163.659 394.723L164.029 384.194L163.266 372.25L159.734 318.525L146.368 384.592L132.714 456.155C133.091 456.496 133.355 456.942 133.472 457.436C133.589 457.93 133.554 458.448 133.371 458.921C133.187 459.394 132.864 459.801 132.445 460.087C132.025 460.373 131.529 460.526 131.021 460.524H112.378C112.047 460.525 111.719 460.46 111.412 460.334C111.106 460.208 110.828 460.022 110.594 459.789C110.359 459.555 110.173 459.277 110.046 458.971C109.919 458.666 109.854 458.338 109.854 458.007C109.854 457.676 109.919 457.348 110.046 457.043C110.173 456.737 110.359 456.459 110.594 456.226C110.828 455.992 111.106 455.807 111.412 455.68C111.719 455.554 112.047 455.489 112.378 455.49Z" fill="#2F2E41"/>
<path d="M146.721 138.11C159.644 138.11 170.12 127.643 170.12 114.733C170.12 101.822 159.644 91.3555 146.721 91.3555C133.799 91.3555 123.323 101.822 123.323 114.733C123.323 127.643 133.799 138.11 146.721 138.11Z" fill="#FFB6B6"/>
<path d="M44.1905 222.733C47.479 215.106 51.9948 208.068 57.5589 201.898C52.8473 209.4 50.1546 217.99 49.7415 226.838C51.4474 227.902 53.2322 228.835 55.0804 229.627C60.6347 231.955 66.5568 233.284 72.5739 233.554C75.817 222.759 81.4146 212.816 88.964 204.442C83.5233 213.11 80.7873 223.2 81.1042 233.427C87.8155 232.847 94.4279 231.431 100.788 229.212C110.336 225.93 119.605 221.029 126.209 213.405C133.356 205.154 136.878 194.265 138.015 183.411C139.153 172.565 138.083 161.617 137.005 150.762C136.496 145.59 140.808 139.637 140.299 134.464H139.959C137.693 131.36 135.384 128.18 134.272 124.5C133.169 120.828 133.457 116.494 135.995 113.603C137.417 112.092 139.211 110.98 141.198 110.38C141.385 110.143 141.589 109.914 141.801 109.685C145.644 105.606 150.168 102.226 155.169 99.6951C151.562 102.417 149.151 105.496 148.031 108.676C151.155 107.989 154.278 107.305 157.402 106.623C158.445 105.517 159.545 104.464 160.695 103.469C162.367 102.019 162.919 101.908 164.913 100.543C163.303 101.958 162.055 103.738 161.272 105.733C165.287 104.724 169.302 103.206 171.39 99.7545C174.853 94.0473 170.736 86.3474 164.99 82.9384C160.81 80.5793 155.993 79.5925 151.221 80.1175C146.449 80.6425 141.963 82.6527 138.397 85.8641C130.088 79.7498 118.256 79.8516 109.012 84.4224C102.91 87.575 97.6534 92.1435 93.6832 97.7447C95.9863 97.4494 98.3045 97.288 100.626 97.2613C97.358 97.7392 94.2458 98.9702 91.5358 100.857C90.3369 102.717 89.2375 104.639 88.2425 106.615C87.5889 107.912 86.9721 109.227 86.3921 110.558C82.8357 118.648 80.5185 127.264 78.1165 135.778C75.3155 145.7 72.3108 155.689 67.0652 164.568C59.0226 178.069 46.3353 188.182 31.3737 193.019C30.1261 204.238 35.6092 215.211 44.1905 222.733Z" fill="#2F2E41"/>
<path d="M170.284 153.743L165.743 152.039L160.016 142.788L139.618 144.453L134.66 154.372L122.716 163.485L127.94 190.969L136.054 224.353L190.377 217.569L190.319 192.438C190.319 192.438 200.136 172.583 184.279 165.143L170.284 153.743Z" fill="#6C63FF"/>
<path d="M254.017 240.916C252.962 241.339 251.828 241.525 250.693 241.463C249.558 241.4 248.451 241.09 247.45 240.554C246.448 240.018 245.577 239.269 244.896 238.359C244.216 237.45 243.743 236.403 243.511 235.291L182.942 198.675L194.013 185.913L250.069 225.919C251.964 225.654 253.89 226.093 255.483 227.152C257.075 228.211 258.224 229.817 258.71 231.666C259.197 233.514 258.988 235.477 258.123 237.182C257.258 238.886 255.797 240.215 254.017 240.916Z" fill="#FFB6B6"/>
<path d="M162.76 181.311C162.76 181.311 159.865 184.221 167.128 189.005C172.943 192.836 198.879 211.764 208.072 214.758C207.957 216.107 208.295 217.457 209.032 218.593C209.769 219.73 210.863 220.589 212.143 221.035L220.467 202.759C218.665 198.581 215.783 199.548 214.266 200.496L204.213 192.942L179.525 168.312L164.815 179.171L162.76 181.311Z" fill="#6C63FF"/>
<path d="M138.545 86.5002C135.733 90.6465 133.916 95.3852 133.236 100.348C132.556 105.31 133.032 110.362 134.625 115.111" fill="#FD6584"/>
<path d="M19.8369 503.039C19.8365 503.165 19.8612 503.29 19.9094 503.407C19.9576 503.524 20.0285 503.63 20.1179 503.719C20.2074 503.809 20.3136 503.879 20.4305 503.928C20.5475 503.976 20.6728 504 20.7993 504H247.454C247.709 504 247.954 503.899 248.134 503.718C248.315 503.538 248.416 503.294 248.416 503.039C248.416 502.784 248.315 502.539 248.134 502.359C247.954 502.178 247.709 502.077 247.454 502.077H20.7993C20.6728 502.077 20.5475 502.101 20.4306 502.15C20.3136 502.198 20.2074 502.269 20.1179 502.358C20.0285 502.447 19.9576 502.553 19.9094 502.67C19.8612 502.787 19.8365 502.912 19.8369 503.039Z" fill="#CCCCCC"/>
<path d="M106.193 284.522C105.628 284.72 105.165 285.135 104.906 285.674C104.646 286.213 104.612 286.833 104.809 287.398L136.387 378.328C136.586 378.892 137.001 379.355 137.541 379.614C138.08 379.873 138.701 379.908 139.266 379.71L323.006 315.303C323.571 315.104 324.034 314.689 324.294 314.15C324.553 313.611 324.587 312.991 324.39 312.426L292.812 221.496C292.613 220.931 292.198 220.469 291.658 220.21C291.118 219.951 290.498 219.916 289.932 220.114L106.193 284.522Z" fill="#E6E6E6"/>
<path d="M152.699 366.587C149.083 366.586 145.557 365.466 142.603 363.382C139.65 361.297 137.415 358.35 136.206 354.945L118.865 305.925C117.32 301.559 117.575 296.759 119.573 292.58C121.57 288.402 125.148 285.188 129.518 283.644L222.382 250.852C239.765 244.736 258.868 245.758 275.498 253.695C292.128 261.632 304.927 275.835 311.089 293.189C312.633 297.555 312.378 302.355 310.381 306.534C308.383 310.712 304.805 313.927 300.436 315.47L158.506 365.588C156.642 366.248 154.678 366.586 152.699 366.587Z" fill="white"/>
<path d="M275.848 269.957L192.696 299.105C191.525 299.515 190.073 298.418 189.453 296.654C188.834 294.889 189.281 293.126 190.453 292.715L273.604 263.568C274.776 263.157 276.228 264.255 276.847 266.019C277.467 267.783 277.02 269.548 275.848 269.957Z" fill="#E6E6E6"/>
<path d="M282.279 288.272L199.128 317.419C197.956 317.83 196.504 316.732 195.885 314.968C195.265 313.204 195.713 311.441 196.884 311.03L280.036 281.883C281.207 281.472 282.659 282.569 283.279 284.334C283.898 286.098 283.451 287.861 282.279 288.272Z" fill="#E6E6E6"/>
<path d="M181.446 309.069C182.338 311.583 182.772 314.236 182.726 316.903C182.709 318.124 182.588 319.34 182.365 320.54C181.657 324.417 179.936 328.039 177.377 331.039C174.818 334.038 171.511 336.309 167.792 337.623C164.072 338.936 160.072 339.245 156.194 338.518C152.317 337.792 148.7 336.055 145.71 333.484C145.408 333.226 145.115 332.959 144.829 332.685C142.387 330.347 140.506 327.486 139.329 324.319C138.151 321.151 137.707 317.758 138.029 314.394C138.352 311.031 139.432 307.784 141.19 304.897C142.948 302.01 145.337 299.558 148.179 297.725C151.02 295.893 154.24 294.727 157.597 294.315C160.954 293.903 164.361 294.256 167.562 295.348C170.763 296.439 173.675 298.241 176.079 300.617C178.484 302.993 180.318 305.883 181.446 309.069Z" fill="#E4E4E4"/>
<path d="M161.259 319.945C163.624 319.945 165.541 318.029 165.541 315.666C165.541 313.304 163.624 311.388 161.259 311.388C158.894 311.388 156.977 313.304 156.977 315.666C156.977 318.029 158.894 319.945 161.259 319.945Z" fill="#FD6584"/>
<path d="M144.828 332.685C145.927 330.136 147.227 326.247 150.236 327.663C151.723 328.307 154.386 330.264 155.467 327.988L163.933 310.282C164.094 309.952 164.319 309.657 164.595 309.415C164.871 309.173 165.193 308.988 165.541 308.872C165.89 308.756 166.258 308.71 166.625 308.739C166.991 308.767 167.348 308.868 167.675 309.035L182.726 316.903C182.708 318.124 182.588 319.34 182.365 320.54L145.71 333.484L144.828 332.685Z" fill="#3F3D56"/>
<path d="M149.197 280.395C148.138 279.984 147.182 279.345 146.397 278.525C145.611 277.705 145.016 276.722 144.651 275.647C144.287 274.571 144.163 273.429 144.289 272.301C144.414 271.173 144.785 270.085 145.377 269.116L126.215 201.026L143.027 199.271L156.576 266.753C158.14 267.853 159.246 269.489 159.684 271.35C160.122 273.21 159.861 275.167 158.952 276.848C158.042 278.53 156.547 279.82 154.749 280.474C152.951 281.127 150.976 281.099 149.197 280.395Z" fill="#FFB6B6"/>
<path d="M123.381 163.649C123.381 163.649 119.277 163.796 121.306 172.248C122.93 179.015 128.893 221.464 133.556 229.927C132.549 230.833 131.872 232.049 131.633 233.381C131.393 234.714 131.604 236.089 132.232 237.289L150.812 229.632C152.355 225.352 151.16 221.466 149.405 221.122L147.235 208.742L144.036 167.212L126.345 163.49L123.381 163.649Z" fill="#6C63FF"/>
<path d="M290.754 342.801L265.058 343.864C264.509 343.888 263.962 343.788 263.457 343.57C262.953 343.353 262.504 343.024 262.145 342.608C261.791 342.204 261.532 341.724 261.39 341.205C261.248 340.687 261.225 340.142 261.323 339.614C263.295 328.871 262.72 317.816 259.645 307.336C259.407 306.534 259.455 305.675 259.781 304.905C260.107 304.135 260.689 303.502 261.43 303.113C271.955 297.65 281.817 297.373 290.74 302.289C291.208 302.542 291.614 302.895 291.932 303.322C292.249 303.749 292.469 304.24 292.577 304.761C294.9 316.197 295.456 327.922 294.228 339.527C294.143 340.4 293.744 341.213 293.105 341.815C292.467 342.417 291.631 342.767 290.754 342.801Z" fill="#6C63FF"/>
<path d="M289.666 325.999L270.019 326.812C269.777 326.822 269.535 326.784 269.307 326.701C269.08 326.618 268.871 326.491 268.692 326.327C268.514 326.163 268.369 325.966 268.267 325.746C268.165 325.526 268.108 325.289 268.098 325.047C268.088 324.805 268.126 324.563 268.209 324.336C268.292 324.109 268.42 323.9 268.584 323.722C268.748 323.544 268.946 323.4 269.166 323.298C269.386 323.196 269.624 323.139 269.866 323.129L289.513 322.316C289.755 322.306 289.997 322.344 290.225 322.427C290.452 322.51 290.661 322.638 290.839 322.801C291.017 322.965 291.161 323.163 291.263 323.382C291.365 323.602 291.423 323.839 291.433 324.081C291.443 324.323 291.405 324.564 291.322 324.792C291.238 325.019 291.111 325.227 290.947 325.405C290.783 325.584 290.585 325.728 290.366 325.829C290.146 325.931 289.908 325.989 289.666 325.999Z" fill="white"/>
<path d="M289.398 319.541L269.751 320.354C269.262 320.374 268.785 320.2 268.425 319.869C268.065 319.538 267.852 319.077 267.832 318.589C267.811 318.1 267.986 317.624 268.317 317.265C268.649 316.905 269.11 316.691 269.598 316.671L289.246 315.858C289.735 315.838 290.211 316.013 290.571 316.344C290.931 316.675 291.145 317.135 291.165 317.623C291.185 318.112 291.011 318.588 290.679 318.948C290.348 319.307 289.887 319.521 289.398 319.541Z" fill="white"/>
<path d="M760.703 141.978L735.203 138.637C734.658 138.566 734.136 138.374 733.676 138.073C733.217 137.773 732.831 137.372 732.548 136.901C732.268 136.442 732.096 135.925 732.044 135.39C731.993 134.855 732.063 134.315 732.25 133.81C736.031 123.563 737.357 112.573 736.12 101.721C736.024 100.891 736.218 100.053 736.671 99.3495C737.123 98.6464 737.806 98.1219 738.602 97.8654C749.907 94.2803 759.671 95.6919 767.622 102.06C768.039 102.39 768.379 102.807 768.619 103.281C768.858 103.756 768.991 104.278 769.008 104.809C769.34 116.474 767.882 128.121 764.686 139.345C764.453 140.191 763.921 140.924 763.188 141.408C762.456 141.892 761.573 142.095 760.703 141.978Z" fill="#6C63FF"/>
<path d="M762.507 125.237L743.01 122.682C742.769 122.651 742.538 122.572 742.328 122.452C742.118 122.331 741.934 122.17 741.787 121.978C741.639 121.786 741.531 121.567 741.468 121.333C741.405 121.099 741.389 120.855 741.42 120.615C741.452 120.375 741.53 120.144 741.651 119.934C741.772 119.725 741.934 119.541 742.126 119.394C742.318 119.246 742.537 119.138 742.771 119.075C743.005 119.012 743.249 118.996 743.489 119.028L762.986 121.583C763.471 121.646 763.911 121.9 764.209 122.287C764.507 122.675 764.639 123.165 764.575 123.65C764.512 124.134 764.258 124.574 763.87 124.872C763.482 125.169 762.992 125.301 762.507 125.237Z" fill="white"/>
<path d="M763.348 118.829L743.85 116.274C743.61 116.243 743.378 116.165 743.168 116.044C742.957 115.923 742.773 115.762 742.625 115.57C742.477 115.378 742.369 115.159 742.306 114.925C742.243 114.691 742.226 114.447 742.258 114.207C742.289 113.966 742.368 113.735 742.489 113.525C742.611 113.315 742.772 113.131 742.965 112.984C743.157 112.836 743.377 112.728 743.611 112.666C743.845 112.603 744.09 112.587 744.33 112.619L763.827 115.174C764.068 115.205 764.3 115.283 764.51 115.404C764.721 115.525 764.905 115.686 765.053 115.878C765.201 116.07 765.309 116.289 765.372 116.523C765.435 116.757 765.452 117.001 765.42 117.242C765.388 117.482 765.31 117.714 765.189 117.923C765.067 118.133 764.906 118.317 764.713 118.465C764.521 118.612 764.301 118.72 764.067 118.783C763.832 118.845 763.588 118.861 763.348 118.829Z" fill="white"/>
<path d="M421.04 191.355H412.549V182.872C412.549 180.837 411.74 178.884 410.299 177.445C408.859 176.006 406.905 175.197 404.867 175.197C402.83 175.197 400.876 176.006 399.435 177.445C397.994 178.884 397.185 180.837 397.185 182.872V191.355H388.694C386.657 191.355 384.703 192.164 383.262 193.603C381.822 195.042 381.012 196.995 381.012 199.03C381.012 201.066 381.822 203.018 383.262 204.457C384.703 205.897 386.657 206.705 388.694 206.705H397.185V215.188C397.185 217.224 397.994 219.176 399.435 220.615C400.876 222.055 402.83 222.863 404.867 222.863C406.905 222.863 408.859 222.055 410.299 220.615C411.74 219.176 412.549 217.224 412.549 215.188V206.705H421.04C423.077 206.705 425.031 205.897 426.472 204.457C427.913 203.018 428.722 201.066 428.722 199.03C428.722 196.995 427.913 195.042 426.472 193.603C425.031 192.164 423.077 191.355 421.04 191.355Z" fill="white"/>
<path d="M696.007 34.3641C700.478 34.3641 704.103 30.7428 704.103 26.2758C704.103 21.8088 700.478 18.1875 696.007 18.1875C691.536 18.1875 687.912 21.8088 687.912 26.2758C687.912 30.7428 691.536 34.3641 696.007 34.3641Z" fill="#3F3D56"/>
<path d="M198.691 263.001C203.163 263.001 206.787 259.38 206.787 254.913C206.787 250.446 203.163 246.824 198.691 246.824C194.22 246.824 190.596 250.446 190.596 254.913C190.596 259.38 194.22 263.001 198.691 263.001Z" fill="#3F3D56"/>
</g>
<defs>
<clipPath id="clip0_72_1501">
<rect width="800" height="504" fill="white"/>
</clipPath>
</defs>
</svg>
