<svg width="422" height="228" viewBox="0 0 422 228" fill="none" xmlns="http://www.w3.org/2000/svg">
<g clip-path="url(#clip0_9_1317)">
<path d="M228.998 120.611V121.106C228.997 125.653 227.186 130.014 223.963 133.229C220.741 136.443 216.37 138.249 211.812 138.248H17.8345C13.2781 138.248 8.90855 136.442 5.68673 133.227C2.46492 130.012 0.654731 125.652 0.654297 121.106V120.611H228.998Z" fill="#F2F2F2"/>
<path d="M41.2252 39.0041C27.2072 42.4588 14.6232 31.6976 12.426 21.7144L13.402 21.5403C25.2172 18.9344 38.4064 27.3616 41.2252 39.0041Z" fill="#6C63FF"/>
<path d="M380.066 223.887C376.012 222.14 375.091 215.776 378.484 212.957C381.877 210.137 387.983 212.192 388.972 216.487L385.19 189.492C384.32 183.286 383.624 176.348 387.383 171.328C390.903 166.627 397.779 165.121 403.299 167.145C408.82 169.168 412.899 174.217 414.63 179.825C416.361 185.433 415.953 191.527 414.441 197.198C412.93 202.869 410.362 208.196 407.765 213.461C405.104 218.856 401.877 224.703 396.189 226.689C390.755 228.586 380.066 223.887 380.066 223.887Z" fill="#F2F2F2"/>
<path d="M397.833 166.633C400.318 174.372 401.501 182.469 401.335 190.595C401.178 198.684 399.722 206.696 397.021 214.325C395.484 218.653 393.536 222.824 391.204 226.783C391.103 226.969 391.079 227.187 391.136 227.391C391.193 227.595 391.328 227.769 391.511 227.876C391.694 227.983 391.912 228.014 392.118 227.964C392.324 227.914 392.503 227.786 392.616 227.607C396.803 220.468 399.778 212.687 401.421 204.58C403.088 196.435 403.421 188.074 402.409 179.822C401.839 175.197 400.835 170.636 399.41 166.199C399.089 165.203 397.509 165.629 397.833 166.633Z" fill="white"/>
<path d="M377.662 213.95L390.608 227.525C391.335 228.287 392.491 227.132 391.765 226.371L378.819 212.796C378.092 212.034 376.937 213.189 377.662 213.95Z" fill="white"/>
<path d="M366.665 162.695C366.204 162.696 365.758 162.53 365.409 162.229C357.416 157.036 350.3 150.607 344.33 143.183C343.965 142.837 343.75 142.363 343.731 141.861C343.712 141.359 343.89 140.869 344.228 140.497L348.152 136.173L348.961 136.903L345.036 141.227C344.887 141.391 344.81 141.608 344.821 141.829C344.832 142.051 344.93 142.259 345.095 142.407L345.152 142.468C351.063 149.825 358.112 156.194 366.034 161.336L366.105 161.391C366.27 161.539 366.487 161.617 366.709 161.606C366.93 161.595 367.139 161.496 367.288 161.332L374.944 152.895C375.087 152.738 375.164 152.533 375.161 152.322C375.158 152.11 375.074 151.908 374.927 151.755C373.153 150.791 371.422 149.739 369.78 148.629L370.392 147.728C372.024 148.832 373.746 149.877 375.512 150.834L375.618 150.909C375.805 151.078 375.958 151.283 376.066 151.511C376.174 151.74 376.237 151.987 376.249 152.239C376.262 152.492 376.224 152.744 376.139 152.982C376.054 153.22 375.922 153.439 375.753 153.626L368.096 162.063C367.927 162.251 367.721 162.403 367.493 162.511C367.264 162.619 367.015 162.681 366.762 162.693C366.73 162.694 366.698 162.695 366.665 162.695Z" fill="#3F3D56"/>
<path d="M358.224 148.492C360.629 150.663 363.099 151.854 363.742 151.147C363.826 151.027 363.879 150.888 363.896 150.743C363.913 150.598 363.894 150.45 363.84 150.314C363.579 149.514 363.163 148.772 362.613 148.133C360.476 146.615 358.399 144.977 356.382 143.22C355.749 143.013 355.264 143.019 355.029 143.28C354.996 143.317 354.968 143.36 354.948 143.405C354.544 144.227 355.945 146.43 358.224 148.492Z" fill="#6C63FF"/>
<path d="M343.732 131.001C343.752 131.496 343.968 131.964 344.332 132.301C347.562 136.284 351.113 139.998 354.948 143.405C357.754 145.903 360.725 148.212 363.84 150.315C364.358 150.668 364.882 151.011 365.411 151.348C365.758 151.651 366.203 151.818 366.665 151.816C366.697 151.816 366.73 151.811 366.763 151.811C367.016 151.799 367.265 151.737 367.494 151.629C367.723 151.52 367.929 151.368 368.099 151.18L375.754 142.747C376.097 142.368 376.275 141.869 376.25 141.359C376.224 140.849 375.997 140.369 375.617 140.027L375.514 139.951C367.156 135.446 360.013 128.994 354.691 121.143L354.61 121.045C354.23 120.703 353.729 120.525 353.218 120.55C352.707 120.576 352.227 120.802 351.883 121.181L344.228 129.614C344.058 129.801 343.927 130.02 343.841 130.258C343.756 130.496 343.719 130.749 343.732 131.001ZM344.822 130.947C344.817 130.838 344.833 130.729 344.869 130.626C344.906 130.524 344.962 130.429 345.035 130.348L352.69 121.91C352.764 121.828 352.854 121.762 352.954 121.715C353.055 121.669 353.163 121.642 353.274 121.638C353.474 121.626 353.672 121.688 353.83 121.812C359.23 129.761 366.465 136.298 374.925 140.875C375.072 141.027 375.156 141.229 375.16 141.44C375.164 141.651 375.088 141.855 374.947 142.012L367.286 150.451C367.213 150.533 367.125 150.599 367.025 150.646C366.926 150.693 366.818 150.719 366.708 150.723C366.486 150.733 366.269 150.657 366.103 150.51L366.032 150.456C364.876 149.716 363.737 148.942 362.613 148.133C360.476 146.615 358.399 144.978 356.382 143.22C352.307 139.674 348.549 135.783 345.15 131.589L345.095 131.529C344.932 131.378 344.834 131.169 344.822 130.947Z" fill="#3F3D56"/>
<path d="M363.742 140.268C364.382 139.562 362.952 137.228 360.546 135.054C358.14 132.88 355.671 131.691 355.03 132.397C354.389 133.103 355.82 135.437 358.226 137.611C360.631 139.784 363.101 140.974 363.742 140.268Z" fill="#6C63FF"/>
<path d="M315.638 221.181L308.954 221.18L305.774 195.454L315.639 195.454L315.638 221.181Z" fill="#FFB8B8"/>
<path d="M317.343 227.646L295.79 227.645V227.373C295.79 226.274 296.007 225.186 296.428 224.17C296.85 223.154 297.468 222.232 298.247 221.454C299.026 220.677 299.951 220.06 300.968 219.64C301.986 219.219 303.077 219.003 304.179 219.003H304.179L317.343 219.003L317.343 227.646Z" fill="#2F2E41"/>
<path d="M335.267 221.181L328.583 221.18L325.402 195.454L335.268 195.454L335.267 221.181Z" fill="#FFB8B8"/>
<path d="M336.972 227.646L315.418 227.645V227.373C315.418 226.274 315.635 225.186 316.057 224.17C316.478 223.154 317.096 222.232 317.875 221.454C318.654 220.677 319.579 220.06 320.597 219.64C321.615 219.219 322.706 219.003 323.807 219.003H323.808L336.972 219.003L336.972 227.646Z" fill="#2F2E41"/>
<path d="M339.753 117.21L338.157 211.707C338.152 212.006 338.085 212.301 337.96 212.573C337.836 212.846 337.656 213.09 337.433 213.289C337.21 213.489 336.948 213.641 336.663 213.736C336.378 213.83 336.077 213.865 335.779 213.837L327.957 213.128C327.444 213.081 326.964 212.855 326.602 212.489C326.24 212.123 326.019 211.641 325.98 211.129L321.4 152.184C321.39 152.046 321.326 151.917 321.223 151.824C321.12 151.73 320.985 151.68 320.846 151.682C320.707 151.685 320.574 151.741 320.475 151.838C320.375 151.936 320.317 152.067 320.312 152.206L318.023 212.5C318.002 213.062 317.763 213.595 317.356 213.985C316.95 214.376 316.408 214.594 315.844 214.594H307.455C306.899 214.594 306.365 214.382 305.96 214.003C305.556 213.623 305.312 213.103 305.278 212.55L299.406 116.666L334.3 107.961L339.753 117.21Z" fill="#2F2E41"/>
<path d="M314.442 28.4784C321.838 28.4784 327.834 22.4959 327.834 15.1162C327.834 7.7364 321.838 1.75391 314.442 1.75391C307.046 1.75391 301.051 7.7364 301.051 15.1162C301.051 22.4959 307.046 28.4784 314.442 28.4784Z" fill="#FFB8B8"/>
<path d="M298.211 120.021C297.979 119.797 297.793 119.53 297.666 119.234C297.538 118.939 297.47 118.621 297.467 118.299L296.563 53.8611C296.509 50.5832 297.497 47.3725 299.386 44.6901C301.275 42.0077 303.968 39.9918 307.077 38.9318C308.331 33.2523 315.009 32.5409 318.901 32.6259C319.873 32.6468 320.825 32.9011 321.677 33.3673C322.529 33.8336 323.256 34.4979 323.796 35.3041L326.587 39.4806L332.737 43.078C335.583 44.7357 337.828 47.2528 339.148 50.266C340.468 53.2793 340.795 56.633 340.081 59.8435L339.135 64.1411C335.8 79.3522 336.117 95.1344 340.06 110.2L341.966 117.449C342.065 117.826 342.072 118.222 341.987 118.603C341.902 118.984 341.727 119.339 341.476 119.639C341.225 119.938 340.906 120.174 340.546 120.326C340.186 120.477 339.794 120.541 339.404 120.511L337.191 120.341C336.617 120.297 336.076 120.053 335.664 119.651C335.252 119.25 334.995 118.716 334.938 118.144L334.572 114.49C334.565 114.422 334.534 114.36 334.483 114.315C334.433 114.27 334.368 114.245 334.301 114.245C334.233 114.245 334.168 114.27 334.118 114.315C334.067 114.36 334.036 114.422 334.029 114.49L333.675 118.027C333.615 118.625 333.337 119.18 332.894 119.586C332.451 119.993 331.873 120.223 331.271 120.232L299.958 120.713C299.945 120.713 299.932 120.713 299.919 120.713C299.281 120.714 298.667 120.466 298.211 120.021Z" fill="#3F3D56"/>
<path d="M315.49 22.8183C315.545 24.7073 316.859 25.8001 318.473 26.7895C320.086 27.7789 321.972 28.2078 323.82 28.6217C324.068 28.7532 324.346 28.8187 324.627 28.8118C324.908 28.8049 325.183 28.7259 325.424 28.5824C325.665 28.4389 325.866 28.2357 326.005 27.9925C326.145 27.7492 326.22 27.4742 326.222 27.1938L327.917 20.7614C328.516 18.7067 328.953 16.608 329.222 14.4848C329.63 10.3995 328.66 6.00476 325.802 3.051C322.944 0.0972332 317.988 -0.952044 314.564 1.32378C310.5 -3.85539 291.924 7.58735 296.506 11.1888C297.321 11.8295 298.567 11.0188 299.602 10.9402C300.637 10.8616 301.796 11.0432 302.454 11.8445C303.312 12.8914 302.938 14.4508 303.292 15.7567C303.439 16.2162 303.675 16.6422 303.987 17.0102C304.299 17.3782 304.681 17.6809 305.111 17.9008C305.541 18.1207 306.011 18.2535 306.492 18.2916C306.974 18.3296 307.458 18.2721 307.918 18.1224C308.773 17.7017 309.578 17.1855 310.317 16.5835C311.11 16.056 312.113 15.6662 313.007 15.9989C314.184 16.4375 314.603 17.8761 314.709 19.1258C314.889 20.3723 315.149 21.6057 315.49 22.8183Z" fill="#2F2E41"/>
<path opacity="0.2" d="M312.363 58.6304L310.182 85.2885L298.732 113.035L315.634 85.8325L312.363 58.6304Z" fill="black"/>
<path d="M296.054 123.368C296.679 122.867 297.187 122.235 297.541 121.518C297.895 120.8 298.087 120.014 298.103 119.214C298.12 118.415 297.96 117.621 297.636 116.89C297.312 116.158 296.831 115.507 296.227 114.981L303.522 96.9531L293.597 98.9529L288.192 115.765C287.374 116.836 286.977 118.169 287.078 119.512C287.179 120.855 287.77 122.114 288.739 123.051C289.708 123.988 290.988 124.538 292.336 124.596C293.685 124.655 295.007 124.217 296.054 123.368Z" fill="#FFB8B8"/>
<path d="M295.523 115.417L289.905 113.396C289.326 113.185 288.848 112.765 288.564 112.22C288.28 111.674 288.211 111.042 288.37 110.448L297.638 76.5979L299.051 46.005C299.093 45.0816 299.319 44.1758 299.716 43.3404C300.112 42.505 300.672 41.7566 301.361 41.1386C302.05 40.5207 302.855 40.0457 303.729 39.7411C304.604 39.4365 305.531 39.3084 306.455 39.3643C307.38 39.4203 308.285 39.6591 309.116 40.0669C309.947 40.4747 310.689 41.0434 311.298 41.7398C311.908 42.4362 312.372 43.2466 312.664 44.1237C312.957 45.0008 313.072 45.9272 313.002 46.849L310.479 80.3475L298.67 113.925C298.491 114.432 298.15 114.867 297.699 115.162C297.248 115.456 296.713 115.595 296.175 115.557C295.952 115.54 295.733 115.493 295.523 115.417Z" fill="#3F3D56"/>
<path d="M353.419 125.135C353.802 124.433 354.027 123.655 354.076 122.857C354.126 122.059 354 121.259 353.706 120.515C353.412 119.771 352.959 119.1 352.378 118.55C351.796 117.999 351.101 117.583 350.34 117.329L350.111 97.8894L341.725 103.55L343.228 121.143C342.887 122.445 343.036 123.828 343.647 125.028C344.259 126.229 345.29 127.164 346.546 127.656C347.802 128.148 349.196 128.163 350.463 127.699C351.729 127.234 352.781 126.322 353.419 125.135Z" fill="#FFB8B8"/>
<path d="M349.859 118.003L343.895 118.298C343.279 118.326 342.675 118.122 342.203 117.728C341.73 117.333 341.422 116.777 341.34 116.167L336.822 81.3678L326.313 52.5935C325.995 51.725 325.854 50.8023 325.898 49.8789C325.941 48.9556 326.168 48.05 326.565 47.215C326.963 46.3799 327.522 45.6319 328.212 45.0146C328.901 44.3973 329.707 43.9229 330.582 43.6191C331.457 43.3152 332.383 43.1879 333.308 43.2446C334.233 43.3013 335.137 43.5408 335.968 43.9493C336.799 44.3577 337.54 44.927 338.149 45.6239C338.757 46.3208 339.221 47.1315 339.513 48.0088L350.119 79.8913L352.187 115.416C352.218 115.953 352.071 116.485 351.769 116.931C351.466 117.376 351.026 117.71 350.515 117.881C350.303 117.951 350.082 117.992 349.859 118.003Z" fill="#3F3D56"/>
<path d="M421.455 227.922H213.721C213.576 227.922 213.437 227.865 213.335 227.763C213.233 227.661 213.175 227.523 213.175 227.378C213.175 227.234 213.233 227.096 213.335 226.994C213.437 226.892 213.576 226.834 213.721 226.834H421.455C421.599 226.834 421.738 226.892 421.84 226.994C421.943 227.096 422 227.234 422 227.378C422 227.523 421.943 227.661 421.84 227.763C421.738 227.865 421.599 227.922 421.455 227.922Z" fill="#3F3D56"/>
<path d="M176.23 110.464C173.098 110.464 170.608 109.535 168.827 107.702C164.802 103.559 165.055 95.5733 165.257 89.1566C165.316 87.2899 165.372 85.5266 165.315 84.0496L165.315 84.0273C165.329 81.1415 166.484 78.3778 168.529 76.3367C170.573 74.2956 173.342 73.1419 176.234 73.1262H202.196C205.324 73.1262 207.811 74.0541 209.591 75.8847C213.616 80.0243 213.366 88.008 213.166 94.4231C213.108 96.2938 213.052 98.0608 213.11 99.5405C213.1 102.431 211.946 105.2 209.9 107.245C207.854 109.291 205.082 110.448 202.185 110.464H176.23ZM166.406 84.0196C166.462 85.5319 166.406 87.3093 166.347 89.1909C166.151 95.4022 165.907 103.133 169.61 106.945C171.2 108.581 173.365 109.376 176.23 109.376H202.184C204.788 109.362 207.282 108.324 209.124 106.486C210.966 104.648 212.006 102.159 212.02 99.5598C211.961 98.0648 212.017 96.2794 212.076 94.389C212.27 88.1793 212.511 80.4508 208.808 76.6423C207.22 75.0086 205.057 74.2143 202.196 74.2143H176.236C173.634 74.2288 171.142 75.2664 169.302 77.102C167.462 78.9376 166.421 81.4232 166.406 84.0196Z" fill="#3F3D56"/>
<path d="M35.4895 40.0051C30.9372 39.9776 26.4839 38.6761 22.6361 36.2486C16.9991 32.7535 12.7428 27.1558 11.5282 21.6407L11.4065 21.0879L12.9298 20.8159C24.9213 18.1751 38.4843 26.6851 41.3899 38.6803L41.5173 39.2063L40.9908 39.3362C39.191 39.7807 37.3436 40.0053 35.4895 40.0051ZM12.7252 21.9579C14.0336 27.0171 18.0047 32.0958 23.2117 35.3244C28.2461 38.5393 34.3471 39.6461 40.1935 38.4051C37.1535 27.2297 24.4239 19.3875 13.1547 21.8809L12.7252 21.9579Z" fill="#3F3D56"/>
<path d="M20.3631 101.832C16.7959 101.832 13.8978 100.239 12.1963 97.3331C11.2426 95.6427 10.7413 93.7356 10.7407 91.7958C10.7401 89.8559 11.2402 87.9486 12.1928 86.2575C13.9215 83.3022 16.8887 81.699 20.5533 81.7551H55.145C58.7972 81.7086 61.7666 83.3046 63.4963 86.2634C64.449 87.954 64.9494 89.8609 64.9492 91.8005C64.949 93.7401 64.4483 95.6469 63.4953 97.3374C61.7663 100.289 58.7977 101.866 55.1368 101.83H20.5444C20.4838 101.831 20.4234 101.831 20.3631 101.832ZM20.3834 82.8418C17.2021 82.8418 14.6323 84.2455 13.1346 86.8061C12.2764 88.3295 11.8259 90.0479 11.8265 91.7955C11.827 93.5431 12.2787 95.2611 13.1379 96.784C14.6608 99.3852 17.2832 100.793 20.5363 100.742H55.145C58.4014 100.794 61.032 99.3866 62.5539 96.7883C63.4124 95.2653 63.8634 93.5474 63.8635 91.8C63.8636 90.0527 63.4128 88.3347 62.5545 86.8117C61.0316 84.2067 58.4005 82.8041 55.1527 82.8432H20.5419C20.489 82.8424 20.4359 82.8418 20.3834 82.8418Z" fill="#3F3D56"/>
<path d="M185.107 86.0637H174.202C173.479 86.0637 172.786 85.7771 172.275 85.267C171.763 84.7569 171.476 84.065 171.476 83.3435C171.476 82.6221 171.763 81.9302 172.275 81.42C172.786 80.9099 173.479 80.6233 174.202 80.6233H185.107C185.83 80.6233 186.523 80.9099 187.035 81.42C187.546 81.9302 187.833 82.6221 187.833 83.3435C187.833 84.065 187.546 84.7569 187.035 85.267C186.523 85.7771 185.83 86.0637 185.107 86.0637Z" fill="#6C63FF"/>
<path d="M185.107 94.7686H174.202C173.479 94.7686 172.786 94.482 172.275 93.9718C171.763 93.4617 171.476 92.7698 171.476 92.0483C171.476 91.3269 171.763 90.635 172.275 90.1249C172.786 89.6147 173.479 89.3281 174.202 89.3281H185.107C185.83 89.3281 186.523 89.6147 187.035 90.1249C187.546 90.635 187.833 91.3269 187.833 92.0483C187.833 92.7698 187.546 93.4617 187.035 93.9718C186.523 94.482 185.83 94.7686 185.107 94.7686Z" fill="#6C63FF"/>
<path d="M185.107 103.473H174.202C173.479 103.473 172.786 103.187 172.275 102.676C171.763 102.166 171.476 101.474 171.476 100.753C171.476 100.031 171.763 99.3396 172.275 98.8295C172.786 98.3193 173.479 98.0327 174.202 98.0327H185.107C185.83 98.0327 186.523 98.3193 187.035 98.8295C187.546 99.3396 187.833 100.031 187.833 100.753C187.833 101.474 187.546 102.166 187.035 102.676C186.523 103.187 185.83 103.473 185.107 103.473Z" fill="#6C63FF"/>
<path d="M204.19 86.0637H193.285C192.562 86.0637 191.869 85.7771 191.358 85.267C190.847 84.7569 190.559 84.065 190.559 83.3435C190.559 82.6221 190.847 81.9302 191.358 81.42C191.869 80.9099 192.562 80.6233 193.285 80.6233H204.19C204.913 80.6233 205.607 80.9099 206.118 81.42C206.629 81.9302 206.916 82.6221 206.916 83.3435C206.916 84.065 206.629 84.7569 206.118 85.267C205.607 85.7771 204.913 86.0637 204.19 86.0637Z" fill="#6C63FF"/>
<path d="M204.19 94.7686H193.285C192.562 94.7686 191.869 94.482 191.358 93.9718C190.847 93.4617 190.559 92.7698 190.559 92.0483C190.559 91.3269 190.847 90.635 191.358 90.1249C191.869 89.6147 192.562 89.3281 193.285 89.3281H204.19C204.913 89.3281 205.607 89.6147 206.118 90.1249C206.629 90.635 206.916 91.3269 206.916 92.0483C206.916 92.7698 206.629 93.4617 206.118 93.9718C205.607 94.482 204.913 94.7686 204.19 94.7686Z" fill="#6C63FF"/>
<path d="M204.19 103.473H193.285C192.562 103.473 191.869 103.187 191.358 102.676C190.847 102.166 190.559 101.474 190.559 100.753C190.559 100.031 190.847 99.3396 191.358 98.8295C191.869 98.3193 192.562 98.0327 193.285 98.0327H204.19C204.913 98.0327 205.607 98.3193 206.118 98.8295C206.629 99.3396 206.916 100.031 206.916 100.753C206.916 101.474 206.629 102.166 206.118 102.676C205.607 103.187 204.913 103.473 204.19 103.473Z" fill="#6C63FF"/>
<path d="M228.998 47.4045H0.654297V48.4926H228.998V47.4045Z" fill="#3F3D56"/>
<path d="M211.006 138.564H17.9927C13.2224 138.558 8.64902 136.665 5.2759 133.299C1.90278 129.934 0.00538854 125.37 0 120.61V27.035C0.00538854 22.2751 1.90278 17.7117 5.2759 14.3459C8.64902 10.9802 13.2224 9.08692 17.9927 9.08154H211.006C215.776 9.08692 220.349 10.9802 223.722 14.3459C227.096 17.7117 228.993 22.2751 228.998 27.035V120.61C228.993 125.37 227.096 129.934 223.722 133.299C220.349 136.665 215.776 138.558 211.006 138.564ZM17.9927 10.1696C13.5115 10.1747 9.21533 11.9532 6.04664 15.115C2.87796 18.2768 1.09556 22.5636 1.09047 27.035V120.61C1.09556 125.082 2.87797 129.369 6.04665 132.53C9.21534 135.692 13.5115 137.471 17.9927 137.476H211.006C215.487 137.471 219.783 135.692 222.952 132.53C226.12 129.369 227.903 125.082 227.908 120.61V27.035C227.903 22.5636 226.12 18.2767 222.952 15.115C219.783 11.9532 215.487 10.1747 211.006 10.1696H17.9927Z" fill="#3F3D56"/>
</g>
<defs>
<clipPath id="clip0_9_1317">
<rect width="422" height="228" fill="white"/>
</clipPath>
</defs>
</svg>
