<svg width="370" height="234" viewBox="0 0 370 234" fill="none" xmlns="http://www.w3.org/2000/svg">
<g clip-path="url(#clip0_9_1214)">
<path d="M325.811 214.001L326.172 205.893C329.928 203.883 334.118 202.822 338.377 202.801C332.515 207.597 333.248 216.843 329.273 223.293C326.731 227.349 322.484 230.027 317.731 230.572L312.825 233.578C311.463 225.978 313.494 218.162 318.384 212.189C319.756 210.547 321.329 209.084 323.067 207.835C324.242 210.935 325.811 214.001 325.811 214.001Z" fill="#F2F2F2"/>
<path d="M77.8185 205.116L65.9799 201.529C64.4273 195.216 64.4379 188.62 66.0109 182.312C70.886 192.789 84.8158 195.188 92.8439 203.495C97.8758 208.783 100.232 216.073 99.2463 223.308L101.838 231.695C90.1006 230.848 79.3231 224.899 72.3446 215.417C70.4361 212.77 68.8684 209.892 67.6785 206.852C72.6995 206.282 77.8185 205.116 77.8185 205.116Z" fill="#F2F2F2"/>
<path d="M284.79 232.252C284.789 232.498 284.691 232.733 284.518 232.907C284.346 233.079 284.112 233.176 283.868 233.175H280.162C279.654 233.177 279.242 232.766 279.24 232.259V120.082C279.24 117.609 278.41 115.603 277.391 115.598H46.6678C45.6444 115.603 44.8192 117.609 44.8146 120.082V231.565C44.813 232.04 44.4525 232.436 43.9802 232.483C43.2334 232.557 42.4866 232.621 41.7444 232.681C41.7259 232.681 41.7075 232.686 41.6891 232.686C41.2834 232.723 40.8777 232.751 40.472 232.783H40.4674C40.2554 232.4 40.0525 232.008 39.8451 231.616C39.7786 231.482 39.7439 231.335 39.7437 231.187V114.265C39.7437 113.582 39.7713 112.895 39.8174 112.216C39.8832 111.285 39.9986 110.358 40.1632 109.439C40.9422 105.153 42.7032 102.251 44.704 102.242H279.351C279.643 102.244 279.931 102.305 280.199 102.422C280.592 102.596 280.947 102.845 281.245 103.156C281.65 103.576 281.995 104.05 282.273 104.563C283.26 106.302 283.965 108.895 284.214 111.912C284.214 111.94 284.219 111.967 284.219 111.995C284.283 112.742 284.316 113.503 284.311 114.265L284.375 124.151L284.417 130.047L284.541 148.547L284.588 155.116L284.79 232.252Z" fill="#E6E6E6"/>
<path d="M199.161 68.0413H175.647C174.955 68.0423 174.394 68.6049 174.395 69.2981V106.47H200.417V69.2981C200.417 68.6043 199.855 68.0416 199.162 68.0413H199.161ZM187.483 89.1619C185.953 89.1547 184.714 87.9149 184.707 86.3833V82.0958C184.707 80.5612 185.95 79.3172 187.483 79.3172C189.017 79.3172 190.26 80.5612 190.26 82.0958V86.3833C190.253 87.9149 189.014 89.1548 187.483 89.1619Z" fill="#CCCCCC"/>
<path d="M174.314 105.281V108.867C174.315 109.254 174.628 109.568 175.015 109.568H199.797C200.183 109.567 200.496 109.254 200.498 108.867V105.281H174.314Z" fill="#3F3D56"/>
<path d="M238.097 10.0305H137.586C135.789 10.0334 134.332 11.4913 134.329 13.2905V81.166C134.331 82.9657 135.788 84.4242 137.586 84.426H238.097C239.895 84.4242 241.353 82.9657 241.354 81.166V13.2905C241.351 11.4913 239.895 10.0334 238.097 10.0305Z" fill="#E6E6E6"/>
<path d="M237.258 12.385H138.426C137.464 12.3871 136.684 13.1687 136.684 14.1321V80.3252C136.686 81.2874 137.465 82.067 138.426 82.0686H237.258C238.219 82.067 238.998 81.2874 239 80.3252V14.1321C239 13.1687 238.221 12.3871 237.258 12.385Z" fill="white"/>
<path d="M218.007 110.817H159.208C158.61 110.817 158.126 110.332 158.126 109.734C158.126 109.659 158.134 109.584 158.149 109.511L159.062 105.175C159.169 104.675 159.609 104.317 160.12 104.315H217.095C217.606 104.317 218.046 104.675 218.153 105.175L219.066 109.511C219.189 110.096 218.814 110.67 218.23 110.793C218.157 110.809 218.082 110.817 218.007 110.817Z" fill="#CCCCCC"/>
<path d="M162.123 105.096H160.762C160.638 105.096 160.537 105.197 160.537 105.321V105.958C160.537 106.083 160.638 106.183 160.762 106.183H162.123C162.248 106.183 162.348 106.083 162.348 105.958V105.321C162.348 105.197 162.248 105.096 162.123 105.096Z" fill="#E6E6E6"/>
<path d="M165.745 105.096H164.384C164.26 105.096 164.159 105.197 164.159 105.321V105.958C164.159 106.083 164.26 106.183 164.384 106.183H165.745C165.87 106.183 165.97 106.083 165.97 105.958V105.321C165.97 105.197 165.87 105.096 165.745 105.096Z" fill="#E6E6E6"/>
<path d="M169.367 105.096H168.006C167.882 105.096 167.781 105.197 167.781 105.321V105.958C167.781 106.083 167.882 106.183 168.006 106.183H169.367C169.491 106.183 169.592 106.083 169.592 105.958V105.321C169.592 105.197 169.491 105.096 169.367 105.096Z" fill="#E6E6E6"/>
<path d="M172.989 105.096H171.628C171.504 105.096 171.403 105.197 171.403 105.321V105.958C171.403 106.083 171.504 106.183 171.628 106.183H172.989C173.114 106.183 173.214 106.083 173.214 105.958V105.321C173.214 105.197 173.114 105.096 172.989 105.096Z" fill="#E6E6E6"/>
<path d="M176.611 105.096H175.25C175.126 105.096 175.025 105.197 175.025 105.321V105.958C175.025 106.083 175.126 106.183 175.25 106.183H176.611C176.735 106.183 176.836 106.083 176.836 105.958V105.321C176.836 105.197 176.735 105.096 176.611 105.096Z" fill="#E6E6E6"/>
<path d="M180.233 105.096H178.872C178.748 105.096 178.647 105.197 178.647 105.321V105.958C178.647 106.083 178.748 106.183 178.872 106.183H180.233C180.357 106.183 180.458 106.083 180.458 105.958V105.321C180.458 105.197 180.357 105.096 180.233 105.096Z" fill="#E6E6E6"/>
<path d="M183.855 105.096H182.494C182.37 105.096 182.269 105.197 182.269 105.321V105.958C182.269 106.083 182.37 106.183 182.494 106.183H183.855C183.979 106.183 184.08 106.083 184.08 105.958V105.321C184.08 105.197 183.979 105.096 183.855 105.096Z" fill="#E6E6E6"/>
<path d="M187.477 105.096H186.116C185.992 105.096 185.891 105.197 185.891 105.321V105.958C185.891 106.083 185.992 106.183 186.116 106.183H187.477C187.601 106.183 187.702 106.083 187.702 105.958V105.321C187.702 105.197 187.601 105.096 187.477 105.096Z" fill="#E6E6E6"/>
<path d="M191.099 105.096H189.738C189.614 105.096 189.513 105.197 189.513 105.321V105.958C189.513 106.083 189.614 106.183 189.738 106.183H191.099C191.223 106.183 191.324 106.083 191.324 105.958V105.321C191.324 105.197 191.223 105.096 191.099 105.096Z" fill="#E6E6E6"/>
<path d="M194.721 105.096H193.36C193.236 105.096 193.135 105.197 193.135 105.321V105.958C193.135 106.083 193.236 106.183 193.36 106.183H194.721C194.845 106.183 194.946 106.083 194.946 105.958V105.321C194.946 105.197 194.845 105.096 194.721 105.096Z" fill="#E6E6E6"/>
<path d="M198.343 105.096H196.982C196.858 105.096 196.757 105.197 196.757 105.321V105.958C196.757 106.083 196.858 106.183 196.982 106.183H198.343C198.467 106.183 198.568 106.083 198.568 105.958V105.321C198.568 105.197 198.467 105.096 198.343 105.096Z" fill="#E6E6E6"/>
<path d="M201.965 105.096H200.604C200.479 105.096 200.379 105.197 200.379 105.321V105.958C200.379 106.083 200.479 106.183 200.604 106.183H201.965C202.089 106.183 202.19 106.083 202.19 105.958V105.321C202.19 105.197 202.089 105.096 201.965 105.096Z" fill="#E6E6E6"/>
<path d="M205.586 105.096H204.226C204.101 105.096 204 105.197 204 105.321V105.958C204 106.083 204.101 106.183 204.226 106.183H205.586C205.711 106.183 205.811 106.083 205.811 105.958V105.321C205.811 105.197 205.711 105.096 205.586 105.096Z" fill="#E6E6E6"/>
<path d="M209.208 105.096H207.848C207.723 105.096 207.623 105.197 207.623 105.321V105.958C207.623 106.083 207.723 106.183 207.848 106.183H209.208C209.333 106.183 209.434 106.083 209.434 105.958V105.321C209.434 105.197 209.333 105.096 209.208 105.096Z" fill="#E6E6E6"/>
<path d="M212.83 105.096H211.469C211.345 105.096 211.244 105.197 211.244 105.321V105.958C211.244 106.083 211.345 106.183 211.469 106.183H212.83C212.955 106.183 213.055 106.083 213.055 105.958V105.321C213.055 105.197 212.955 105.096 212.83 105.096Z" fill="#E6E6E6"/>
<path d="M216.452 105.096H215.092C214.967 105.096 214.866 105.197 214.866 105.321V105.958C214.866 106.083 214.967 106.183 215.092 106.183H216.452C216.577 106.183 216.677 106.083 216.677 105.958V105.321C216.677 105.197 216.577 105.096 216.452 105.096Z" fill="#E6E6E6"/>
<path d="M162.081 106.908H160.72C160.595 106.908 160.495 107.009 160.495 107.133V107.77C160.495 107.895 160.595 107.996 160.72 107.996H162.081C162.205 107.996 162.306 107.895 162.306 107.77V107.133C162.306 107.009 162.205 106.908 162.081 106.908Z" fill="#E6E6E6"/>
<path d="M165.703 106.908H164.342C164.217 106.908 164.117 107.009 164.117 107.133V107.77C164.117 107.895 164.217 107.996 164.342 107.996H165.703C165.827 107.996 165.928 107.895 165.928 107.77V107.133C165.928 107.009 165.827 106.908 165.703 106.908Z" fill="#E6E6E6"/>
<path d="M169.324 106.908H167.964C167.839 106.908 167.739 107.009 167.739 107.133V107.77C167.739 107.895 167.839 107.996 167.964 107.996H169.324C169.449 107.996 169.549 107.895 169.549 107.77V107.133C169.549 107.009 169.449 106.908 169.324 106.908Z" fill="#E6E6E6"/>
<path d="M172.946 106.908H171.585C171.461 106.908 171.36 107.009 171.36 107.133V107.77C171.36 107.895 171.461 107.996 171.585 107.996H172.946C173.071 107.996 173.171 107.895 173.171 107.77V107.133C173.171 107.009 173.071 106.908 172.946 106.908Z" fill="#E6E6E6"/>
<path d="M176.568 106.908H175.207C175.083 106.908 174.982 107.009 174.982 107.133V107.77C174.982 107.895 175.083 107.996 175.207 107.996H176.568C176.693 107.996 176.793 107.895 176.793 107.77V107.133C176.793 107.009 176.693 106.908 176.568 106.908Z" fill="#E6E6E6"/>
<path d="M180.19 106.908H178.829C178.705 106.908 178.604 107.009 178.604 107.133V107.77C178.604 107.895 178.705 107.996 178.829 107.996H180.19C180.314 107.996 180.415 107.895 180.415 107.77V107.133C180.415 107.009 180.314 106.908 180.19 106.908Z" fill="#E6E6E6"/>
<path d="M183.812 106.908H182.451C182.327 106.908 182.226 107.009 182.226 107.133V107.77C182.226 107.895 182.327 107.996 182.451 107.996H183.812C183.937 107.996 184.037 107.895 184.037 107.77V107.133C184.037 107.009 183.937 106.908 183.812 106.908Z" fill="#E6E6E6"/>
<path d="M187.434 106.908H186.073C185.949 106.908 185.848 107.009 185.848 107.133V107.77C185.848 107.895 185.949 107.996 186.073 107.996H187.434C187.558 107.996 187.659 107.895 187.659 107.77V107.133C187.659 107.009 187.558 106.908 187.434 106.908Z" fill="#E6E6E6"/>
<path d="M191.056 106.908H189.695C189.571 106.908 189.47 107.009 189.47 107.133V107.77C189.47 107.895 189.571 107.996 189.695 107.996H191.056C191.18 107.996 191.281 107.895 191.281 107.77V107.133C191.281 107.009 191.18 106.908 191.056 106.908Z" fill="#E6E6E6"/>
<path d="M194.678 106.908H193.317C193.193 106.908 193.092 107.009 193.092 107.133V107.77C193.092 107.895 193.193 107.996 193.317 107.996H194.678C194.802 107.996 194.903 107.895 194.903 107.77V107.133C194.903 107.009 194.802 106.908 194.678 106.908Z" fill="#E6E6E6"/>
<path d="M198.3 106.908H196.939C196.815 106.908 196.714 107.009 196.714 107.133V107.77C196.714 107.895 196.815 107.996 196.939 107.996H198.3C198.424 107.996 198.525 107.895 198.525 107.77V107.133C198.525 107.009 198.424 106.908 198.3 106.908Z" fill="#E6E6E6"/>
<path d="M201.922 106.908H200.561C200.437 106.908 200.336 107.009 200.336 107.133V107.77C200.336 107.895 200.437 107.996 200.561 107.996H201.922C202.046 107.996 202.147 107.895 202.147 107.77V107.133C202.147 107.009 202.046 106.908 201.922 106.908Z" fill="#E6E6E6"/>
<path d="M205.544 106.908H204.183C204.059 106.908 203.958 107.009 203.958 107.133V107.77C203.958 107.895 204.059 107.996 204.183 107.996H205.544C205.668 107.996 205.769 107.895 205.769 107.77V107.133C205.769 107.009 205.668 106.908 205.544 106.908Z" fill="#E6E6E6"/>
<path d="M209.166 106.908H207.805C207.681 106.908 207.58 107.009 207.58 107.133V107.77C207.58 107.895 207.681 107.996 207.805 107.996H209.166C209.29 107.996 209.391 107.895 209.391 107.77V107.133C209.391 107.009 209.29 106.908 209.166 106.908Z" fill="#E6E6E6"/>
<path d="M212.788 106.908H211.427C211.302 106.908 211.202 107.009 211.202 107.133V107.77C211.202 107.895 211.302 107.996 211.427 107.996H212.788C212.912 107.996 213.013 107.895 213.013 107.77V107.133C213.013 107.009 212.912 106.908 212.788 106.908Z" fill="#E6E6E6"/>
<path d="M216.409 106.908H215.049C214.924 106.908 214.823 107.009 214.823 107.133V107.77C214.823 107.895 214.924 107.996 215.049 107.996H216.409C216.534 107.996 216.634 107.895 216.634 107.77V107.133C216.634 107.009 216.534 106.908 216.409 106.908Z" fill="#E6E6E6"/>
<path d="M192.143 109.083H178.105C177.981 109.083 177.88 109.184 177.88 109.308V109.945C177.88 110.07 177.981 110.17 178.105 110.17H192.143C192.267 110.17 192.368 110.07 192.368 109.945V109.308C192.368 109.184 192.267 109.083 192.143 109.083Z" fill="#E6E6E6"/>
<path d="M232.29 21.5051H139.813C139.61 21.5006 139.449 21.3322 139.454 21.129C139.458 20.932 139.617 20.7734 139.813 20.769H232.29C232.493 20.7735 232.654 20.9419 232.649 21.1452C232.645 21.3421 232.487 21.5008 232.29 21.5051Z" fill="#CACACA"/>
<path d="M146.108 18.89C147.299 18.89 148.264 17.9028 148.264 16.6851C148.264 15.4674 147.299 14.4802 146.108 14.4802C144.918 14.4802 143.953 15.4674 143.953 16.6851C143.953 17.9028 144.918 18.89 146.108 18.89Z" fill="#CCCCCC"/>
<path d="M153.554 18.89C154.744 18.89 155.709 17.9028 155.709 16.6851C155.709 15.4674 154.744 14.4802 153.554 14.4802C152.363 14.4802 151.398 15.4674 151.398 16.6851C151.398 17.9028 152.363 18.89 153.554 18.89Z" fill="#CCCCCC"/>
<path d="M160.999 18.89C162.189 18.89 163.154 17.9028 163.154 16.6851C163.154 15.4674 162.189 14.4802 160.999 14.4802C159.809 14.4802 158.844 15.4674 158.844 16.6851C158.844 17.9028 159.809 18.89 160.999 18.89Z" fill="#CCCCCC"/>
<path d="M185.957 27.0852L185.658 26.2119L223.855 6.35034L224.154 7.22366L185.957 27.0852Z" fill="#3F3D56"/>
<path d="M301.206 63.8733L300.907 63L323.891 43.239L324.19 44.1119L301.206 63.8733Z" fill="#3F3D56"/>
<path d="M257.047 68.4734L218.85 48.6118L219.149 47.7385L257.345 67.6001L257.047 68.4734Z" fill="#3F3D56"/>
<path d="M276.6 54.6526L254.207 17.8627L254.915 17.2708L277.307 54.0607L276.6 54.6526Z" fill="#3F3D56"/>
<path d="M294.075 6.71441L272.267 6.61384V5.69116L294.075 5.79173V6.71441Z" fill="#3F3D56"/>
<path d="M333.581 12.4375H309.149C305.839 12.4375 303.156 9.75232 303.156 6.44004C303.156 3.12776 305.839 0.442627 309.149 0.442627H333.581C336.891 0.442627 339.574 3.12776 339.574 6.44004C339.574 9.75232 336.891 12.4375 333.581 12.4375Z" fill="#6C63FF"/>
<path d="M364.007 47.4992H339.574C336.264 47.4992 333.581 44.8141 333.581 41.5018C333.581 38.1895 336.264 35.5044 339.574 35.5044H364.007C367.317 35.5044 370 38.1895 370 41.5018C370 44.8141 367.317 47.4992 364.007 47.4992Z" fill="#6C63FF"/>
<path d="M324.501 72.224L302.693 72.1239V71.2012L324.501 71.3013V72.224Z" fill="#3F3D56"/>
<path d="M364.007 77.9477H339.574C336.264 77.9477 333.581 75.2626 333.581 71.9503C333.581 68.638 336.264 65.9529 339.574 65.9529H364.007C367.317 65.9529 370 68.638 370 71.9503C370 75.2626 367.317 77.9477 364.007 77.9477Z" fill="#6C63FF"/>
<path d="M292.553 73.8144H268.12C264.81 73.8144 262.127 71.1293 262.127 67.817C262.127 64.5047 264.81 61.8196 268.12 61.8196H292.553C295.863 61.8196 298.546 64.5047 298.546 67.817C298.546 71.1293 295.863 73.8144 292.553 73.8144Z" fill="#6C63FF"/>
<path d="M259.361 11.9948H234.928C231.619 11.9948 228.936 9.30969 228.936 5.99741C228.936 2.68513 231.619 0 234.928 0H259.361C262.671 0 265.354 2.68513 265.354 5.99741C265.354 9.30969 262.671 11.9948 259.361 11.9948Z" fill="#6C63FF"/>
<path d="M142.578 114.957H114.918C112.881 114.957 111.23 116.609 111.23 118.647C111.23 120.686 112.881 122.338 114.918 122.338H125.06V150.941H132.436V122.338H142.578C144.615 122.338 146.266 120.686 146.266 118.647C146.266 116.609 144.615 114.957 142.578 114.957Z" fill="#3F3D56"/>
<path d="M160.834 166.782H86.8518C72.0268 166.728 59.4842 155.802 57.3866 141.115L54.7678 131.475C49.3475 111.499 41.0913 92.4045 30.2515 74.7751C25.297 66.723 22.747 58.9286 28.539 51.4243C28.5883 51.3604 28.6368 51.2974 28.6845 51.2353C33.33 45.1843 56.4522 43.8744 63.99 43.6196C64.2878 43.6094 64.5867 43.6044 64.8868 43.6045H110.903C111.203 43.6045 111.502 43.6095 111.799 43.6196C120.078 43.8611 127.556 48.631 131.27 56.0393C135.233 63.6028 134.728 72.733 129.953 79.812C113.789 104.111 108.84 119.348 113.907 129.215C118.808 138.758 133.831 143.638 161.186 144.57C168.537 144.821 171.911 150.549 171.935 155.765C171.958 160.847 168.714 166.457 161.538 166.767C161.305 166.777 161.07 166.782 160.834 166.782Z" fill="#3F3D56"/>
<path d="M99.4199 232.523H127.08C129.116 232.523 130.768 230.87 130.768 228.832C130.768 226.794 129.116 225.141 127.08 225.141H116.938V162.861H109.562V225.141H99.4199C97.3831 225.141 95.7319 226.794 95.7319 228.832C95.7319 230.87 97.3831 232.523 99.4199 232.523Z" fill="#3F3D56"/>
<path d="M124.455 207.415L129.219 210.005L141.833 192.552L134.8 188.729L124.455 207.415Z" fill="#A0616A"/>
<path d="M126.748 201.195L135.398 203.906L134.021 207.533L139.953 216.148C140.712 217.25 140.434 218.759 139.333 219.518C138.678 219.97 137.843 220.071 137.099 219.788L127.029 215.96L126.655 211.713L124.616 215.042L120.819 213.599L126.748 201.195Z" fill="#2F2E41"/>
<path d="M136.494 31.406C136.92 34.3343 134.894 37.0544 131.968 37.4815C131.656 37.527 131.341 37.5449 131.026 37.5349L112.654 76.6543L106.893 68.6133L125.804 31.6226C126.095 28.6616 128.729 26.4969 131.688 26.7877C134.164 27.031 136.15 28.9403 136.494 31.406Z" fill="#A0616A"/>
<path d="M75.527 84.5638C75.527 84.5638 75.0347 91.3979 82.7578 92.7383C90.4809 94.0787 111.127 81.0133 114.518 79.0072C117.909 77.001 124.227 51.7602 124.227 51.7602L118.732 42.4587C111.947 51.0475 106.619 58.9673 106.296 64.5892L75.527 84.5638Z" fill="#6C63FF"/>
<path d="M84.4431 108.104L86.1111 115.277C86.1111 115.277 86.1275 121.89 87.2978 123.109C88.46 124.323 114.015 121.886 114.015 121.886C114.015 121.886 111.305 111.229 111.342 103.166L84.4431 108.104Z" fill="#A0616A"/>
<path d="M138.429 199.843L129.209 194.768C129.034 182.762 136.25 166.514 144.809 149.496C125.667 152.791 107.608 153.846 91.9883 149.861C86.6526 148.451 83.4368 143.014 84.7679 137.655C84.8287 137.402 84.899 137.152 84.9788 136.904C86.8482 131.196 82.6564 127.618 86.5118 121.34C96.6521 117.874 106.285 116.896 115.094 119.956L120.613 132.168L147.969 128.626C153.501 127.964 158.522 131.915 159.183 137.451C159.186 137.476 159.189 137.501 159.192 137.527C159.228 137.824 159.252 138.122 159.264 138.422C153.732 164.373 147.53 187.725 138.429 199.843Z" fill="#2F2E41"/>
<path d="M80.7295 62.698L91.2684 62.0753C92.1794 62.0214 93.0243 62.5519 93.3723 63.3962L96.3505 70.6215L108.728 80.8596C108.728 80.8596 113.629 87.1006 113.64 95.1607C113.652 103.221 115.379 121.877 115.379 121.877C115.379 121.877 108.227 111.802 103.812 114.481C103.061 114.937 102.797 115.87 102.01 116.341C101.618 116.576 100.711 116.347 100.315 116.583C94.2318 120.197 87.8876 123.727 87.2948 123.108C86.1309 121.893 84.7191 115.682 84.7191 115.682L75.0722 80.2106C74.0132 76.4317 74.698 72.3769 76.9389 69.1561C77.6129 68.2065 78.319 67.5001 78.9752 67.3832C80.4486 67.0693 79.6649 63.7645 80.7295 62.698Z" fill="#6C63FF"/>
<path d="M170.379 222.44L174.827 219.344L164.75 200.317L158.184 204.885L170.379 222.44Z" fill="#A0616A"/>
<path d="M171.051 209.673L164.079 215.909C152.993 203.547 144.613 186.21 137.511 166.521C118.902 161.067 104.869 152.271 92.618 141.828C88.462 138.308 85.3464 133.787 88.891 129.5C89.0567 129.3 89.2297 129.106 89.4101 128.919C93.5951 124.614 104.208 125.435 110.424 121.491L124.31 136.345L123.437 140.327L149.519 149.168C154.769 151.01 157.534 156.762 155.694 162.017C155.685 162.042 155.675 162.068 155.666 162.094C155.568 162.377 155.459 162.655 155.337 162.929L171.051 209.673Z" fill="#2F2E41"/>
<path d="M167.785 221.185L174.906 215.573L177.119 218.758L187.574 218.726C188.911 218.722 189.998 219.803 190.003 221.142C190.005 221.938 189.617 222.685 188.963 223.139L180.118 229.292L176.405 227.202L177.998 230.767L174.663 233.087L167.785 221.185Z" fill="#2F2E41"/>
<path d="M96.292 152.091C93.57 150.935 92.2999 147.789 93.4553 145.065C93.5784 144.775 93.727 144.496 93.8993 144.232L70.0408 108.2L79.8997 107.45L101.66 142.838C104.037 144.625 104.517 148.002 102.732 150.381C101.238 152.371 98.5756 153.079 96.292 152.091Z" fill="#A0616A"/>
<path d="M82.5742 72.343C82.5742 72.343 76.9946 68.3718 71.8382 74.2797C66.6817 80.1876 67.1123 104.63 67.0638 108.571C67.0487 109.806 68.8296 112.469 71.2834 115.545C72.3849 116.926 73.6221 118.391 74.8933 119.846C75.6288 120.689 74.995 122.442 75.7336 123.261C76.4682 124.075 78.5753 123.955 79.274 124.711C82.5905 128.298 85.2847 131.028 85.2847 131.028L96.0814 131.161C96.2032 123.129 90.7068 115.96 83.6457 109.03L82.5742 72.343Z" fill="#6C63FF"/>
<path d="M71.6913 37.372C70.6692 38.1103 69.5938 38.871 68.3465 39.0539C67.0993 39.2369 65.639 38.6335 65.2939 37.4201C64.8718 35.9366 66.2105 34.5858 67.4136 33.6216L71.2287 30.5643C71.9274 29.9443 72.7161 29.4339 73.5679 29.0508C74.4345 28.6692 75.4275 28.7024 76.2667 29.1411C77.1004 29.7046 77.5826 30.6604 77.5405 31.6663C77.4861 32.6578 77.1591 33.615 76.5956 34.4324C75.1645 36.6647 72.8848 38.2155 70.2841 38.7259" fill="#2F2E41"/>
<path d="M100.627 116.802H72.9675C70.9307 116.802 69.2795 118.454 69.2795 120.493C69.2795 122.531 70.9307 124.183 72.9675 124.183H83.1094V152.786H90.4853V124.183H100.627C102.664 124.183 104.315 122.531 104.315 120.493C104.315 118.454 102.664 116.802 100.627 116.802Z" fill="#3F3D56"/>
<path d="M73.3861 29.6289C73.4974 26.8618 70.5508 24.6706 67.7897 24.8438C65.0286 25.017 62.655 26.9607 61.0892 29.244C59.5238 31.5254 58.5835 34.1679 57.3503 36.6449C56.1171 39.122 54.4748 41.5473 52.0243 42.8309C49.5742 44.1126 46.1637 43.8839 44.4703 41.6955C43.4023 43.3163 43.1701 45.3493 43.8449 47.1695C44.5382 48.9661 45.8311 50.4674 47.5044 51.4188C48.1704 51.8141 48.8818 52.1272 49.6231 52.3512C49.9288 51.5256 50.3588 50.7516 50.8983 50.0561C50.6546 50.8794 50.5616 51.7401 50.6237 52.5966C51.7663 52.8157 52.9417 52.7972 54.0767 52.5421C56.3368 52.0362 58.2264 50.494 59.1761 48.3802C60.2117 45.927 59.6843 43.1298 59.9058 40.476C60.1253 37.8218 61.7236 34.7917 64.3848 34.7484C66.4115 34.7151 66.1432 34.8823 67.4274 36.4516" fill="#2F2E41"/>
<path d="M91.7893 44.1696C91.7893 50.7942 86.423 56.1645 79.8034 56.1645C73.1838 56.1645 66.8955 48.4875 66.8955 41.8629C66.8955 35.2384 73.1838 32.1748 79.8034 32.1748C86.423 32.1748 91.7893 37.5451 91.7893 44.1696Z" fill="#2F2E41"/>
<path d="M85.7099 58.544C91.8971 57.2771 95.8865 51.2305 94.6205 45.0387C93.3545 38.8469 87.3125 34.8545 81.1253 36.1215C74.9381 37.3885 70.9487 43.435 72.2147 49.6268C73.4807 55.8186 79.5227 59.811 85.7099 58.544Z" fill="#A0616A"/>
<path d="M97.7823 45.5536C94.3972 46.4786 90.9794 47.4482 89.6596 45.5536C89.4031 44.2974 88.917 43.0993 88.2259 42.0197C88.0959 43.2288 87.8124 44.4163 87.3822 45.5536C83.1056 46.4839 79.1085 46.7062 75.6545 45.5536C75.1796 46.4132 74.9039 47.3687 74.8478 48.3493C74.677 48.242 74.4982 48.1479 74.313 48.0679C74.0909 47.9422 73.8254 47.9187 73.5847 48.0033C73.4182 48.1039 73.3075 48.2759 73.285 48.4693C73.2621 48.6617 73.2714 48.8566 73.3127 49.0459C73.3611 49.7058 73.5581 50.3461 73.8889 50.919C74.1536 51.3179 74.5734 51.5874 75.046 51.6617C75.5255 54.3606 79.3425 58.0098 79.3425 58.0098C67.8176 58.4711 67.8176 50.6468 67.8176 43.2469L69.2006 40.4789H73.8106V34.4814H86.7184C92.8282 34.483 97.7807 39.4393 97.7823 45.5536Z" fill="#2F2E41"/>
<path d="M202.813 233.858L0.551764 234C0.248618 234.001 0.00158884 233.757 7.62745e-06 233.453C-0.00157359 233.15 0.242892 232.903 0.546038 232.901H0.551764L202.813 232.76C203.117 232.761 203.362 233.007 203.361 233.311C203.36 233.613 203.115 233.857 202.813 233.858Z" fill="#CACACA"/>
<path d="M337.885 233.858L233.354 234C233.051 234.001 232.804 233.757 232.802 233.453C232.801 233.15 233.045 232.903 233.349 232.901H233.354L337.885 232.76C338.188 232.759 338.435 233.004 338.436 233.307C338.437 233.61 338.192 233.857 337.888 233.858H337.885Z" fill="#CACACA"/>
<path d="M207.436 68.2781H167.812C164.371 68.2743 161.582 65.4833 161.578 62.0392V35.7645C161.582 32.3205 164.371 29.5295 167.812 29.5256H207.436C210.878 29.5295 213.667 32.3205 213.67 35.7645V62.0392C213.667 65.4833 210.878 68.2743 207.436 68.2781ZM167.812 30.4483C164.88 30.4516 162.503 32.8299 162.5 35.7645V62.0392C162.503 64.9739 164.88 67.3521 167.812 67.3555H207.436C210.369 67.3521 212.745 64.9739 212.748 62.0392V35.7645C212.745 32.8298 210.369 30.4517 207.436 30.4483L167.812 30.4483Z" fill="#E6E6E6"/>
<path d="M179.552 37.8298H168.954V38.7525H179.552V37.8298Z" fill="#E6E6E6"/>
<path d="M192.464 41.5205H168.954V42.4432H192.464V41.5205Z" fill="#E6E6E6"/>
<path d="M192.464 44.75H168.954V45.6727H192.464V44.75Z" fill="#E6E6E6"/>
<path d="M198.918 47.9792H168.954V48.9019H198.918V47.9792Z" fill="#E6E6E6"/>
<path d="M184.627 51.2087H168.954V52.1314H184.627V51.2087Z" fill="#E6E6E6"/>
<path d="M197.535 54.438H168.954V55.3607H197.535V54.438Z" fill="#E6E6E6"/>
<path d="M174.025 57.6675H168.954V58.5902H174.025V57.6675Z" fill="#E6E6E6"/>
<path d="M168.609 17.9731C168.564 17.9731 168.519 17.9557 168.485 17.9212L167.502 16.9149C167.436 16.8479 167.436 16.7407 167.502 16.6737L168.485 15.6675C168.552 15.5995 168.661 15.5984 168.729 15.6648C168.797 15.7315 168.798 15.8407 168.732 15.9088L167.866 16.7943L168.732 17.68C168.798 17.748 168.797 17.8573 168.729 17.9239C168.696 17.9568 168.652 17.9731 168.609 17.9731Z" fill="#CCCCCC"/>
<path d="M170.262 17.973C170.218 17.973 170.174 17.9566 170.141 17.9238C170.073 17.8572 170.072 17.748 170.138 17.6798L171.004 16.7942L170.138 15.9087C170.072 15.8406 170.073 15.7313 170.141 15.6647C170.209 15.598 170.318 15.5993 170.385 15.6674L171.368 16.6736C171.434 16.7406 171.434 16.8478 171.368 16.9148L170.385 17.9211C170.351 17.9556 170.306 17.973 170.262 17.973Z" fill="#CCCCCC"/>
<path d="M221.719 15.4756H219.89C219.682 15.4756 219.513 15.6446 219.513 15.8534V17.6855C219.513 17.8942 219.682 18.0633 219.89 18.0633H221.719C221.928 18.0633 222.098 17.8942 222.098 17.6855V15.8534C222.098 15.6446 221.928 15.4756 221.719 15.4756Z" fill="#CCCCCC"/>
<path d="M217.237 15.4756H215.408C215.2 15.4756 215.031 15.6446 215.031 15.8534V17.6855C215.031 17.8942 215.2 18.0633 215.408 18.0633H217.237C217.446 18.0633 217.617 17.8942 217.617 17.6855V15.8534C217.617 15.6446 217.446 15.4756 217.237 15.4756Z" fill="#CCCCCC"/>
<path d="M225.943 15.5618H224.114C223.905 15.5618 223.736 15.7308 223.736 15.9396V17.7716C223.736 17.9804 223.905 18.1494 224.114 18.1494H225.943C226.151 18.1494 226.322 17.9804 226.322 17.7716V15.9396C226.322 15.7308 226.151 15.5618 225.943 15.5618Z" fill="#CCCCCC"/>
<path d="M198.375 16.2588H183.755C183.5 16.2588 183.295 16.4658 183.295 16.7194C183.295 16.973 183.5 17.18 183.755 17.18H198.375C198.628 17.18 198.835 16.973 198.835 16.7194C198.835 16.4658 198.628 16.2588 198.375 16.2588Z" fill="#CCCCCC"/>
</g>
<defs>
<clipPath id="clip0_9_1214">
<rect width="370" height="234" fill="white"/>
</clipPath>
</defs>
</svg>
