<svg width="170" height="116" viewBox="0 0 170 116" fill="none" xmlns="http://www.w3.org/2000/svg">
<g id="undraw_calling_re_mgft 1" clip-path="url(#clip0_67_1241)">
<path id="Vector" d="M56.0031 115.774H52.7973C52.3898 115.774 51.9991 115.613 51.711 115.326C51.4228 115.039 51.2607 114.65 51.2603 114.244V87.6474C51.2607 87.2417 51.4228 86.8529 51.711 86.566C51.9991 86.2792 52.3898 86.1179 52.7973 86.1174H56.0031C56.4106 86.1179 56.8013 86.2792 57.0894 86.566C57.3776 86.8529 57.5397 87.2417 57.5401 87.6474V114.244C57.5397 114.65 57.3776 115.039 57.0894 115.326C56.8013 115.613 56.4106 115.774 56.0031 115.774Z" fill="#6C63FF"/>
<path id="Vector_2" d="M48.1419 115.774H44.9359C44.5284 115.774 44.1378 115.613 43.8496 115.326C43.5615 115.039 43.3994 114.65 43.3989 114.244V87.6474C43.3994 87.2417 43.5615 86.8529 43.8496 86.566C44.1378 86.2792 44.5284 86.1179 44.9359 86.1174H48.1419C48.5493 86.1179 48.94 86.2792 49.2282 86.566C49.5163 86.8529 49.6784 87.2417 49.6788 87.6474V114.244C49.6784 114.65 49.5163 115.039 49.2282 115.326C48.94 115.613 48.5493 115.774 48.1419 115.774Z" fill="#6C63FF"/>
<path id="Vector_3" d="M51.3871 52.6569C58.4365 52.6569 64.1512 46.9684 64.1512 39.9514C64.1512 32.9343 58.4365 27.2458 51.3871 27.2458C44.3377 27.2458 38.623 32.9343 38.623 39.9514C38.623 46.9684 44.3377 52.6569 51.3871 52.6569Z" fill="#6C63FF"/>
<path id="Vector_4" d="M58.6006 44.1684C59.4078 43.9863 60.4125 43.7597 61.0785 43.0408C61.2754 42.8198 61.4214 42.5586 61.5063 42.2755C61.5911 41.9924 61.6128 41.6943 61.5697 41.4021C61.5429 41.1936 61.4681 40.9941 61.3511 40.8192C61.234 40.6442 61.0779 40.4986 60.895 40.3937C60.4206 40.1317 59.8112 40.1682 59.2086 40.4811L58.9147 35.5298L58.415 35.5591L58.7606 41.38L59.13 41.1146C59.5584 40.8069 60.1832 40.5703 60.6521 40.8293C60.7682 40.8983 60.8669 40.993 60.9403 41.1061C61.0138 41.2191 61.06 41.3476 61.0755 41.4813C61.1064 41.6991 61.0897 41.9209 61.0267 42.1317C60.9637 42.3425 60.8558 42.5373 60.7104 42.7029C60.1922 43.2624 59.3982 43.4775 58.49 43.6825L58.6006 44.1684Z" fill="#2F2E41"/>
<path id="Vector_5" d="M64.0476 34.9524L61.4028 35.4724L61.4998 35.9612L64.1446 35.4412L64.0476 34.9524Z" fill="#2F2E41"/>
<path id="Vector_6" d="M55.7005 36.5942L53.0557 37.1143L53.1527 37.6031L55.7975 37.0831L55.7005 36.5942Z" fill="#2F2E41"/>
<path id="Vector_7" d="M54.5266 92.5332H39.6451C39.1833 92.5327 38.7406 92.3499 38.414 92.0248C38.0875 91.6998 37.9038 91.2591 37.9033 90.7994V68.57C37.9072 65.1532 39.2725 61.8774 41.6997 59.4614C44.1269 57.0453 47.4178 55.6863 50.8504 55.6824C54.3797 55.6864 57.7633 57.0837 60.2588 59.5679C62.7544 62.052 64.1582 65.4201 64.1622 68.9332V82.9421C64.1592 85.485 63.1431 87.9229 61.3367 89.7209C59.5303 91.519 57.0812 92.5304 54.5266 92.5332Z" fill="#2F2E41"/>
<path id="Vector_8" d="M48.9942 34.3577C49.4063 33.1281 50.8375 32.6538 52.0281 32.6169C53.7018 32.5651 55.3358 33.1568 57.0147 32.8923C60.0603 32.4127 61.9615 29.491 62.5541 26.694C62.9493 24.8284 62.9143 22.916 62.8697 21.0203C62.8724 20.9473 62.8539 20.8749 62.8164 20.812C62.7788 20.7492 62.7238 20.6984 62.658 20.6659C62.5922 20.6334 62.5183 20.6205 62.4453 20.6288C62.3723 20.6371 62.3033 20.6663 62.2465 20.7127C61.0289 21.5397 60.1535 22.7777 59.7823 24.1977L60.5115 24.3478L60.8951 21.0368C60.9003 20.9548 60.8787 20.8733 60.8333 20.8046C60.788 20.7359 60.7214 20.6838 60.6437 20.6561C59.5013 20.26 58.5489 21.1538 57.9273 21.9994C57.6054 22.4374 57.2966 22.9145 56.8182 23.1996C56.32 23.47 55.7497 23.5799 55.1861 23.5143C54.0223 23.4305 52.9189 22.9928 51.7788 22.7761C50.7319 22.5821 49.6642 22.523 48.6021 22.6002C46.5001 22.7471 44.4628 23.3869 42.6568 24.4674C40.8528 25.5494 39.2012 27.0958 38.2437 28.9838C37.6971 30.0617 37.4003 31.3025 37.7006 32.4973C37.8208 33.0401 38.067 33.5473 38.4197 33.9782C38.7723 34.4092 39.2215 34.7519 39.7312 34.9788C40.1781 35.1651 40.4213 34.4576 39.9773 34.2726C39.1318 33.9202 38.5952 33.094 38.4073 32.224C38.1927 31.2296 38.4555 30.2009 38.9132 29.3103C39.8044 27.5761 41.33 26.1339 42.9929 25.1359C44.6857 24.1208 46.5912 23.5087 48.5607 23.3472C49.5242 23.2709 50.4934 23.3129 51.4465 23.4723C52.5158 23.6497 53.5386 24.0306 54.6103 24.1988C55.7863 24.3834 57.0067 24.221 57.8484 23.3101C58.4674 22.6401 59.2323 20.9583 60.3975 21.3623L60.1461 20.9815L59.7626 24.2925C59.7146 24.7068 60.3843 24.8566 60.4918 24.4427C60.8263 23.1467 61.6279 22.0185 62.7439 21.2727L62.1207 20.9651C62.1947 24.1083 62.2609 27.5823 60.1562 30.158C59.2533 31.263 57.9826 32.0713 56.5385 32.2001C54.9117 32.3452 53.3146 31.759 51.6857 31.8944C50.2772 32.0115 48.7617 32.6893 48.2847 34.1126C48.1316 34.5696 48.8412 34.8144 48.9942 34.3577Z" fill="#2F2E41"/>
<path id="Vector_9" d="M55.41 45.5281C55.408 45.5639 55.4055 45.5998 55.4017 45.6359C55.3721 45.9401 55.2822 46.2354 55.1372 46.5048C54.9922 46.7742 54.7949 47.0123 54.5568 47.2053L51.9084 49.3643C51.4285 49.7545 50.8128 49.9393 50.1962 49.8782C49.5797 49.8171 49.0126 49.515 48.6195 49.0384L41.9699 40.956C41.5781 40.4783 41.3925 39.8654 41.4539 39.2517C41.5153 38.638 41.8187 38.0736 42.2975 37.6822L44.9459 35.5234C45.1833 35.3298 45.4567 35.1847 45.7504 35.0963C46.0442 35.0079 46.3525 34.978 46.6579 35.0083C46.9633 35.0385 47.2597 35.1284 47.5301 35.2727C47.8006 35.417 48.0399 35.6129 48.2342 35.8493L54.8838 43.9316C55.2543 44.3792 55.4421 44.949 55.41 45.5281Z" fill="#2F2E41"/>
<path id="Vector_10" d="M46.9705 41.4685C47.4288 41.4685 47.8003 41.0986 47.8003 40.6424C47.8003 40.1862 47.4288 39.8164 46.9705 39.8164C46.5122 39.8164 46.1406 40.1862 46.1406 40.6424C46.1406 41.0986 46.5122 41.4685 46.9705 41.4685Z" fill="white"/>
<path id="Vector_11" d="M52.7013 41.6511L52.7006 41.6564C53.053 41.731 53.3646 41.9342 53.5741 42.226C53.7835 42.5178 53.8757 42.877 53.8324 43.233L50.9971 66.3553C50.9061 67.097 50.5329 67.7757 49.9544 68.2519C49.3759 68.728 48.6361 68.9654 47.8871 68.9151C47.1382 68.8648 46.4371 68.5307 45.9281 67.9815C45.419 67.4324 45.1408 66.7099 45.1506 65.9627C45.1523 65.8574 45.1595 65.7522 45.1724 65.6477L48.0076 42.5254C48.0539 42.1479 48.249 41.8041 48.5498 41.5698C48.8507 41.3354 49.2328 41.2296 49.6121 41.2757L52.7013 41.6511Z" fill="#6C63FF"/>
<path id="Vector_12" d="M147.167 27.31C153.04 27.31 157.801 22.5712 157.801 16.7255C157.801 10.8799 153.04 6.14111 147.167 6.14111C141.295 6.14111 136.534 10.8799 136.534 16.7255C136.534 22.5712 141.295 27.31 147.167 27.31Z" fill="#E4E4E4"/>
<path id="Vector_13" d="M148.411 21.1687C147.722 21.1496 146.864 21.1258 146.203 20.6453C146.006 20.4963 145.845 20.3063 145.729 20.0886C145.614 19.8709 145.548 19.6308 145.536 19.385C145.524 19.2103 145.553 19.0352 145.62 18.8735C145.687 18.7117 145.791 18.5676 145.924 18.4525C146.121 18.3062 146.351 18.2113 146.594 18.1764C146.838 18.1416 147.086 18.1679 147.316 18.2529L146.753 14.1591L147.166 14.1028L147.828 18.9156L147.483 18.758C147.083 18.5754 146.534 18.4825 146.193 18.7694C146.109 18.8445 146.044 18.9377 146.002 19.0419C145.96 19.1462 145.943 19.2586 145.953 19.3704C145.963 19.5533 146.012 19.7319 146.098 19.8941C146.184 20.0562 146.303 20.1981 146.449 20.3101C146.963 20.684 147.647 20.7322 148.423 20.7538L148.411 21.1687Z" fill="#2F2E41"/>
<path id="Vector_14" d="M144.71 14.512H142.464V14.927H144.71V14.512Z" fill="#2F2E41"/>
<path id="Vector_15" d="M151.799 14.512H149.553V14.927H151.799V14.512Z" fill="#2F2E41"/>
<path id="Vector_16" d="M147.168 33.4509C143.845 33.4509 140.596 32.47 137.833 30.6322C135.07 28.7944 132.916 26.1822 131.644 23.126C130.373 20.0698 130.04 16.7069 130.688 13.4625C131.336 10.2181 132.937 7.23788 135.287 4.89878C137.636 2.55968 140.63 0.966738 143.89 0.321383C147.149 -0.323973 150.528 0.00724596 153.598 1.27316C156.668 2.53907 159.292 4.68281 161.139 7.4333C162.985 10.1838 163.97 13.4175 163.97 16.7255C163.965 21.1598 162.193 25.4111 159.043 28.5466C155.893 31.6822 151.623 33.4459 147.168 33.4509ZM147.168 0.458238C143.936 0.458238 140.776 1.41229 138.089 3.19976C135.401 4.98722 133.306 7.52782 132.07 10.5003C130.833 13.4727 130.509 16.7435 131.14 19.899C131.77 23.0546 133.327 25.9531 135.612 28.2281C137.898 30.5031 140.81 32.0524 143.98 32.6801C147.15 33.3078 150.436 32.9856 153.422 31.7544C156.408 30.5232 158.96 28.4382 160.756 25.763C162.552 23.0879 163.51 19.9428 163.51 16.7255C163.505 12.4126 161.782 8.27782 158.718 5.22818C155.654 2.17854 151.501 0.463115 147.168 0.458238Z" fill="#3F3D56"/>
<path id="Vector_17" d="M132.44 66.1117C137.121 66.1117 140.915 62.335 140.915 57.6761C140.915 53.0172 137.121 49.2405 132.44 49.2405C127.76 49.2405 123.966 53.0172 123.966 57.6761C123.966 62.335 127.76 66.1117 132.44 66.1117Z" fill="#E4E4E4"/>
<path id="Vector_18" d="M161.525 66.1117C166.206 66.1117 170 62.335 170 57.6761C170 53.0172 166.206 49.2405 161.525 49.2405C156.845 49.2405 153.051 53.0172 153.051 57.6761C153.051 62.335 156.845 66.1117 161.525 66.1117Z" fill="#CACACA"/>
<path id="Vector_19" d="M136.557 59.3606C136.274 59.3721 135.998 59.272 135.789 59.0821C135.58 58.8923 135.454 58.6279 135.44 58.3465C135.438 58.3252 135.436 58.304 135.435 58.2826H129.445C129.444 58.304 129.442 58.3252 129.441 58.3465C129.433 58.4902 129.397 58.6309 129.334 58.7603C129.271 58.8897 129.182 59.0051 129.073 59.0996C128.964 59.1942 128.837 59.2659 128.7 59.3106C128.563 59.3553 128.418 59.3719 128.274 59.3596C128.124 59.3585 127.976 59.3279 127.838 59.2695C127.7 59.2111 127.575 59.1262 127.47 59.0196C127.365 58.9129 127.283 58.7867 127.227 58.6482C127.171 58.5096 127.144 58.3615 127.146 58.2124V58.1681C127.147 57.591 127.377 57.0377 127.787 56.6297C128.197 56.2216 128.753 55.9921 129.333 55.9915H135.547C136.127 55.9921 136.683 56.2216 137.093 56.6297C137.503 57.0377 137.733 57.591 137.734 58.1681V58.2124C137.736 58.3615 137.709 58.5096 137.653 58.6482C137.597 58.7867 137.515 58.9129 137.41 59.0196C137.305 59.1262 137.18 59.2111 137.042 59.2695C136.905 59.3279 136.756 59.3585 136.606 59.3596C136.59 59.3603 136.573 59.3606 136.557 59.3606Z" fill="white"/>
<path id="Vector_20" d="M163.473 62.3485C163.331 62.3484 163.19 62.3347 163.05 62.3076C162.768 62.2537 162.5 62.1445 162.26 61.9866C162.021 61.8286 161.815 61.6249 161.655 61.3874L158.183 56.2568C157.86 55.7778 157.741 55.1907 157.852 54.6243C157.962 54.0579 158.295 53.5585 158.775 53.2355L158.812 53.2107C158.935 53.1257 159.074 53.0657 159.22 53.0342C159.367 53.0028 159.518 53.0005 159.665 53.0274C159.813 53.0544 159.953 53.11 160.079 53.1913C160.205 53.2725 160.313 53.3776 160.398 53.5007C160.488 53.6128 160.555 53.7419 160.594 53.8802C160.633 54.0184 160.644 54.1632 160.626 54.3058C160.608 54.4484 160.562 54.5859 160.49 54.7103C160.417 54.8348 160.321 54.9435 160.206 55.0301C160.189 55.0434 160.172 55.0564 160.155 55.0692L163.502 60.0147C163.52 60.0037 163.539 59.993 163.557 59.9826C163.681 59.9089 163.819 59.8606 163.962 59.8407C164.105 59.8208 164.25 59.8296 164.39 59.8667C164.529 59.9037 164.66 59.9682 164.774 60.0563C164.888 60.1445 164.983 60.2545 165.053 60.3798C165.136 60.5042 165.193 60.6436 165.222 60.7901C165.25 60.9365 165.249 61.0872 165.219 61.2333C165.189 61.3794 165.13 61.518 165.045 61.6413C164.961 61.7646 164.853 61.8701 164.728 61.9517L164.69 61.9765C164.331 62.2188 163.907 62.3483 163.473 62.3485Z" fill="white"/>
<path id="Vector_21" d="M105.531 116H0.274246C0.201698 116 0.132194 115.971 0.0809692 115.92C0.029744 115.869 0.000976562 115.799 0.000976562 115.727C0.000976562 115.655 0.029744 115.586 0.0809692 115.535C0.132194 115.483 0.201698 115.455 0.274246 115.454H105.531C105.603 115.455 105.673 115.483 105.724 115.535C105.775 115.586 105.804 115.655 105.804 115.727C105.804 115.799 105.775 115.869 105.724 115.92C105.673 115.971 105.603 116 105.531 116Z" fill="#3F3D56"/>
</g>
<defs>
<clipPath id="clip0_67_1241">
<rect width="170" height="116" fill="white"/>
</clipPath>
</defs>
</svg>
