<svg width="33" height="32" viewBox="0 0 33 32" fill="none" xmlns="http://www.w3.org/2000/svg">
<path fill-rule="evenodd" clip-rule="evenodd" d="M29.1009 24.3058C30.6794 21.848 31.5996 18.9285 31.5996 15.7968C31.5996 7.08631 24.5118 0 15.8 0C7.08802 0 0 7.08631 0 15.7968C0 24.5065 7.08802 31.5931 15.8 31.5931C18.9405 31.5931 21.868 30.6681 24.3307 29.0817C27.8205 31.5436 30.6587 32.6277 31.6546 31.6325C32.6505 30.6363 31.5649 27.7966 29.1009 24.3058ZM26.3827 15.7968C26.3827 17.2539 25.8588 19.1421 25.3235 20.4068C26.734 22.0472 27.8946 23.5753 28.722 24.869C29.9371 26.7694 30.4352 28.1637 29.9436 28.6547C29.4687 29.1295 28.1487 28.6803 26.3416 27.5503C25.1005 26.7737 23.629 25.675 22.043 24.333C20.7105 23.205 19.2968 21.9063 17.871 20.4809C13.3297 15.9406 10.0621 11.5224 9.57266 9.44762C9.55306 9.46411 9.51577 9.47056 9.51314 9.49613C9.51314 9.49613 10.6317 16.9562 19.9338 25.5364C18.6632 26.0774 17.2661 26.3773 15.8 26.3773C9.96437 26.3773 5.21688 21.6307 5.21688 15.7968C5.21688 9.96232 9.96437 5.21581 15.8 5.21581C21.6352 5.21581 26.3827 9.96232 26.3827 15.7968Z" fill="url(#paint0_linear_29_478)"/>
<defs>
<linearGradient id="paint0_linear_29_478" x1="-18.3281" y1="28.6741" x2="50.3504" y2="28.6741" gradientUnits="userSpaceOnUse">
<stop stop-color="#4568DC"/>
<stop offset="1" stop-color="#B06AB3"/>
</linearGradient>
</defs>
</svg>
