<svg width="162" height="44" viewBox="0 0 162 44" fill="none" xmlns="http://www.w3.org/2000/svg">
<path d="M22.3821 35.653L18.383 43.8017H17.5354L16.416 41.5527L15.3185 43.8017H14.4708L10.45 35.653H12.2974L14.949 41.0312L15.5467 39.7926L13.5145 35.653H15.2533L16.416 38.0324L17.6006 35.653H19.3285L17.2854 39.7926L17.894 41.0421L20.5456 35.653H22.3821Z" fill="url(#paint0_linear_29_460)"/>
<path d="M47.3285 39.7274C47.3285 40.3068 47.218 40.8501 46.9971 41.3571C46.7761 41.8642 46.4736 42.3078 46.0897 42.6881C45.7057 43.0684 45.2583 43.3671 44.7476 43.5844C44.2368 43.8017 43.6952 43.9104 43.1229 43.9104C42.5433 43.9104 42 43.8017 41.4928 43.5844C40.9857 43.3671 40.5401 43.0684 40.1562 42.6881C39.7722 42.3078 39.4697 41.8642 39.2487 41.3571C39.0278 40.8501 38.9173 40.3068 38.9173 39.7274C38.9173 39.1552 39.0278 38.6137 39.2487 38.1031C39.4697 37.5924 39.7722 37.1488 40.1562 36.7721C40.5401 36.3955 40.9857 36.0967 41.4928 35.8758C42 35.6548 42.5433 35.5444 43.1229 35.5444C43.6952 35.5444 44.2368 35.6548 44.7476 35.8758C45.2583 36.0967 45.7057 36.3955 46.0897 36.7721C46.4736 37.1488 46.7761 37.5924 46.9971 38.1031C47.218 38.6137 47.3285 39.1552 47.3285 39.7274ZM45.6984 39.7274C45.6984 39.3797 45.6296 39.0501 45.4919 38.7387C45.3543 38.4272 45.1696 38.1556 44.9377 37.9238C44.7059 37.692 44.4324 37.5091 44.1172 37.3751C43.8021 37.2411 43.4707 37.1741 43.1229 37.1741C42.7679 37.1741 42.4346 37.2411 42.1231 37.3751C41.8116 37.5091 41.5381 37.692 41.3026 37.9238C41.0672 38.1556 40.8824 38.4272 40.7484 38.7387C40.6144 39.0501 40.5474 39.3797 40.5474 39.7274C40.5474 40.0751 40.6162 40.4046 40.7539 40.7161C40.8915 41.0276 41.0762 41.2992 41.3081 41.531C41.5399 41.7628 41.8134 41.9456 42.1285 42.0796C42.4437 42.2136 42.7751 42.2806 43.1229 42.2806C43.4706 42.2806 43.8021 42.2136 44.1173 42.0796C44.4324 41.9456 44.7059 41.7628 44.9377 41.531C45.1696 41.2992 45.3543 41.0276 45.492 40.7161C45.6296 40.4046 45.6984 40.0751 45.6984 39.7274Z" fill="url(#paint1_linear_29_460)"/>
<path d="M69.5708 43.8017H68.408L65.2348 39.2276V43.8017H63.4852V35.653H64.6154L67.8212 40.325V35.653H69.5708V43.8017Z" fill="url(#paint2_linear_29_460)"/>
<path d="M91.0604 39.7056C91.0604 40.3213 90.9644 40.8809 90.7724 41.3843C90.5804 41.8877 90.3069 42.3187 89.9519 42.6772C89.5969 43.0358 89.1676 43.3128 88.6641 43.5084C88.1606 43.7039 87.5973 43.8017 86.9743 43.8017H85.0291V35.653H86.9743C87.5973 35.653 88.1606 35.7472 88.6641 35.9355C89.1676 36.1238 89.5969 36.3955 89.9519 36.7504C90.3069 37.1053 90.5804 37.5327 90.7724 38.0324C90.9643 38.5322 91.0604 39.09 91.0604 39.7056ZM89.4303 39.7056C89.4303 38.8509 89.2129 38.1972 88.7782 37.7445C88.3435 37.2918 87.7313 37.0655 86.9417 37.0655H86.6483V42.3893H86.9417C87.7314 42.3893 88.3435 42.1557 88.7782 41.6885C89.2129 41.2213 89.4303 40.5604 89.4303 39.7056Z" fill="url(#paint3_linear_29_460)"/>
<path d="M109.52 43.8017H104.923V35.653H109.52V37.1632H106.553V39.0429H109.172V40.4119H106.553V42.2915H109.52V43.8017Z" fill="url(#paint4_linear_29_460)"/>
<path d="M129.224 43.8017H127.453L125.996 40.6509H124.91V43.8017H123.312V35.653H126.377C126.688 35.653 126.985 35.7182 127.268 35.8486C127.55 35.979 127.795 36.1582 128.001 36.3864C128.208 36.6146 128.373 36.8808 128.496 37.185C128.619 37.4892 128.681 37.8151 128.681 38.1628C128.681 38.5974 128.585 38.9976 128.393 39.3634C128.201 39.7292 127.931 40.028 127.583 40.2598L129.224 43.8017ZM127.105 38.1628C127.105 38.0542 127.085 37.9455 127.045 37.8369C127.005 37.7282 126.953 37.6304 126.887 37.5435C126.822 37.4566 126.744 37.386 126.654 37.3316C126.563 37.2773 126.471 37.2502 126.377 37.2502H124.91V39.0429H126.377C126.471 39.0429 126.563 39.0157 126.654 38.9614C126.744 38.9071 126.822 38.8383 126.887 38.755C126.953 38.6717 127.005 38.5775 127.045 38.4725C127.085 38.3674 127.105 38.2642 127.105 38.1628Z" fill="url(#paint5_linear_29_460)"/>
<path d="M146.451 41.4006C146.451 41.77 146.38 42.1068 146.239 42.411C146.098 42.7153 145.906 42.9796 145.663 43.2042C145.42 43.4287 145.139 43.6026 144.821 43.7257C144.502 43.8488 144.165 43.9104 143.81 43.9104C143.484 43.9104 143.183 43.8597 142.908 43.7583C142.633 43.6569 142.386 43.5138 142.169 43.3291C141.952 43.1444 141.765 42.9235 141.609 42.6664C141.454 42.4092 141.336 42.1286 141.256 41.8243L142.712 41.1507C142.785 41.4332 142.912 41.6813 143.093 41.8949C143.274 42.1086 143.524 42.2155 143.843 42.2155C143.951 42.2155 144.067 42.1955 144.19 42.1557C144.314 42.1159 144.424 42.0615 144.522 41.9927C144.62 41.9239 144.701 41.8388 144.766 41.7374C144.832 41.636 144.864 41.5237 144.864 41.4006C144.864 41.2267 144.786 41.0801 144.631 40.9606C144.475 40.841 144.281 40.727 144.049 40.6183C143.817 40.5097 143.564 40.3938 143.288 40.2706C143.013 40.1475 142.76 39.9918 142.528 39.8035C142.296 39.6151 142.102 39.3815 141.946 39.1026C141.791 38.8238 141.713 38.4743 141.713 38.0542C141.713 37.7282 141.772 37.4132 141.892 37.1089C142.012 36.8047 142.176 36.5367 142.386 36.3049C142.597 36.0732 142.847 35.8884 143.136 35.7508C143.426 35.6132 143.741 35.5444 144.082 35.5444C144.647 35.5444 145.132 35.7019 145.538 36.017C145.944 36.3321 146.241 36.7504 146.429 37.2719L144.94 37.9673C144.882 37.7717 144.783 37.6015 144.641 37.4566C144.5 37.3118 144.324 37.2393 144.114 37.2393C143.883 37.2393 143.689 37.319 143.533 37.4783C143.377 37.6377 143.299 37.8296 143.299 38.0542C143.299 38.228 143.377 38.3711 143.533 38.4833C143.689 38.5956 143.883 38.7043 144.114 38.8093C144.346 38.9143 144.6 39.0284 144.875 39.1516C145.15 39.2747 145.404 39.4322 145.636 39.6242C145.868 39.8161 146.061 40.0533 146.217 40.3358C146.373 40.6183 146.451 40.9732 146.451 41.4006Z" fill="url(#paint6_linear_29_460)"/>
<path d="M9.74496 0.397522H0V28.8837H9.6955C20.0589 28.8837 26.246 23.4181 26.246 14.2631C26.2463 5.32191 20.3861 0.397522 9.74496 0.397522ZM7.77248 27.6165H5.68174V1.66536H8.75873C16.1018 1.66536 19.8249 5.97061 19.8249 14.4617C19.8251 23.4366 15.9954 27.6165 7.77248 27.6165Z" fill="#262626"/>
<path d="M37.186 28.8838V0.397583H31.5045V28.8838H37.186Z" fill="#262626"/>
<path d="M58.8742 15.268L63.8941 15.274V27.1369C62.4771 27.7731 61.0495 28.0925 59.7052 28.0925C52.6802 28.0475 48.9671 23.3889 48.9671 14.6201C48.9671 3.51841 54.8049 1.18799 59.6999 1.18799C63.3288 1.2112 66.0159 2.978 68.3028 5.34903L69.575 4.07704C66.9153 1.44106 62.9784 0 58.0115 0C48.2964 0 42.4964 5.46561 42.4964 14.6206C42.4964 23.8005 48.2964 29.2811 58.0115 29.2811C60.175 29.2811 62.1425 29.0064 63.8947 28.4785L63.8941 28.479L69.5756 29.2811V13.9998H58.8742L58.8742 15.268Z" fill="#262626"/>
<path d="M81.1536 28.8838V0.397583H75.4721V28.8838H81.1536Z" fill="#262626"/>
<path d="M84.8295 0.397522V1.66536H96.1227V28.884H101.804V1.66536H113.097V0.397522H84.8295Z" fill="#262626"/>
<path d="M124.804 0.397522H121.599L109.674 28.884H111.332L115.385 19.109H126.705L130.811 28.8837H136.767L124.804 0.397522ZM115.911 17.8409L121.042 5.51836L126.177 17.8409H115.911Z" fill="#262626"/>
<path d="M146.451 27.6165V0.397522H140.77V28.884H161.443V27.6165H146.451Z" fill="#262626"/>
<defs>
<linearGradient id="paint0_linear_29_460" x1="-1.07446e-05" y1="-23.4939" x2="161.443" y2="-23.4939" gradientUnits="userSpaceOnUse">
<stop stop-color="#4568DC"/>
<stop offset="1" stop-color="#B06AB3"/>
</linearGradient>
<linearGradient id="paint1_linear_29_460" x1="1.67165e-06" y1="-23.4938" x2="161.443" y2="-23.4938" gradientUnits="userSpaceOnUse">
<stop stop-color="#4568DC"/>
<stop offset="1" stop-color="#B06AB3"/>
</linearGradient>
<linearGradient id="paint2_linear_29_460" x1="-3.54016e-05" y1="-23.4939" x2="161.443" y2="-23.4939" gradientUnits="userSpaceOnUse">
<stop stop-color="#4568DC"/>
<stop offset="1" stop-color="#B06AB3"/>
</linearGradient>
<linearGradient id="paint3_linear_29_460" x1="-2.95907e-05" y1="-23.4939" x2="161.443" y2="-23.4939" gradientUnits="userSpaceOnUse">
<stop stop-color="#4568DC"/>
<stop offset="1" stop-color="#B06AB3"/>
</linearGradient>
<linearGradient id="paint4_linear_29_460" x1="-0.000110939" y1="-23.4939" x2="161.443" y2="-23.4939" gradientUnits="userSpaceOnUse">
<stop stop-color="#4568DC"/>
<stop offset="1" stop-color="#B06AB3"/>
</linearGradient>
<linearGradient id="paint5_linear_29_460" x1="-5.42352e-05" y1="-23.4939" x2="161.443" y2="-23.4939" gradientUnits="userSpaceOnUse">
<stop stop-color="#4568DC"/>
<stop offset="1" stop-color="#B06AB3"/>
</linearGradient>
<linearGradient id="paint6_linear_29_460" x1="1.44516e-06" y1="-23.4939" x2="161.443" y2="-23.4939" gradientUnits="userSpaceOnUse">
<stop stop-color="#4568DC"/>
<stop offset="1" stop-color="#B06AB3"/>
</linearGradient>
</defs>
</svg>
