<svg width="135" height="37" viewBox="0 0 135 37" fill="none" xmlns="http://www.w3.org/2000/svg">
<path d="M18.7162 29.8135L15.372 36.6275H14.6632L13.7272 34.7468L12.8094 36.6275H12.1006L8.73834 29.8135H10.2832L12.5005 34.3107L13.0003 33.275L11.3009 29.8135H12.7549L13.7272 31.8032L14.7178 29.8135H16.1626L14.4542 33.275L14.9631 34.3198L17.1804 29.8135H18.7162Z" fill="url(#paint0_linear_29_481)"/>
<path d="M39.5766 33.2205C39.5766 33.7051 39.4842 34.1593 39.2994 34.5833C39.1146 35.0073 38.8617 35.3783 38.5406 35.6963C38.2195 36.0143 37.8454 36.2641 37.4183 36.4458C36.9912 36.6275 36.5384 36.7184 36.0598 36.7184C35.5751 36.7184 35.1208 36.6275 34.6967 36.4458C34.2726 36.2641 33.9001 36.0143 33.579 35.6963C33.2579 35.3783 33.005 35.0073 32.8202 34.5833C32.6354 34.1593 32.543 33.7051 32.543 33.2205C32.543 32.742 32.6354 32.2893 32.8202 31.8623C33.005 31.4353 33.2579 31.0643 33.579 30.7493C33.9001 30.4343 34.2726 30.1845 34.6967 29.9998C35.1208 29.815 35.5751 29.7227 36.0598 29.7227C36.5384 29.7227 36.9912 29.815 37.4183 29.9998C37.8454 30.1845 38.2195 30.4343 38.5406 30.7493C38.8617 31.0643 39.1146 31.4353 39.2994 31.8623C39.4842 32.2893 39.5766 32.742 39.5766 33.2205ZM38.2135 33.2205C38.2135 32.9298 38.1559 32.6542 38.0408 32.3937C37.9257 32.1333 37.7712 31.9062 37.5774 31.7123C37.3835 31.5185 37.1548 31.3656 36.8913 31.2535C36.6277 31.1415 36.3506 31.0855 36.0598 31.0855C35.7629 31.0855 35.4843 31.1415 35.2238 31.2535C34.9633 31.3656 34.7346 31.5185 34.5377 31.7123C34.3408 31.9062 34.1863 32.1333 34.0742 32.3937C33.9621 32.6542 33.9061 32.9298 33.9061 33.2205C33.9061 33.5113 33.9637 33.7869 34.0788 34.0473C34.1939 34.3078 34.3484 34.5349 34.5422 34.7287C34.7361 34.9225 34.9648 35.0755 35.2283 35.1875C35.4918 35.2996 35.769 35.3556 36.0598 35.3556C36.3506 35.3556 36.6277 35.2996 36.8913 35.1875C37.1548 35.0755 37.3835 34.9225 37.5774 34.7287C37.7712 34.5349 37.9257 34.3078 38.0408 34.0473C38.1559 33.7869 38.2135 33.5113 38.2135 33.2205Z" fill="url(#paint1_linear_29_481)"/>
<path d="M58.1758 36.6275H57.2034L54.55 32.8026V36.6275H53.0869V29.8135H54.032L56.7127 33.7202V29.8135H58.1758V36.6275Z" fill="url(#paint2_linear_29_481)"/>
<path d="M76.1455 33.2023C76.1455 33.7172 76.0653 34.1851 75.9047 34.606C75.7442 35.027 75.5155 35.3874 75.2186 35.6872C74.9218 35.987 74.5628 36.2187 74.1418 36.3822C73.7207 36.5457 73.2497 36.6275 72.7287 36.6275H71.1021V29.8135H72.7287C73.2497 29.8135 73.7207 29.8922 74.1418 30.0497C74.5628 30.2072 74.9218 30.4343 75.2186 30.7311C75.5155 31.0279 75.7442 31.3853 75.9047 31.8032C76.0653 32.2211 76.1455 32.6875 76.1455 33.2023ZM74.7824 33.2023C74.7824 32.4876 74.6007 31.941 74.2372 31.5624C73.8737 31.1839 73.3618 30.9946 72.7015 30.9946H72.4561V35.4464H72.7015C73.3618 35.4464 73.8737 35.2511 74.2372 34.8604C74.6007 34.4697 74.7824 33.917 74.7824 33.2023Z" fill="url(#paint3_linear_29_481)"/>
<path d="M91.5817 36.6275H87.7378V29.8135H91.5817V31.0763H89.1009V32.6481H91.2909V33.7929H89.1009V35.3647H91.5817V36.6275Z" fill="url(#paint4_linear_29_481)"/>
<path d="M108.058 36.6275H106.577L105.359 33.9927H104.451V36.6275H103.115V29.8135H105.677C105.938 29.8135 106.186 29.868 106.423 29.977C106.659 30.086 106.863 30.2359 107.036 30.4267C107.209 30.6175 107.346 30.8401 107.449 31.0945C107.552 31.3489 107.604 31.6215 107.604 31.9122C107.604 32.2756 107.524 32.6103 107.363 32.9161C107.203 33.222 106.977 33.4719 106.686 33.6657L108.058 36.6275ZM106.286 31.9122C106.286 31.8213 106.27 31.7305 106.236 31.6396C106.203 31.5488 106.159 31.467 106.104 31.3943C106.05 31.3216 105.985 31.2626 105.909 31.2172C105.833 31.1717 105.756 31.149 105.677 31.149H104.451V32.6481H105.677C105.756 32.6481 105.833 32.6254 105.909 32.58C105.985 32.5346 106.05 32.477 106.104 32.4074C106.159 32.3377 106.203 32.259 106.236 32.1711C106.27 32.0833 106.286 31.997 106.286 31.9122Z" fill="url(#paint5_linear_29_481)"/>
<path d="M122.464 34.6197C122.464 34.9286 122.404 35.2102 122.286 35.4646C122.168 35.719 122.008 35.9401 121.805 36.1279C121.602 36.3156 121.367 36.461 121.1 36.564C120.834 36.6669 120.552 36.7184 120.255 36.7184C119.983 36.7184 119.731 36.676 119.501 36.5912C119.271 36.5064 119.065 36.3868 118.883 36.2323C118.701 36.0779 118.545 35.8931 118.415 35.6781C118.285 35.4631 118.186 35.2284 118.12 34.974L119.338 34.4107C119.398 34.6469 119.504 34.8544 119.656 35.0331C119.807 35.2117 120.016 35.3011 120.283 35.3011C120.373 35.3011 120.47 35.2844 120.573 35.2511C120.676 35.2178 120.769 35.1724 120.851 35.1148C120.932 35.0573 121 34.9861 121.055 34.9013C121.11 34.8165 121.137 34.7226 121.137 34.6197C121.137 34.4743 121.072 34.3517 120.941 34.2517C120.811 34.1518 120.649 34.0564 120.455 33.9655C120.261 33.8747 120.049 33.7778 119.819 33.6748C119.589 33.5718 119.377 33.4416 119.183 33.2841C118.989 33.1267 118.827 32.9313 118.697 32.6981C118.567 32.4649 118.501 32.1727 118.501 31.8214C118.501 31.5488 118.551 31.2854 118.651 31.031C118.751 30.7766 118.889 30.5525 119.065 30.3586C119.241 30.1648 119.45 30.0104 119.692 29.8953C119.934 29.7802 120.198 29.7227 120.482 29.7227C120.955 29.7227 121.361 29.8544 121.7 30.1179C122.039 30.3814 122.288 30.7311 122.445 31.1672L121.2 31.7487C121.152 31.5852 121.069 31.4428 120.95 31.3217C120.832 31.2006 120.685 31.14 120.51 31.14C120.316 31.14 120.154 31.2066 120.024 31.3399C119.893 31.4731 119.828 31.6336 119.828 31.8214C119.828 31.9668 119.893 32.0864 120.024 32.1803C120.154 32.2741 120.316 32.365 120.51 32.4528C120.704 32.5406 120.916 32.636 121.146 32.739C121.376 32.842 121.588 32.9737 121.782 33.1342C121.976 33.2947 122.138 33.4931 122.268 33.7293C122.398 33.9655 122.464 34.2623 122.464 34.6197Z" fill="url(#paint6_linear_29_481)"/>
<path d="M8.14883 0.332275H0V24.1527H8.10747C16.7734 24.1527 21.9472 19.5823 21.9472 11.9268C21.9474 4.4501 17.047 0.332275 8.14883 0.332275ZM6.49942 23.093H4.75112V1.39246H7.32414C13.4645 1.39246 16.5777 4.99254 16.5777 12.0929C16.578 19.5978 13.3755 23.093 6.49942 23.093Z" fill="white"/>
<path d="M31.0952 24.1527V0.332275H26.3444V24.1527H31.0952Z" fill="white"/>
<path d="M49.2312 12.7672L53.4289 12.7723V22.6921C52.2439 23.2242 51.0502 23.4912 49.926 23.4912C44.0517 23.4536 40.9467 19.558 40.9467 12.2255C40.9467 2.94212 45.8284 0.993412 49.9216 0.993412C52.9561 1.01282 55.2031 2.49023 57.1154 4.47291L58.1793 3.40926C55.9552 1.20503 52.6631 0 48.5098 0C40.3859 0 35.5359 4.5704 35.5359 12.2259C35.5359 19.9022 40.3859 24.4851 48.5098 24.4851C50.3189 24.4851 51.9641 24.2555 53.4294 23.814L53.4289 23.8144L58.1798 24.4851V11.7068H49.2312L49.2312 12.7672Z" fill="white"/>
<path d="M67.8614 24.1527V0.332275H63.1105V24.1527H67.8614Z" fill="white"/>
<path d="M70.9352 0.332275V1.39246H80.3787V24.153H85.1296V1.39246H94.5731V0.332275H70.9352Z" fill="white"/>
<path d="M104.362 0.332275H101.683L91.7101 24.153H93.0966L96.486 15.979H105.952L109.386 24.1527H114.366L104.362 0.332275ZM96.9257 14.9186L101.217 4.61437L105.511 14.9186H96.9257Z" fill="white"/>
<path d="M122.464 23.093V0.332275H117.713V24.153H135V23.093H122.464Z" fill="white"/>
<defs>
<linearGradient id="paint0_linear_29_481" x1="-1.37144e-05" y1="-19.6457" x2="135" y2="-19.6457" gradientUnits="userSpaceOnUse">
<stop stop-color="#4568DC"/>
<stop offset="1" stop-color="#B06AB3"/>
</linearGradient>
<linearGradient id="paint1_linear_29_481" x1="2.2761e-05" y1="-19.6456" x2="135" y2="-19.6456" gradientUnits="userSpaceOnUse">
<stop stop-color="#4568DC"/>
<stop offset="1" stop-color="#B06AB3"/>
</linearGradient>
<linearGradient id="paint2_linear_29_481" x1="-4.58049e-06" y1="-19.6457" x2="135" y2="-19.6457" gradientUnits="userSpaceOnUse">
<stop stop-color="#4568DC"/>
<stop offset="1" stop-color="#B06AB3"/>
</linearGradient>
<linearGradient id="paint3_linear_29_481" x1="-3.36542e-06" y1="-19.6457" x2="135" y2="-19.6457" gradientUnits="userSpaceOnUse">
<stop stop-color="#4568DC"/>
<stop offset="1" stop-color="#B06AB3"/>
</linearGradient>
<linearGradient id="paint4_linear_29_481" x1="-0.000127827" y1="-19.6457" x2="135" y2="-19.6457" gradientUnits="userSpaceOnUse">
<stop stop-color="#4568DC"/>
<stop offset="1" stop-color="#B06AB3"/>
</linearGradient>
<linearGradient id="paint5_linear_29_481" x1="-5.72637e-05" y1="-19.6457" x2="135" y2="-19.6457" gradientUnits="userSpaceOnUse">
<stop stop-color="#4568DC"/>
<stop offset="1" stop-color="#B06AB3"/>
</linearGradient>
<linearGradient id="paint6_linear_29_481" x1="-1.49188e-05" y1="-19.6457" x2="135" y2="-19.6457" gradientUnits="userSpaceOnUse">
<stop stop-color="#4568DC"/>
<stop offset="1" stop-color="#B06AB3"/>
</linearGradient>
</defs>
</svg>
