<svg width="8" height="8" viewBox="0 0 8 8" fill="none" xmlns="http://www.w3.org/2000/svg">
<path d="M3.232 3.5531C3.252 3.42077 3.296 3.30447 3.352 3.20822C3.472 2.98365 3.676 2.86735 3.952 2.86334C4.132 2.86334 4.296 2.94354 4.412 3.05984C4.524 3.18416 4.6 3.3566 4.6 3.52904H5.32C5.312 3.34056 5.276 3.16812 5.2 3.00771C5.14 2.85532 5.048 2.71897 4.928 2.60668C4.348 2.0693 3.272 2.1455 2.78 2.75506C2.264 3.42478 2.252 4.59578 2.776 5.26549C3.26 5.86302 4.32 5.94724 4.896 5.41387C5.02 5.31362 5.12 5.1893 5.2 5.04493C5.264 4.90056 5.308 4.74817 5.312 4.58375H4.6C4.6 4.66796 4.572 4.74416 4.536 4.81233C4.5 4.88853 4.452 4.94868 4.4 5.00081C4.268 5.10508 4.112 5.16122 3.944 5.16122C3.8 5.15721 3.68 5.12914 3.588 5.06899C3.488 5.01285 3.4 4.92061 3.352 4.81233C3.152 4.45141 3.184 3.95012 3.232 3.5531ZM4 0C1.8 0 0 1.80462 0 4.01028C0.212 9.33191 7.8 9.3279 8 4.01028C8 1.80462 6.2 0 4 0ZM4 7.2185C2.236 7.2185 0.8 5.77881 0.8 4.01028C0.976 -0.244627 7.024 -0.244627 7.2 4.01028C7.2 5.77881 5.764 7.2185 4 7.2185Z" fill="#AAAAAA"/>
</svg>
