<svg width="111" height="95" viewBox="0 0 111 95" fill="none" xmlns="http://www.w3.org/2000/svg">
<g id="undraw_mailbox_re_dvds 1" clip-path="url(#clip0_67_1171)">
<path id="Vector" d="M32.6208 94.0088C34.4026 92.5034 35.485 90.1254 35.2011 87.8103C34.9173 85.4952 33.1592 83.367 30.8788 82.8754C28.5984 82.3838 25.9988 83.7446 25.3062 85.9718C24.925 81.6779 24.4857 77.204 22.2023 73.5473C20.1347 70.2362 16.5537 67.867 12.6726 67.4432C8.79153 67.0193 4.70526 68.6202 2.28478 71.6828C-0.135705 74.7455 -0.728349 79.198 0.966894 82.7141C2.21572 85.3044 4.5165 87.2321 6.92714 88.8004C14.7168 93.8254 24.0594 95.8688 33.2361 94.5548" fill="#F2F2F2"/>
<path id="Vector_2" d="M6.12253 68.7088C9.32489 71.3167 12.2627 74.2333 14.8935 77.4167C19.0107 82.3815 22.3424 87.9479 24.7725 93.9221C24.9504 94.3579 24.2425 94.5476 24.0666 94.1167C22.5213 90.3395 20.6094 86.7228 18.3583 83.3185C14.8481 78.0005 10.5475 73.2485 5.60491 69.2264C5.23947 68.9288 5.7601 68.4138 6.12253 68.7088Z" fill="white"/>
<path id="Vector_3" d="M33.8515 94.0088C32.0696 92.5034 30.9872 90.1254 31.2711 87.8103C31.5549 85.4952 33.313 83.367 35.5934 82.8754C37.8739 82.3838 40.4734 83.7446 41.1661 85.9718C41.5473 81.6779 41.9865 77.204 44.2699 73.5473C46.3375 70.2362 49.9186 67.867 53.7996 67.4432C57.6807 67.0193 61.767 68.6202 64.1874 71.6828C66.6079 74.7455 67.2006 79.198 65.5053 82.7141C64.2565 85.3044 61.9557 87.2321 59.5451 88.8004C51.7554 93.8254 42.4128 95.8688 33.2361 94.5548" fill="#F2F2F2"/>
<path id="Vector_4" d="M60.3498 68.7088C57.1474 71.3167 54.2096 74.2333 51.5788 77.4167C47.4616 82.3815 44.1299 87.9479 41.6998 93.9221C41.5219 94.3579 42.2298 94.5476 42.4057 94.1167C46.3818 84.4074 52.7292 75.8497 60.8674 69.2264C61.2329 68.9288 60.7122 68.4138 60.3498 68.7088Z" fill="white"/>
<path id="Vector_5" d="M39.1392 42.7354C42.4357 42.7354 45.108 40.0637 45.108 36.7679C45.108 33.4721 42.4357 30.8003 39.1392 30.8003C35.8427 30.8003 33.1704 33.4721 33.1704 36.7679C33.1704 40.0637 35.8427 42.7354 39.1392 42.7354Z" fill="#F2F2F2"/>
<path id="Vector_6" d="M20.7359 16.1968H61.8591V18.4462H25.9856C23.8764 18.4462 21.7878 18.8616 19.8391 19.6686C17.8904 20.4756 16.1198 21.6584 14.6284 23.1496C13.1369 24.6407 11.9538 26.411 11.1467 28.3592C10.3395 30.3075 9.92407 32.3957 9.92407 34.5045V60.0608H5.42428C5.22538 60.0608 5.03463 59.9818 4.89398 59.8412C4.75334 59.7006 4.67432 59.5099 4.67432 59.311V32.255C4.67431 30.1462 5.08976 28.0581 5.89693 26.1098C6.70409 24.1615 7.88718 22.3913 9.37863 20.9001C10.8701 19.409 12.6407 18.2261 14.5894 17.4191C16.538 16.6121 18.6266 16.1968 20.7359 16.1968Z" fill="#F2F2F2"/>
<path id="Vector_7" d="M28.6455 94.1338V59.9646H38.6577V94.1338C38.6574 94.3635 38.566 94.5836 38.4036 94.746C38.2412 94.9084 38.0209 94.9998 37.7912 95.0001H29.5119C29.2822 94.9998 29.062 94.9084 28.8996 94.746C28.7371 94.5836 28.6458 94.3635 28.6455 94.1338Z" fill="#3F3D56"/>
<path id="Vector_8" d="M2.55615 59.2908V31.5061C2.56115 27.0829 4.32081 22.8424 7.44908 19.7147C10.5773 16.5871 14.8188 14.8278 19.2428 14.8228H61.6664V60.2533H3.51886C3.26362 60.2531 3.01893 60.1516 2.83845 59.9711C2.65797 59.7907 2.55644 59.546 2.55615 59.2908ZM61.2813 15.2078H19.2428C14.9209 15.2127 10.7773 16.9314 7.72125 19.9868C4.66517 23.0423 2.94612 27.185 2.94124 31.5061V59.2908C2.9414 59.444 3.00231 59.5907 3.1106 59.699C3.21889 59.8073 3.36572 59.8682 3.51886 59.8683H61.2813V15.2078Z" fill="#3F3D56"/>
<path id="Vector_9" d="M39.1393 39.848C38.2204 39.847 37.3395 39.4816 36.6897 38.832C36.04 38.1824 35.6745 37.3016 35.6735 36.383V11.5502C35.6733 11.397 35.6124 11.2502 35.5041 11.142C35.3958 11.0337 35.249 10.9728 35.0959 10.9726H21.618C21.3627 10.9723 21.1181 10.8708 20.9376 10.6904C20.7571 10.51 20.6556 10.2653 20.6553 10.0101V0.962513C20.6556 0.707329 20.7571 0.462681 20.9376 0.282239C21.1181 0.101797 21.3627 0.000295499 21.618 0H41.6423C41.8975 0.00029194 42.1422 0.101793 42.3227 0.282236C42.5032 0.462679 42.6047 0.707328 42.605 0.962513V36.383C42.604 37.3016 42.2385 38.1824 41.5888 38.832C40.939 39.4816 40.0581 39.847 39.1393 39.848Z" fill="#6C63FF"/>
<path id="Vector_10" d="M63.2068 14.4378C66.1114 14.4317 68.8995 15.5795 70.9577 17.6286C73.0159 19.6778 74.1756 22.4605 74.1817 25.3645V56.9945H95.7463C96.6126 56.9927 97.4441 57.335 98.0579 57.9462C98.6718 58.5573 99.0177 59.3872 99.0195 60.2534H52.2319V25.3645C52.238 22.4605 53.3977 19.6778 55.4559 17.6286C57.5141 15.5795 60.3022 14.4317 63.2068 14.4378Z" fill="#3F3D56"/>
<path id="Vector_11" d="M60.5735 32.4498L62.8461 41.8354L107.3 31.0762L105.028 21.6905C105 21.5757 104.944 21.4698 104.865 21.3824C104.786 21.2951 104.685 21.2292 104.574 21.1909C104.491 21.162 104.404 21.1488 104.317 21.1523L78.6205 7.84999C78.4699 7.77312 78.2968 7.75258 78.1324 7.79209C77.968 7.8316 77.8232 7.92855 77.724 8.06545L65.3397 25.3317L60.671 31.8427C60.6625 31.8541 60.6566 31.8672 60.6537 31.8811C60.6507 31.895 60.6508 31.9094 60.6539 31.9232C60.5588 32.0813 60.53 32.2705 60.5735 32.4498Z" fill="white"/>
<path id="Vector_12" d="M60.6537 31.9232C60.6559 31.9354 60.6605 31.9471 60.6672 31.9575C60.674 31.9679 60.6827 31.977 60.6929 31.984C60.7049 31.9923 60.7185 31.998 60.7329 32.0008C60.7472 32.0037 60.762 32.0035 60.7763 32.0005C60.7995 31.9943 60.8199 31.9802 60.8338 31.9606L60.8499 31.9384L61.093 31.5985L65.5077 25.4453L77.8883 8.18298C77.9589 8.08516 78.0623 8.0159 78.1797 7.98778C78.297 7.95965 78.4206 7.97453 78.5279 8.0297L104.025 21.229L104.254 21.3477C104.263 21.3516 104.273 21.3549 104.282 21.3576C104.3 21.3545 104.317 21.3528 104.335 21.3526C104.359 21.3446 104.379 21.3278 104.391 21.3055C104.397 21.2938 104.401 21.281 104.402 21.2678C104.403 21.2546 104.402 21.2412 104.398 21.2286C104.394 21.2159 104.387 21.2041 104.379 21.1939C104.371 21.1837 104.36 21.1753 104.348 21.1691L104.317 21.1523L78.6204 7.84999C78.4698 7.77312 78.2967 7.75258 78.1323 7.79209C77.9679 7.8316 77.823 7.92855 77.7239 8.06545L65.3396 25.3317L60.6709 31.8427C60.6624 31.8541 60.6565 31.8672 60.6535 31.8811C60.6506 31.895 60.6506 31.9094 60.6537 31.9232Z" fill="#3F3D56"/>
<path id="Vector_13" d="M74.0047 32.8801L74.9943 32.9899L82.3383 33.8032L87.2069 34.3421L87.4944 34.3741L93.5695 29.6299L93.8023 29.4482L95.2372 28.3278L100.342 24.3418L100.373 24.0618L102.189 7.6771C102.213 7.45148 102.148 7.22526 102.006 7.04803C101.864 6.87079 101.658 6.75701 101.432 6.73162L77.1995 4.0478C76.9739 4.02316 76.7477 4.08892 76.5704 4.23069C76.3932 4.37246 76.2793 4.57867 76.2539 4.80418L74.9734 16.3616L74.2631 22.7692L73.6277 28.5016L73.3332 31.1637L73.2472 31.9349C73.2227 32.1606 73.2887 32.3868 73.4306 32.564C73.5726 32.7411 73.7791 32.8548 74.0047 32.8801Z" fill="#E6E6E6"/>
<path id="Vector_14" d="M80.6636 18.5184L91.1604 19.6808L94.8829 20.0929C95.0472 20.1111 95.2135 20.0967 95.3723 20.0507C95.5311 20.0046 95.6793 19.9277 95.8084 19.8244C95.9375 19.721 96.045 19.5933 96.1247 19.4485C96.2044 19.3036 96.2548 19.1445 96.273 18.9802C96.2912 18.8159 96.2768 18.6496 96.2307 18.4908C96.1847 18.332 96.1078 18.1839 96.0044 18.0548C95.9011 17.9258 95.7733 17.8183 95.6285 17.7386C95.4836 17.6589 95.3244 17.6086 95.1601 17.5904L90.5301 17.0777L80.9416 16.0147C80.6096 15.978 80.2767 16.0747 80.0159 16.2834C79.7552 16.4921 79.588 16.7958 79.5512 17.1277C79.5143 17.4596 79.6108 17.7925 79.8194 18.0533C80.028 18.3141 80.3317 18.4814 80.6636 18.5184Z" fill="white"/>
<path id="Vector_15" d="M80.066 23.1608C80.0931 23.1656 80.1202 23.1705 80.1478 23.1731L92.3328 24.5227L94.3672 24.7485C94.6993 24.7852 95.0323 24.6886 95.2931 24.4798C95.5539 24.271 95.721 23.9672 95.7577 23.6352C95.7945 23.3033 95.6978 22.9703 95.489 22.7096C95.2801 22.4488 94.9763 22.2818 94.6442 22.245L91.7025 21.9196L82.0503 20.8503L80.426 20.6704C80.1012 20.6341 79.775 20.7256 79.5164 20.9255C79.2578 21.1254 79.087 21.4179 79.0403 21.7414C78.9935 22.0648 79.0744 22.3937 79.2658 22.6586C79.4573 22.9235 79.7442 23.1036 80.066 23.1608Z" fill="white"/>
<path id="Vector_16" d="M78.687 27.2772C78.7868 27.4429 78.9235 27.5834 79.0865 27.6878C79.2495 27.7921 79.4343 27.8575 79.6267 27.8788L84.6209 28.4318L93.5158 29.4171L93.5177 29.4166L93.8022 29.4483L95.2371 28.3279C95.2459 28.2428 95.246 28.157 95.2373 28.0718C95.207 27.786 95.0801 27.5191 94.8775 27.3153C94.6749 27.1114 94.4087 26.9828 94.1231 26.9507L92.8875 26.8135L87.9859 26.2712L84.4592 25.8801L79.9036 25.3753C79.6701 25.3495 79.4341 25.3894 79.2222 25.4907C79.0102 25.592 78.8308 25.7505 78.7043 25.9483C78.5777 26.1461 78.509 26.3754 78.506 26.6103C78.5029 26.8451 78.5656 27.0761 78.687 27.2772Z" fill="white"/>
<path id="Vector_17" d="M85.7018 12.8437L88.3135 13.1329L89.467 13.261L91.2096 13.4538C91.5416 13.4905 91.8747 13.3939 92.1354 13.1851C92.3962 12.9763 92.5633 12.6725 92.6001 12.3405C92.6368 12.0085 92.5401 11.6756 92.3313 11.4149C92.1225 11.1541 91.8186 10.987 91.4865 10.9503L85.98 10.341C85.648 10.3041 85.315 10.4005 85.0542 10.6091C84.7934 10.8177 84.6261 11.1214 84.5893 11.4533C84.5524 11.7851 84.6488 12.1181 84.8575 12.3788C85.0661 12.6396 85.3698 12.8068 85.7018 12.8437Z" fill="white"/>
<path id="Vector_18" d="M64.3462 19.8145L67.5303 32.9651L72.8447 33.9754L77.7607 34.9112L83.0351 35.9146L84.7204 36.2352C84.819 36.2538 84.9205 36.2513 85.0181 36.2277C85.1157 36.204 85.2072 36.1599 85.2864 36.0982L86.6384 35.0424L87.4944 34.3741L93.5696 29.6299L89.7068 13.6765C89.6686 13.5178 89.5854 13.3735 89.4672 13.2609C89.3635 13.1613 89.2364 13.0893 89.0976 13.0518C88.9588 13.0142 88.8128 13.0121 88.673 13.0458L64.977 18.781C64.7563 18.8345 64.566 18.9735 64.4477 19.1673C64.3294 19.3611 64.2929 19.5939 64.3462 19.8145Z" fill="#6C63FF"/>
<path id="Vector_19" d="M71.6474 30.2763C71.7263 30.6007 71.9306 30.8806 72.2157 31.0545C72.5007 31.2284 72.8431 31.2821 73.1677 31.2038L87.072 27.8386C87.3963 27.7596 87.6761 27.5552 87.85 27.2703C88.0239 26.9854 88.0777 26.6431 87.9996 26.3186C87.9961 26.3025 87.9915 26.2867 87.9861 26.2711C87.8973 25.9582 87.6908 25.6919 87.4099 25.5278C87.1291 25.3638 86.7956 25.3148 86.4794 25.3911L72.5751 28.7564C72.2506 28.8352 71.9707 29.0395 71.7968 29.3245C71.6229 29.6095 71.5692 29.9518 71.6474 30.2763Z" fill="white"/>
<path id="Vector_20" d="M72.8447 33.9754L77.7607 34.9111L88.1742 32.3907C88.4988 32.3122 88.7789 32.1079 88.9529 31.8229C89.1269 31.5378 89.1805 31.1953 89.1019 30.8708C89.0233 30.5462 88.819 30.2662 88.5339 30.0923C88.2488 29.9183 87.9062 29.8647 87.5816 29.9433L73.6774 33.3086C73.3868 33.3783 73.1308 33.5498 72.9558 33.792C72.9137 33.8499 72.8765 33.9113 72.8447 33.9754Z" fill="white"/>
<path id="Vector_21" d="M83.0352 35.9146L84.7205 36.2352C84.8191 36.2539 84.9206 36.2513 85.0182 36.2277C85.1158 36.2041 85.2073 36.16 85.2865 36.0983L86.6385 35.0425L83.0352 35.9146Z" fill="white"/>
<path id="Vector_22" d="M74.4489 23.2247C74.5277 23.5491 74.7321 23.829 75.0171 24.0029C75.3022 24.1768 75.6446 24.2305 75.9692 24.1522L81.3546 22.8488C81.679 22.7698 81.9588 22.5654 82.1327 22.2805C82.3066 21.9956 82.3604 21.6533 82.2823 21.3288C82.2403 21.1544 82.1612 20.9912 82.0503 20.8502C81.9013 20.6596 81.7006 20.516 81.4722 20.4364C81.2437 20.3568 80.9972 20.3446 80.762 20.4013L75.3766 21.7048C75.052 21.7834 74.7719 21.9877 74.5979 22.2727C74.424 22.5577 74.3704 22.9002 74.4489 23.2247Z" fill="white"/>
<path id="Vector_23" d="M77.7604 34.9111L83.0356 35.9148L84.7204 36.2355C84.8191 36.254 84.9205 36.2513 85.018 36.2277C85.1155 36.2041 85.2069 36.1601 85.2861 36.0986L86.6392 35.0426L86.1644 35.1575L85.1621 35.9393C85.1054 35.9832 85.0401 36.0146 84.9705 36.0314C84.9008 36.0483 84.8284 36.0502 84.7579 36.0371L83.5104 35.7998L78.2352 34.7962L77.7604 34.9111ZM93.5175 29.4173L93.5689 29.6294L93.8029 29.4475L93.5175 29.4173ZM77.7604 34.9111L83.0356 35.9148L84.7204 36.2355C84.8191 36.254 84.9205 36.2513 85.018 36.2277C85.1155 36.2041 85.2069 36.1601 85.2861 36.0986L86.6392 35.0426L86.1644 35.1575L85.1621 35.9393C85.1054 35.9832 85.0401 36.0146 84.9705 36.0314C84.9008 36.0483 84.8284 36.0502 84.7579 36.0371L83.5104 35.7998L78.2352 34.7962L77.7604 34.9111ZM77.7604 34.9111L83.0356 35.9148L84.7204 36.2355C84.8191 36.254 84.9205 36.2513 85.018 36.2277C85.1155 36.2041 85.2069 36.1601 85.2861 36.0986L86.6392 35.0426L86.1644 35.1575L85.1621 35.9393C85.1054 35.9832 85.0401 36.0146 84.9705 36.0314C84.9008 36.0483 84.8284 36.0502 84.7579 36.0371L83.5104 35.7998L78.2352 34.7962L77.7604 34.9111ZM60.5735 32.4496L66.5261 57.0342C66.5703 57.2158 66.6848 57.3726 66.8444 57.4699C67.004 57.5673 67.1958 57.5974 67.3776 57.5536L110.461 47.1261C110.643 47.082 110.799 46.9676 110.897 46.808C110.994 46.6484 111.024 46.4566 110.98 46.2749L105.028 21.6904C105 21.5756 104.944 21.4696 104.865 21.3823C104.786 21.295 104.685 21.2291 104.574 21.1908C104.491 21.1618 104.404 21.1487 104.317 21.1521C104.215 21.1551 104.115 21.1813 104.025 21.2288C103.984 21.2486 103.945 21.2729 103.908 21.3014L100.373 24.0619L95.2375 28.0723L93.5172 29.4158L93.5175 29.4173L93.516 29.4176L87.2073 34.3415L86.1644 35.1575L85.1621 35.9393C85.1054 35.9832 85.0401 36.0146 84.9705 36.0314C84.9008 36.0483 84.8284 36.0502 84.7579 36.0371L83.5104 35.7998L78.2352 34.7962L72.9553 33.7922L61.391 31.5919C61.2924 31.5724 61.1907 31.5746 61.0931 31.5984C60.9616 31.6305 60.8421 31.6997 60.7488 31.7978C60.7131 31.8363 60.6813 31.8783 60.6539 31.9231C60.5588 32.0812 60.53 32.2704 60.5735 32.4496ZM77.7604 34.9111L83.0356 35.9148L84.7204 36.2355C84.8191 36.254 84.9205 36.2513 85.018 36.2277C85.1155 36.2041 85.2069 36.1601 85.2861 36.0986L86.6392 35.0426L86.1644 35.1575L85.1621 35.9393C85.1054 35.9832 85.0401 36.0146 84.9705 36.0314C84.9008 36.0483 84.8284 36.0502 84.7579 36.0371L83.5104 35.7998L78.2352 34.7962L77.7604 34.9111ZM77.7604 34.9111L83.0356 35.9148L84.7204 36.2355C84.8191 36.254 84.9205 36.2513 85.018 36.2277C85.1155 36.2041 85.2069 36.1601 85.2861 36.0986L86.6392 35.0426L86.1644 35.1575L85.1621 35.9393C85.1054 35.9832 85.0401 36.0146 84.9705 36.0314C84.9008 36.0483 84.8284 36.0502 84.7579 36.0371L83.5104 35.7998L78.2352 34.7962L77.7604 34.9111ZM77.7604 34.9111L83.0356 35.9148L84.7204 36.2355C84.8191 36.254 84.9205 36.2513 85.018 36.2277C85.1155 36.2041 85.2069 36.1601 85.2861 36.0986L86.6392 35.0426L86.1644 35.1575L85.1621 35.9393C85.1054 35.9832 85.0401 36.0146 84.9705 36.0314C84.9008 36.0483 84.8284 36.0502 84.7579 36.0371L83.5104 35.7998L78.2352 34.7962L77.7604 34.9111Z" fill="white"/>
<path id="Vector_24" d="M77.7604 34.9111L83.0356 35.9148L84.7204 36.2355C84.8191 36.254 84.9205 36.2513 85.018 36.2277C85.1155 36.2041 85.2069 36.1601 85.2861 36.0986L86.6392 35.0426L86.1644 35.1575L85.1621 35.9393C85.1054 35.9832 85.0401 36.0146 84.9705 36.0314C84.9008 36.0483 84.8284 36.0502 84.7579 36.0371L83.5104 35.7998L78.2352 34.7962L77.7604 34.9111ZM93.5175 29.4173L93.5689 29.6294L93.8029 29.4475L93.5175 29.4173ZM77.7604 34.9111L83.0356 35.9148L84.7204 36.2355C84.8191 36.254 84.9205 36.2513 85.018 36.2277C85.1155 36.2041 85.2069 36.1601 85.2861 36.0986L86.6392 35.0426L86.1644 35.1575L85.1621 35.9393C85.1054 35.9832 85.0401 36.0146 84.9705 36.0314C84.9008 36.0483 84.8284 36.0502 84.7579 36.0371L83.5104 35.7998L78.2352 34.7962L77.7604 34.9111ZM77.7604 34.9111L83.0356 35.9148L84.7204 36.2355C84.8191 36.254 84.9205 36.2513 85.018 36.2277C85.1155 36.2041 85.2069 36.1601 85.2861 36.0986L86.6392 35.0426L86.1644 35.1575L85.1621 35.9393C85.1054 35.9832 85.0401 36.0146 84.9705 36.0314C84.9008 36.0483 84.8284 36.0502 84.7579 36.0371L83.5104 35.7998L78.2352 34.7962L77.7604 34.9111ZM60.85 31.9382L60.8761 31.9579C60.8805 31.9507 60.8882 31.9443 60.8939 31.9368C60.9523 31.8761 61.0248 31.8308 61.1049 31.805C61.1851 31.7792 61.2704 31.7737 61.3532 31.789L72.8451 33.9746L77.7604 34.9111L83.0356 35.9148L84.7204 36.2355C84.8191 36.254 84.9205 36.2513 85.018 36.2277C85.1155 36.2041 85.2069 36.1601 85.2861 36.0986L86.6392 35.0426L86.1644 35.1575L85.1621 35.9393C85.1054 35.9832 85.0401 36.0146 84.9705 36.0314C84.9008 36.0483 84.8284 36.0502 84.7579 36.0371L83.5104 35.7998L78.2352 34.7962L72.9553 33.7922L61.391 31.5919C61.2924 31.5724 61.1907 31.5746 61.0931 31.5984L60.85 31.9382ZM60.5735 32.4496L66.5261 57.0342C66.5703 57.2158 66.6848 57.3726 66.8444 57.4699C67.004 57.5673 67.1958 57.5974 67.3776 57.5536L110.461 47.1261C110.643 47.082 110.799 46.9676 110.897 46.808C110.994 46.6484 111.024 46.4566 110.98 46.2749L105.028 21.6904C105 21.5756 104.944 21.4696 104.865 21.3823C104.786 21.295 104.685 21.2291 104.574 21.1908C104.491 21.1618 104.404 21.1487 104.317 21.1521C104.215 21.1551 104.115 21.1813 104.025 21.2288C103.984 21.2486 103.945 21.2729 103.908 21.3014L100.373 24.0619L95.2375 28.0723L93.5172 29.4158L93.5175 29.4173L93.516 29.4176L87.2073 34.3415L86.1644 35.1575L85.1621 35.9393C85.1054 35.9832 85.0401 36.0146 84.9705 36.0314C84.9008 36.0483 84.8284 36.0502 84.7579 36.0371L83.5104 35.7998L78.2352 34.7962L72.9553 33.7922L61.391 31.5919C61.2924 31.5724 61.1907 31.5746 61.0931 31.5984C60.9616 31.6305 60.8421 31.6997 60.7488 31.7978C60.7131 31.8363 60.6813 31.8783 60.6539 31.9231C60.5588 32.0812 60.53 32.2704 60.5735 32.4496ZM60.7699 32.4021C60.7523 32.3297 60.7511 32.2542 60.7665 32.1812C60.7819 32.1082 60.8134 32.0396 60.8587 31.9804C60.8628 31.9717 60.8688 31.964 60.8761 31.9579C60.8805 31.9507 60.8882 31.9443 60.8939 31.9368C60.9523 31.8761 61.0248 31.8308 61.1049 31.805C61.1851 31.7792 61.2704 31.7737 61.3532 31.789L72.8451 33.9746L77.7604 34.9111L83.0356 35.9148L84.7204 36.2355C84.8191 36.254 84.9205 36.2513 85.018 36.2277C85.1155 36.2041 85.2069 36.1601 85.2861 36.0986L86.6392 35.0426L87.4948 34.3742L93.5689 29.6294L93.8029 29.4475L95.2366 28.3276L100.342 24.341L104.034 21.459C104.09 21.4152 104.155 21.3839 104.224 21.3671C104.243 21.3624 104.263 21.3592 104.283 21.3575C104.3 21.3544 104.317 21.3527 104.335 21.3525C104.394 21.3519 104.452 21.3615 104.508 21.3808C104.588 21.4085 104.659 21.4556 104.716 21.5179C104.773 21.5802 104.813 21.6557 104.833 21.7375L110.786 46.3221C110.801 46.3865 110.804 46.4533 110.794 46.5189C110.784 46.5844 110.76 46.6472 110.726 46.7038C110.691 46.7604 110.646 46.8096 110.592 46.8487C110.539 46.8877 110.478 46.9158 110.414 46.9314L67.3304 57.3588C67.2004 57.3901 67.0634 57.3684 66.9493 57.2986C66.8353 57.2288 66.7537 57.1166 66.7225 56.9866L60.7699 32.4021ZM77.7604 34.9111L83.0356 35.9148L84.7204 36.2355C84.8191 36.254 84.9205 36.2513 85.018 36.2277C85.1155 36.2041 85.2069 36.1601 85.2861 36.0986L86.6392 35.0426L86.1644 35.1575L85.1621 35.9393C85.1054 35.9832 85.0401 36.0146 84.9705 36.0314C84.9008 36.0483 84.8284 36.0502 84.7579 36.0371L83.5104 35.7998L78.2352 34.7962L77.7604 34.9111ZM77.7604 34.9111L83.0356 35.9148L84.7204 36.2355C84.8191 36.254 84.9205 36.2513 85.018 36.2277C85.1155 36.2041 85.2069 36.1601 85.2861 36.0986L86.6392 35.0426L86.1644 35.1575L85.1621 35.9393C85.1054 35.9832 85.0401 36.0146 84.9705 36.0314C84.9008 36.0483 84.8284 36.0502 84.7579 36.0371L83.5104 35.7998L78.2352 34.7962L77.7604 34.9111ZM77.7604 34.9111L83.0356 35.9148L84.7204 36.2355C84.8191 36.254 84.9205 36.2513 85.018 36.2277C85.1155 36.2041 85.2069 36.1601 85.2861 36.0986L86.6392 35.0426L86.1644 35.1575L85.1621 35.9393C85.1054 35.9832 85.0401 36.0146 84.9705 36.0314C84.9008 36.0483 84.8284 36.0502 84.7579 36.0371L83.5104 35.7998L78.2352 34.7962L77.7604 34.9111Z" fill="#3F3D56"/>
<path id="Vector_25" d="M99.232 42.2962C99.1349 41.8934 99.2017 41.4685 99.4176 41.1148C99.6334 40.7611 99.9808 40.5074 100.384 40.4095L105.821 39.0934C106.224 38.9975 106.648 39.065 107 39.281C107.353 39.497 107.606 39.844 107.703 40.246C107.8 40.6479 107.734 41.0721 107.52 41.4255C107.305 41.7789 106.959 42.0328 106.557 42.1315L101.119 43.4475C100.716 43.5446 100.291 43.4779 99.9375 43.262C99.5837 43.0462 99.33 42.6989 99.232 42.2962Z" fill="#6C63FF"/>
<path id="Vector_26" d="M39.1393 37.7304C39.8837 37.7304 40.4871 37.1271 40.4871 36.3829C40.4871 35.6387 39.8837 35.0354 39.1393 35.0354C38.3949 35.0354 37.7915 35.6387 37.7915 36.3829C37.7915 37.1271 38.3949 37.7304 39.1393 37.7304Z" fill="white"/>
</g>
<defs>
<clipPath id="clip0_67_1171">
<rect width="111" height="95" fill="white"/>
</clipPath>
</defs>
</svg>
