<svg width="517" height="584" viewBox="0 0 517 584" fill="none" xmlns="http://www.w3.org/2000/svg">
<path d="M0 55C0 24.6243 24.6243 0 55 0H517V584H55C24.6243 584 0 559.376 0 529V55Z" fill="white" fill-opacity="0.57"/>
<g clip-path="url(#clip0_311_36)">
<path d="M473.451 495.028C473.451 512.685 377.988 527 260.226 527C142.463 527 47 512.685 47 495.028C47 482.528 94.8519 471.699 164.59 466.446C193.348 464.273 225.841 463.056 260.226 463.056C274.36 463.056 288.172 463.262 301.529 463.654C399.524 466.542 473.451 479.489 473.451 495.028Z" fill="#3F3D56"/>
<path opacity="0.1" d="M232.713 501.56C277.918 501.56 314.564 497.096 314.564 491.59C314.564 486.084 277.918 481.62 232.713 481.62C187.508 481.62 150.862 486.084 150.862 491.59C150.862 497.096 187.508 501.56 232.713 501.56Z" fill="black"/>
<path d="M232.369 498.81C275.105 498.81 309.749 461.869 309.749 416.301C309.749 370.733 275.105 333.793 232.369 333.793C189.633 333.793 154.988 370.733 154.988 416.301C154.988 461.869 189.633 498.81 232.369 498.81Z" fill="#3F3D56"/>
<path d="M256.787 465.119H208.639V509.123H256.787V465.119Z" fill="#CACCC8"/>
<path d="M319.722 475.776L316.971 490.903L334.855 493.653L346.548 486.778L345.86 475.776H319.722Z" fill="#575A89"/>
<path d="M229.617 191.81C229.617 191.81 228.242 207.624 224.803 208.312C221.364 208.999 232.369 236.502 232.369 236.502H248.877L261.945 233.064L255.755 217.938C255.755 217.938 247.501 206.937 253.691 197.998C259.882 189.06 229.617 191.81 229.617 191.81Z" fill="#A0616A"/>
<path opacity="0.1" d="M229.617 191.81C229.617 191.81 228.242 207.624 224.803 208.312C221.364 208.999 232.369 236.502 232.369 236.502H248.877L261.945 233.064L255.755 217.938C255.755 217.938 247.501 206.937 253.691 197.998C259.882 189.06 229.617 191.81 229.617 191.81Z" fill="black"/>
<path d="M195.226 312.822C195.226 312.822 177.343 347.201 191.787 354.076C206.231 360.952 209.67 360.265 209.67 362.327C209.67 364.39 206.919 363.702 208.295 367.14C209.67 370.578 205.544 384.329 209.67 392.58C213.797 400.831 212.422 407.019 212.422 407.019C212.422 407.019 212.422 407.707 213.797 410.457C215.173 413.207 215.861 415.27 215.173 416.645C214.485 418.02 210.358 426.959 214.485 429.021C218.612 431.084 239.935 432.459 241.998 429.021C244.062 425.584 239.935 423.521 241.998 421.458C244.062 419.395 245.437 418.708 244.062 417.333C242.686 415.958 241.31 398.768 241.31 398.768C241.31 398.768 244.75 378.829 243.374 376.079C241.998 373.328 239.935 370.578 241.31 368.515C242.686 366.453 244.062 367.14 244.75 364.39C245.437 361.64 246.813 355.452 246.813 355.452L254.379 354.764L272.262 358.202C272.262 358.202 292.209 380.204 314.22 387.08C314.22 387.08 320.41 393.268 322.474 393.268C324.537 393.268 324.537 393.268 323.849 394.643C323.162 396.018 321.098 396.018 322.474 397.393C323.849 398.768 325.913 396.706 324.537 398.768C323.162 400.831 321.786 400.831 323.162 402.206C324.537 403.581 322.474 411.145 322.474 411.832C322.474 412.52 316.283 477.151 318.347 478.526C320.41 479.902 349.299 484.027 351.362 478.526C353.426 473.026 349.987 466.15 349.987 466.15C349.987 466.15 360.304 383.642 357.553 378.141C354.801 372.641 345.172 347.888 293.585 332.074C293.585 332.074 279.141 329.324 279.141 327.261C279.141 325.199 277.765 312.135 275.014 311.447C272.262 310.76 256.443 310.072 256.443 310.072L236.496 316.26L208.983 311.447L195.226 312.822Z" fill="#2F2E41"/>
<path d="M219.3 428.334L215.861 440.71C215.861 440.71 213.11 460.65 216.549 465.463C219.25 469.243 224.073 473.872 233.018 474.684C235.525 474.914 238.036 474.282 240.134 472.892C242.233 471.502 243.794 469.438 244.559 467.04C244.662 466.753 244.726 466.454 244.75 466.15C244.75 464.775 242.686 448.273 242.686 448.273L239.247 431.084L238.559 426.271L219.3 428.334Z" fill="#2F2E41"/>
<path d="M319.723 487.465C319.723 487.465 316.283 484.027 315.596 487.465C314.908 490.903 312.156 505.342 316.971 506.029C321.786 506.717 367.87 513.592 372.685 510.842C377.5 508.092 386.441 503.966 380.939 501.904C375.436 499.841 359.616 493.653 359.616 493.653C359.616 493.653 350.675 481.964 349.299 481.277C347.923 480.589 340.357 481.964 336.918 484.715C333.479 487.465 319.723 487.465 319.723 487.465Z" fill="#2F2E41"/>
<path d="M246.125 206.249C257.901 206.249 267.448 196.706 267.448 184.935C267.448 173.163 257.901 163.62 246.125 163.62C234.349 163.62 224.803 173.163 224.803 184.935C224.803 196.706 234.349 206.249 246.125 206.249Z" fill="#A0616A"/>
<path d="M244.062 233.064L235.808 224.126L226.659 206.249C226.659 206.249 219.988 204.186 218.612 207.624C217.237 211.062 192.475 222.063 192.475 222.063C192.475 222.063 198.665 279.819 195.914 285.32C193.163 290.82 188.348 312.822 192.475 314.885C196.602 316.948 215.861 314.885 222.051 317.635C228.242 320.386 246.125 320.386 250.94 316.948C255.755 313.51 257.13 310.76 261.945 312.822C266.044 314.578 275.627 254.543 278.385 236.653C278.618 235.15 278.425 233.612 277.828 232.214C277.232 230.815 276.255 229.612 275.009 228.739C268.838 224.412 257.723 216.954 255.755 217.938C253.003 219.313 244.062 233.064 244.062 233.064Z" fill="#10AE70"/>
<path d="M273.638 230.314C275.253 230.718 276.706 231.606 277.802 232.859C278.898 234.112 279.583 235.67 279.767 237.324L285.331 287.382C285.331 287.382 271.575 316.948 264.696 297.008C257.818 277.069 273.638 230.314 273.638 230.314Z" fill="#10AE70"/>
<path d="M272.263 292.195L287.395 288.07C287.395 288.07 290.146 307.322 292.897 307.322C295.649 307.322 283.268 318.323 277.077 316.948C270.887 315.573 261.945 310.76 261.257 307.322C260.57 303.884 267.448 289.445 267.448 289.445L272.263 292.195Z" fill="#10AE70"/>
<path d="M230.029 194.129C231.479 190.934 231.227 187.206 232.426 183.908C233.068 182.142 234.109 180.548 235.469 179.251C236.829 177.954 238.471 176.988 240.266 176.431C242.061 175.873 243.96 175.737 245.816 176.035C247.672 176.332 249.434 177.054 250.965 178.145C252.507 179.244 254.053 180.788 255.935 180.579C257.962 180.353 259.769 178.092 261.633 178.921C263.698 179.839 263.14 183.539 265.233 184.394C266.334 184.843 267.636 184.151 268.271 183.145C268.827 182.088 269.129 180.917 269.155 179.724C269.444 176.791 269.705 173.688 268.433 171.029C267.898 170.128 267.431 169.188 267.038 168.217C266.815 167.31 266.726 166.376 266.773 165.443C266.761 161.997 266.509 158.401 264.774 155.423C262.848 152.117 259.289 150.004 255.575 149.082C251.862 148.159 247.972 148.301 244.159 148.624C237.856 149.157 231.283 150.3 226.318 154.217C225.643 154.71 225.062 155.32 224.603 156.018C224.167 156.847 223.859 157.738 223.689 158.659C222.616 163.03 221.006 167.25 218.897 171.226C217.882 172.911 217.053 174.702 216.424 176.565C215.897 178.459 215.933 180.618 217.035 182.245C217.932 183.571 219.367 184.277 220.494 185.36C221.611 186.434 222.134 188.499 223.371 189.312C224.451 190.021 225.745 189.52 226.847 190.272C228.261 191.238 228.363 193.356 230.029 194.129Z" fill="#2F2E41"/>
<path d="M247.501 243.378L249.564 239.252C249.564 239.252 279.829 248.191 286.019 256.442C286.019 256.442 301.151 246.816 309.405 248.191L317.659 249.566L292.209 272.256L259.882 269.505L247.501 243.378Z" fill="#F2F2F2"/>
<path d="M246.125 239.252L217.924 278.444L258.506 298.383C258.506 298.383 262.3 300.446 265.218 298.383L292.209 286.007L317.659 249.566L292.209 262.63C292.209 262.63 289.458 257.129 283.956 259.88L246.125 239.252Z" fill="#FFC963"/>
<path d="M289.458 308.697L294.961 294.258C294.961 294.258 307.342 278.444 300.463 270.881C293.585 263.317 286.019 292.883 286.019 292.883L289.458 308.697Z" fill="#A0616A"/>
<path d="M225.97 306.393L237.977 296.662C237.977 296.662 256.624 289.192 254.47 279.2C252.316 269.208 230.932 290.988 230.932 290.988L225.97 306.393Z" fill="#A0616A"/>
<path opacity="0.1" d="M196.258 236.846H195.57C195.57 236.846 184.909 224.126 182.845 241.315C180.782 258.504 173.904 315.573 191.787 317.635C209.67 319.698 222.395 309.041 222.395 309.041C222.395 309.041 235.464 289.101 230.649 289.101C228.32 289.101 221.984 288.055 216.205 288.414C210.04 288.796 204.501 290.532 204.856 288.757C205.544 285.32 215.517 241.659 196.258 236.846Z" fill="black"/>
<path d="M195.226 223.438L192.475 222.063C192.475 222.063 181.47 224.126 179.406 241.315C177.343 258.504 170.465 315.573 188.348 317.635C206.231 319.698 230.305 314.885 230.305 314.885C230.305 314.885 235.12 288.757 230.305 288.757C225.491 288.757 200.729 292.195 201.417 288.757C202.104 285.32 214.485 228.251 195.226 223.438Z" fill="#10AE70"/>
<path d="M279.485 300.79L287.069 289.17L291.866 308.353L279.485 313.854V300.79Z" fill="#10AE70"/>
<path d="M123.674 135.086C133.931 135.086 142.245 126.774 142.245 116.521C142.245 106.269 133.931 97.957 123.674 97.957C113.417 97.957 105.103 106.269 105.103 116.521C105.103 126.774 113.417 135.086 123.674 135.086Z" fill="#3A3A3A"/>
<path d="M145.684 254.723H101.664V298.727H145.684V254.723Z" fill="#CC9A9A"/>
<path d="M302.871 58L314.013 77.2911L325.154 96.5822H302.871H280.587L291.729 77.2911L302.871 58Z" fill="#3A3A3A"/>
<path d="M497 173.669C496.734 181.899 494.729 188.496 490.985 193.46C487.24 198.424 482.792 200.906 477.64 200.906C473.443 200.906 469.765 198.477 466.606 193.619C463.445 188.761 461.865 181.288 461.865 171.2C461.865 168.97 461.918 166.846 462.025 164.829C462.13 162.812 462.263 160.9 462.423 159.095L465.211 132.893H446.807C443.621 166.023 441.005 185.735 438.96 192.026C436.915 198.318 433.449 201.464 428.563 201.464C426.357 201.41 424.253 200.528 422.667 198.995C421.748 198.181 421.021 197.172 420.539 196.043C420.056 194.914 419.831 193.691 419.879 192.464C419.879 190.023 421.804 186.612 425.655 182.23C429.505 177.85 431.643 173.855 432.068 170.245L436.849 132.893H429.121C426.942 132.906 424.798 133.438 422.867 134.446C421.089 135.262 419.542 136.507 418.365 138.069L414.939 143.166H412.151C414.753 135.097 417.953 129.031 421.751 124.969C425.548 120.907 429.916 118.876 434.857 118.876H495.725V132.893H475.17C474.533 139.264 474.041 145.635 473.696 152.007C473.35 158.378 473.178 164.776 473.179 171.2C473.179 175.554 474.188 179.085 476.206 181.792C478.224 184.5 480.747 185.854 483.775 185.854C485.633 185.854 487.585 185.097 489.631 183.584C490.602 182.903 491.414 182.02 492.012 180.996C492.61 179.972 492.98 178.831 493.096 177.651C493.256 176.484 493.375 175.568 493.455 174.903C493.534 174.24 493.574 173.829 493.574 173.669L497 173.669Z" fill="#FFC963"/>
<path opacity="0.1" d="M497 173.669C496.734 181.899 494.729 188.496 490.985 193.46C487.24 198.424 482.792 200.906 477.64 200.906C473.443 200.906 469.765 198.477 466.606 193.619C463.445 188.761 461.865 181.288 461.865 171.2C461.865 168.97 461.918 166.846 462.025 164.829C462.13 162.812 462.263 160.9 462.423 159.095L465.211 132.893H446.807C443.621 166.023 441.005 185.735 438.96 192.026C436.915 198.318 433.449 201.464 428.563 201.464C426.357 201.41 424.253 200.528 422.667 198.995C421.748 198.181 421.021 197.172 420.539 196.043C420.056 194.914 419.831 193.691 419.879 192.464C419.879 190.023 421.804 186.612 425.655 182.23C429.505 177.85 431.643 173.855 432.068 170.245L436.849 132.893H429.121C426.942 132.906 424.798 133.438 422.867 134.446C421.089 135.262 419.542 136.507 418.365 138.069L414.939 143.166H412.151C414.753 135.097 417.953 129.031 421.751 124.969C425.548 120.907 429.916 118.876 434.857 118.876H495.725V132.893H475.17C474.533 139.264 474.041 145.635 473.696 152.007C473.35 158.378 473.178 164.776 473.179 171.2C473.179 175.554 474.188 179.085 476.206 181.792C478.224 184.5 480.747 185.854 483.775 185.854C485.633 185.854 487.585 185.097 489.631 183.584C490.602 182.903 491.414 182.02 492.012 180.996C492.61 179.972 492.98 178.831 493.096 177.651C493.256 176.484 493.375 175.568 493.455 174.903C493.534 174.24 493.574 173.829 493.574 173.669L497 173.669Z" fill="black"/>
<path d="M497 171.181C496.734 179.411 494.729 186.008 490.985 190.971C487.24 195.935 482.792 198.418 477.64 198.418C473.443 198.418 469.765 195.989 466.606 191.131C463.445 186.273 461.865 178.8 461.865 168.712C461.865 166.482 461.918 164.358 462.025 162.341C462.13 160.323 462.263 158.412 462.423 156.606L465.211 130.405H446.807C443.621 163.535 441.005 183.246 438.96 189.538C436.915 195.829 433.449 198.975 428.563 198.976C426.357 198.921 424.253 198.04 422.667 196.507C421.748 195.692 421.021 194.684 420.539 193.555C420.056 192.425 419.831 191.203 419.879 189.976C419.879 187.535 421.804 184.123 425.655 179.742C429.505 175.362 431.643 171.367 432.068 167.756L436.849 130.405H429.121C426.942 130.418 424.798 130.95 422.867 131.957C421.089 132.774 419.542 134.019 418.365 135.581L414.939 140.678H412.151C414.753 132.608 417.953 126.542 421.751 122.48C425.548 118.419 429.916 116.388 434.857 116.388H495.725V130.405H475.17C474.533 136.776 474.041 143.147 473.696 149.518C473.35 155.89 473.178 162.287 473.179 168.712C473.179 173.066 474.188 176.597 476.206 179.304C478.224 182.012 480.747 183.366 483.775 183.366C485.633 183.366 487.585 182.609 489.631 181.096C490.602 180.415 491.414 179.532 492.012 178.508C492.61 177.484 492.98 176.343 493.096 175.163C493.256 173.995 493.375 173.08 493.455 172.415C493.534 171.752 493.574 171.34 493.574 171.181H497Z" fill="#FFC963"/>
</g>
<defs>
<clipPath id="clip0_311_36">
<rect width="450" height="469" fill="white" transform="translate(47 58)"/>
</clipPath>
</defs>
</svg>
