<svg width="116" height="107" viewBox="0 0 116 107" fill="none" xmlns="http://www.w3.org/2000/svg">
<g id="undraw_collaboration_re_vyau 1" clip-path="url(#clip0_67_1198)">
<path id="Vector" d="M82.2163 98.1286H29.3054C28.0488 98.1272 26.8441 97.626 25.9557 96.7351C25.0673 95.8441 24.5678 94.6363 24.5669 93.3765V72.9874C24.4573 73.1126 24.3427 73.2361 24.2246 73.3562V93.3765C24.2258 94.7272 24.7615 96.0222 25.714 96.9774C26.6665 97.9326 27.9581 98.47 29.3054 98.4717H82.3652C82.3138 98.3585 82.2642 98.2435 82.2163 98.1286ZM24.5669 22.7651C24.5678 21.5053 25.0673 20.2975 25.9557 19.4065C26.8441 18.5156 28.0488 18.0145 29.3054 18.013H46.9349C46.9024 17.8981 46.8716 17.7849 46.8425 17.6699H29.3054C27.9581 17.6716 26.6665 18.209 25.714 19.1642C24.7615 20.1194 24.2258 21.4144 24.2246 22.7651V54.0221C24.3427 54.1422 24.4556 54.2657 24.5669 54.391V22.7651ZM95.6122 26.7726L84.5573 17.9942C84.2934 17.7844 83.9666 17.6702 83.6298 17.6699H73.7917C73.7642 17.7849 73.7335 17.8998 73.701 18.013H83.6298C83.8892 18.0137 84.141 18.1012 84.3451 18.2618L95.3999 27.0419C95.5049 27.1249 95.5896 27.2307 95.6478 27.3514C95.7059 27.472 95.7358 27.6044 95.7353 27.7384V78.8322C95.85 78.8357 95.9647 78.8442 96.0776 78.8528V27.7384C96.0782 27.5526 96.0366 27.369 95.956 27.2017C95.8754 27.0343 95.7578 26.8876 95.6122 26.7726Z" fill="#3F3D56"/>
<path id="Vector_2" d="M95.4663 27.2258H86.5462C86.2237 27.2258 85.9044 27.1622 85.6065 27.0385C85.3087 26.9148 85.038 26.7335 84.81 26.5049C84.582 26.2763 84.4011 26.005 84.2777 25.7063C84.1543 25.4077 84.0908 25.0876 84.0908 24.7644V18.1597C84.0908 18.1308 84.099 18.1025 84.1143 18.078C84.1296 18.0535 84.1515 18.0338 84.1775 18.0212C84.2034 18.0086 84.2324 18.0036 84.2611 18.0068C84.2898 18.01 84.317 18.0212 84.3396 18.0391L95.5616 26.9514C95.5866 26.9712 95.6048 26.9984 95.6136 27.0291C95.6225 27.0597 95.6217 27.0924 95.6112 27.1226C95.6007 27.1527 95.5812 27.1789 95.5552 27.1974C95.5292 27.2159 95.4982 27.2258 95.4663 27.2258Z" fill="#E6E6E6"/>
<path id="Vector_3" d="M95.466 27.3973H86.5459C85.8496 27.3965 85.182 27.1189 84.6896 26.6253C84.1972 26.1316 83.9202 25.4624 83.9194 24.7643V18.1597C83.9194 18.0985 83.9366 18.0386 83.969 17.9868C84.0014 17.935 84.0478 17.8933 84.1027 17.8667C84.1576 17.8401 84.2189 17.8295 84.2795 17.8362C84.3402 17.8429 84.3977 17.8665 84.4456 17.9045L95.6676 26.8169C95.7204 26.8589 95.7589 26.9162 95.7777 26.9811C95.7965 27.046 95.7948 27.1151 95.7726 27.1789C95.7504 27.2428 95.709 27.2981 95.6541 27.3372C95.5991 27.3763 95.5334 27.3973 95.466 27.3973ZM84.2617 18.1963V24.7643C84.2624 25.3714 84.5033 25.9535 84.9315 26.3828C85.3597 26.8121 85.9403 27.0535 86.5459 27.0542H95.4152L84.2617 18.1963Z" fill="#3F3D56"/>
<path id="Vector_4" d="M77.7596 38.6101H51.5182C51.1926 38.6101 50.8803 38.4805 50.6501 38.2497C50.4199 38.0189 50.2905 37.7058 50.2905 37.3794C50.2905 37.053 50.4199 36.74 50.6501 36.5092C50.8803 36.2783 51.1926 36.1487 51.5182 36.1487H77.7596C78.0852 36.1487 78.3975 36.2783 78.6277 36.5092C78.8579 36.74 78.9873 37.053 78.9873 37.3794C78.9873 37.7058 78.8579 38.0189 78.6277 38.2497C78.3975 38.4805 78.0852 38.6101 77.7596 38.6101Z" fill="#CCCCCC"/>
<path id="Vector_5" d="M82.8237 42.7637H51.5182C51.1926 42.7637 50.8803 42.634 50.6501 42.4032C50.4199 42.1724 50.2905 41.8594 50.2905 41.533C50.2905 41.2066 50.4199 40.8935 50.6501 40.6627C50.8803 40.4319 51.1926 40.3022 51.5182 40.3022H82.8237C83.1493 40.3022 83.4616 40.4319 83.6918 40.6627C83.922 40.8935 84.0514 41.2066 84.0514 41.533C84.0514 41.8594 83.922 42.1724 83.6918 42.4032C83.4616 42.634 83.1493 42.7637 82.8237 42.7637Z" fill="#CCCCCC"/>
<path id="Vector_6" d="M77.7596 57.2249H51.5182C51.1926 57.2249 50.8803 57.0952 50.6501 56.8644C50.4199 56.6336 50.2905 56.3206 50.2905 55.9942C50.2905 55.6677 50.4199 55.3547 50.6501 55.1239C50.8803 54.8931 51.1926 54.7634 51.5182 54.7634H77.7596C78.0852 54.7634 78.3975 54.8931 78.6277 55.1239C78.8579 55.3547 78.9873 55.6677 78.9873 55.9942C78.9873 56.3206 78.8579 56.6336 78.6277 56.8644C78.3975 57.0952 78.0852 57.2249 77.7596 57.2249Z" fill="#CCCCCC"/>
<path id="Vector_7" d="M82.8237 61.3784H51.5182C51.1926 61.3784 50.8803 61.2488 50.6501 61.018C50.4199 60.7872 50.2905 60.4741 50.2905 60.1477C50.2905 59.8213 50.4199 59.5083 50.6501 59.2775C50.8803 59.0467 51.1926 58.917 51.5182 58.917H82.8237C83.1493 58.917 83.4616 59.0467 83.6918 59.2775C83.922 59.5083 84.0514 59.8213 84.0514 60.1477C84.0514 60.4741 83.922 60.7872 83.6918 61.018C83.4616 61.2488 83.1493 61.3784 82.8237 61.3784Z" fill="#CCCCCC"/>
<path id="Vector_8" d="M77.7596 75.8394H51.5182C51.357 75.8394 51.1973 75.8075 51.0484 75.7457C50.8994 75.6838 50.7641 75.5932 50.6501 75.4789C50.5361 75.3646 50.4457 75.229 50.384 75.0796C50.3223 74.9303 50.2905 74.7703 50.2905 74.6086C50.2905 74.447 50.3223 74.287 50.384 74.1377C50.4457 73.9884 50.5361 73.8527 50.6501 73.7384C50.7641 73.6241 50.8994 73.5335 51.0484 73.4716C51.1973 73.4098 51.357 73.3779 51.5182 73.3779H77.7596C78.0852 73.3779 78.3975 73.5076 78.6277 73.7384C78.8579 73.9692 78.9873 74.2822 78.9873 74.6086C78.9873 74.9351 78.8579 75.2481 78.6277 75.4789C78.3975 75.7097 78.0852 75.8394 77.7596 75.8394Z" fill="#CCCCCC"/>
<path id="Vector_9" d="M82.8237 79.9932H51.5182C51.357 79.9932 51.1973 79.9614 51.0484 79.8995C50.8994 79.8377 50.7641 79.747 50.6501 79.6327C50.5361 79.5184 50.4457 79.3828 50.384 79.2334C50.3223 79.0841 50.2905 78.9241 50.2905 78.7625C50.2905 78.6008 50.3223 78.4408 50.384 78.2915C50.4457 78.1422 50.5361 78.0065 50.6501 77.8922C50.7641 77.7779 50.8994 77.6873 51.0484 77.6254C51.1973 77.5636 51.357 77.5317 51.5182 77.5317H82.8237C82.9849 77.5317 83.1446 77.5636 83.2935 77.6254C83.4425 77.6873 83.5778 77.7779 83.6918 77.8922C83.8058 78.0065 83.8962 78.1422 83.9579 78.2915C84.0196 78.4408 84.0514 78.6008 84.0514 78.7625C84.0514 78.9241 84.0196 79.0841 83.9579 79.2334C83.8962 79.3828 83.8058 79.5184 83.6918 79.6327C83.5778 79.747 83.4425 79.8377 83.2935 79.8995C83.1446 79.9614 82.9849 79.9932 82.8237 79.9932Z" fill="#CCCCCC"/>
<path id="Ellipse 44" d="M40.5906 43.8061C42.987 43.8061 44.9297 41.8585 44.9297 39.4561C44.9297 37.0537 42.987 35.1062 40.5906 35.1062C38.1942 35.1062 36.2515 37.0537 36.2515 39.4561C36.2515 41.8585 38.1942 43.8061 40.5906 43.8061Z" fill="#6C63FF"/>
<path id="Path 395" d="M40.1604 41.1155C40.0627 41.1156 39.9677 41.084 39.8896 41.0253L39.8848 41.0216L38.865 40.2396C38.8177 40.2033 38.778 40.1581 38.7481 40.1064C38.7182 40.0547 38.6988 39.9977 38.691 39.9385C38.6831 39.8793 38.687 39.8191 38.7024 39.7614C38.7177 39.7037 38.7443 39.6496 38.7805 39.6022C38.8168 39.5548 38.862 39.5151 38.9136 39.4852C38.9652 39.4554 39.0221 39.436 39.0812 39.4282C39.1403 39.4204 39.2003 39.4244 39.2578 39.4399C39.3153 39.4554 39.3692 39.4821 39.4165 39.5185L40.077 40.0263L41.6378 37.985C41.674 37.9376 41.7191 37.8979 41.7706 37.8681C41.8221 37.8382 41.879 37.8188 41.938 37.811C41.997 37.8032 42.0569 37.8071 42.1143 37.8226C42.1718 37.838 42.2257 37.8646 42.2729 37.9009L42.2633 37.9144L42.2733 37.901C42.3685 37.9743 42.4308 38.0826 42.4466 38.202C42.4623 38.3214 42.4301 38.4421 42.3571 38.5378L40.5212 40.9378C40.4787 40.9931 40.4241 41.0378 40.3616 41.0685C40.2991 41.0993 40.2304 41.1151 40.1608 41.1149L40.1604 41.1155Z" fill="white"/>
<path id="Ellipse 44_2" d="M40.5906 62.4208C42.987 62.4208 44.9297 60.4733 44.9297 58.0709C44.9297 55.6685 42.987 53.7209 40.5906 53.7209C38.1942 53.7209 36.2515 55.6685 36.2515 58.0709C36.2515 60.4733 38.1942 62.4208 40.5906 62.4208Z" fill="#E6E6E6"/>
<path id="Path 395_2" d="M40.1603 59.7302C40.0627 59.7304 39.9676 59.6987 39.8895 59.64L39.8847 59.6364L38.865 58.8544C38.7696 58.781 38.7071 58.6728 38.6914 58.5533C38.6757 58.4339 38.7079 58.313 38.781 58.2174C38.8542 58.1218 38.9622 58.0592 39.0813 58.0434C39.2005 58.0276 39.321 58.06 39.4164 58.1333L40.0769 58.641L41.6377 56.5997C41.6739 56.5524 41.7191 56.5127 41.7706 56.4828C41.8221 56.453 41.8789 56.4336 41.9379 56.4258C41.9969 56.418 42.0568 56.4219 42.1143 56.4373C42.1717 56.4527 42.2256 56.4793 42.2728 56.5156L42.2633 56.5292L42.2732 56.5157C42.3685 56.5891 42.4308 56.6973 42.4465 56.8167C42.4622 56.9361 42.43 57.0569 42.357 57.1525L40.5211 59.5525C40.4787 59.6078 40.4241 59.6526 40.3615 59.6833C40.299 59.714 40.2303 59.7299 40.1607 59.7297L40.1603 59.7302Z" fill="white"/>
<path id="Ellipse 44_3" d="M40.5906 81.0356C42.987 81.0356 44.9297 79.088 44.9297 76.6856C44.9297 74.2832 42.987 72.3357 40.5906 72.3357C38.1942 72.3357 36.2515 74.2832 36.2515 76.6856C36.2515 79.088 38.1942 81.0356 40.5906 81.0356Z" fill="#E6E6E6"/>
<path id="Path 395_3" d="M40.1604 78.345C40.0627 78.3451 39.9677 78.3135 39.8896 78.2548L39.8848 78.2511L38.865 77.4691C38.8177 77.4328 38.778 77.3876 38.7481 77.3359C38.7182 77.2842 38.6988 77.2272 38.691 77.168C38.6831 77.1088 38.687 77.0486 38.7024 76.9909C38.7177 76.9332 38.7443 76.8791 38.7805 76.8317C38.8168 76.7843 38.862 76.7446 38.9136 76.7147C38.9652 76.6848 39.0221 76.6655 39.0812 76.6577C39.1403 76.6499 39.2003 76.6539 39.2578 76.6694C39.3153 76.6849 39.3692 76.7116 39.4165 76.748L40.077 77.2558L41.6378 75.2144C41.674 75.1671 41.7191 75.1274 41.7706 75.0976C41.8221 75.0677 41.879 75.0483 41.938 75.0405C41.997 75.0327 42.0569 75.0366 42.1143 75.052C42.1718 75.0675 42.2257 75.0941 42.2729 75.1303L42.2633 75.1439L42.2733 75.1304C42.3685 75.2038 42.4308 75.3121 42.4466 75.4315C42.4623 75.5509 42.4301 75.6716 42.3571 75.7672L40.5212 78.1672C40.4787 78.2225 40.4241 78.2673 40.3616 78.298C40.2991 78.3287 40.2304 78.3446 40.1608 78.3444L40.1604 78.345Z" fill="white"/>
<path id="Vector_10" d="M101.598 105.39C101.353 105.518 101.104 105.639 100.85 105.754C100.62 105.858 100.386 105.956 100.148 106.048C100.061 106.082 99.9722 106.115 99.8838 106.148C99.1844 106.402 98.4661 106.601 97.7355 106.742C97.3738 106.813 97.0073 106.869 96.6362 106.91C96.3297 106.945 96.0201 106.969 95.7074 106.984C95.4846 106.995 95.2619 107 95.0376 107C94.1494 107 93.263 106.917 92.3903 106.751C92.1628 106.71 91.9401 106.661 91.7173 106.607C90.64 106.348 89.5971 105.963 88.6103 105.458C88.5219 105.413 88.4334 105.366 88.345 105.32C88.2138 105.25 88.086 105.177 87.958 105.101C88.0196 105.016 88.086 104.932 88.1538 104.85C88.893 103.931 89.8168 103.18 90.8652 102.643C91.9135 102.107 93.0629 101.798 94.2383 101.737C95.4137 101.675 96.5888 101.863 97.687 102.288C98.7852 102.712 99.7818 103.364 100.612 104.2C100.9 104.49 101.167 104.8 101.411 105.128C101.476 105.214 101.538 105.301 101.598 105.39Z" fill="#6C63FF"/>
<path id="Vector_11" d="M95.3528 98.4336C99.1834 98.4336 102.289 95.3206 102.289 91.4805C102.289 87.6404 99.1834 84.5273 95.3528 84.5273C91.5223 84.5273 88.417 87.6404 88.417 91.4805C88.417 95.3206 91.5223 98.4336 95.3528 98.4336Z" fill="#2F2E41"/>
<path id="Vector_12" d="M97.1975 98.4435C99.6992 97.0726 100.619 93.9282 99.2511 91.4204C97.8836 88.9125 94.747 87.9908 92.2454 89.3618C89.7438 90.7327 88.8244 93.877 90.1919 96.3849C91.5594 98.8927 94.6959 99.8144 97.1975 98.4435Z" fill="#A0616A"/>
<path id="Vector_13" d="M100.146 90.6477C98.9662 91.4627 97.5661 91.8965 96.1334 91.8908C96.6445 92.246 97.2262 92.486 97.8387 92.5941C95.9339 93.0037 93.9652 93.0148 92.0559 92.6267C91.6315 92.5584 91.222 92.4174 90.8453 92.2099C90.6576 92.1048 90.4941 91.9613 90.3653 91.7887C90.2366 91.6161 90.1456 91.4182 90.0981 91.208C89.9712 90.4814 90.536 89.8213 91.1229 89.3764C92.0215 88.7056 93.0576 88.2435 94.1563 88.0234C95.2549 87.8033 96.3887 87.8308 97.4754 88.1038C98.185 88.2877 98.8959 88.5984 99.3568 89.1697C99.8177 89.741 99.9543 90.6217 99.5151 91.21L100.146 90.6477Z" fill="#2F2E41"/>
<path id="Vector_14" d="M96.0778 78.5338C95.9649 78.5253 95.8502 78.5184 95.7355 78.5132C95.5045 78.5012 95.2718 78.4961 95.0373 78.4961C92.7061 78.4962 90.4107 79.0709 88.3533 80.1698C86.2959 81.2686 84.5397 82.8579 83.2392 84.7974C81.9388 86.737 81.1341 88.9674 80.8961 91.2922C80.658 93.6169 80.9939 95.9647 81.8742 98.1287C81.9204 98.2436 81.9684 98.3586 82.0197 98.4718C83.1957 101.143 85.1562 103.39 87.6395 104.915L87.7302 104.969C87.8072 105.015 87.8825 105.059 87.9578 105.101C88.0862 105.178 88.2145 105.25 88.3445 105.32C88.4335 105.367 88.5225 105.413 88.6098 105.457C89.5966 105.963 90.6398 106.348 91.7175 106.607C91.9399 106.662 92.1624 106.71 92.39 106.751C93.2627 106.917 94.1491 107 95.0373 107C95.2615 107 95.484 106.995 95.7082 106.984C96.0196 106.971 96.3294 106.945 96.6357 106.911C97.007 106.869 97.3738 106.813 97.736 106.742C98.4662 106.601 99.1843 106.403 99.8837 106.149C99.9727 106.115 100.062 106.082 100.147 106.048C100.387 105.957 100.619 105.859 100.851 105.754C101.104 105.639 101.353 105.518 101.598 105.389C104.057 104.097 106.089 102.119 107.449 99.6933C107.455 99.6803 107.462 99.6677 107.47 99.6555C108.628 97.5636 109.241 95.2131 109.254 92.8208C109.267 90.4284 108.679 88.0713 107.544 85.9668C106.409 83.8624 104.764 82.0784 102.76 80.7793C100.756 79.4803 98.4579 78.708 96.0778 78.5338ZM108.693 95.3633C108.419 96.8023 107.918 98.1885 107.21 99.4703C107.198 99.4926 107.186 99.5149 107.174 99.5354C105.842 101.926 103.838 103.871 101.412 105.128C101.169 105.255 100.923 105.374 100.674 105.485C100.467 105.578 100.255 105.667 100.041 105.749C99.9521 105.783 99.8597 105.819 99.769 105.85C99.1646 106.072 98.5453 106.249 97.9157 106.382C97.4489 106.482 96.977 106.557 96.5022 106.605C96.2095 106.638 95.9135 106.66 95.614 106.67C95.4223 106.679 95.2307 106.684 95.0373 106.684C94.1778 106.684 93.3201 106.604 92.4756 106.444C91.9615 106.349 91.4535 106.225 90.9542 106.07C90.1935 105.835 89.4544 105.535 88.7449 105.173C88.6628 105.13 88.5807 105.087 88.5003 105.042C88.3839 104.981 88.2675 104.917 88.1546 104.85C88.069 104.802 87.9835 104.751 87.8996 104.701C87.85 104.672 87.8021 104.643 87.7524 104.612C85.3884 103.147 83.513 101.009 82.3653 98.4718C82.314 98.3586 82.2644 98.2436 82.2164 98.1287C81.3321 96.0109 80.9835 93.7068 81.2015 91.4214C81.4196 89.1359 82.1975 86.9399 83.4662 85.0285C84.7349 83.1171 86.4551 81.5496 88.4738 80.4654C90.4925 79.3811 92.7471 78.8136 95.0373 78.8135C95.2718 78.8135 95.5045 78.8186 95.7355 78.8324C95.8502 78.8358 95.9649 78.8444 96.0778 78.8529C98.0305 79.0013 99.9299 79.5613 101.652 80.4962C103.374 81.4312 104.879 82.7201 106.07 84.2786C107.261 85.837 108.11 87.63 108.562 89.5402C109.014 91.4503 109.059 93.4346 108.693 95.3633Z" fill="#3F3D56"/>
<path id="Vector_15" d="M91.8408 84.6233C91.7661 83.8367 90.8048 83.3524 90.053 83.59C89.3012 83.8276 88.8077 84.5865 88.6585 85.3624C88.5867 85.6892 88.5799 86.027 88.6386 86.3564C88.6973 86.6858 88.8203 87.0003 89.0005 87.282C89.3805 87.8302 90.0788 88.1724 90.7301 88.0332C91.4737 87.8743 91.9888 87.1465 92.1362 86.3989C92.2835 85.6512 92.1372 84.8804 91.9911 84.1325L91.8408 84.6233Z" fill="#2F2E41"/>
<path id="Vector_16" d="M102.421 85.7471C102.346 84.9604 101.385 84.4761 100.633 84.7138C99.8813 84.9514 99.3878 85.7102 99.2386 86.4862C99.1668 86.813 99.16 87.1508 99.2187 87.4802C99.2774 87.8096 99.4004 88.1241 99.5806 88.4058C99.9606 88.954 100.659 89.2962 101.31 89.157C102.054 88.9981 102.569 88.2703 102.716 87.5227C102.864 86.775 102.717 86.0042 102.571 85.2563L102.421 85.7471Z" fill="#2F2E41"/>
<path id="Vector_17" d="M67.9002 26.1183C65.6996 27.5309 63.15 28.3012 60.5372 28.3429C57.9245 28.3846 55.3517 27.696 53.1074 26.3542C53.5022 25.6175 54.0025 24.9426 54.5923 24.3511C55.5023 23.4345 56.6098 22.7391 57.8297 22.3186C59.0496 21.898 60.3494 21.7634 61.6294 21.925C62.9093 22.0866 64.1352 22.5402 65.2129 23.2509C66.2907 23.9617 67.1916 24.9106 67.8464 26.0249C67.8638 26.0549 67.8827 26.0866 67.9002 26.1183Z" fill="#6C63FF"/>
<path id="Vector_18" d="M59.8858 18.546C63.7418 18.546 66.8677 15.4123 66.8677 11.5467C66.8677 7.68108 63.7418 4.54736 59.8858 4.54736C56.0297 4.54736 52.9038 7.68108 52.9038 11.5467C52.9038 15.4123 56.0297 18.546 59.8858 18.546Z" fill="#2F2E41"/>
<path id="Vector_19" d="M64.3966 16.4836C65.7732 13.9591 64.8477 10.7938 62.3294 9.41382C59.8112 8.0338 56.6538 8.96159 55.2772 11.4861C53.9006 14.0106 54.8261 17.1759 57.3443 18.5559C59.8626 19.9359 63.02 19.0081 64.3966 16.4836Z" fill="#FFB8B8"/>
<path id="Vector_20" d="M55.061 10.7081C56.2485 11.5286 57.6579 11.9652 59.1001 11.9594C58.5857 12.317 58 12.5586 57.3835 12.6674C59.301 13.0798 61.2827 13.0909 63.2047 12.7002C63.632 12.6316 64.0442 12.4896 64.4234 12.2806C64.6123 12.1749 64.7769 12.0304 64.9065 11.8567C65.0361 11.6829 65.1278 11.4838 65.1755 11.2722C65.3033 10.5407 64.7347 9.87621 64.1439 9.42835C63.2393 8.75312 62.1963 8.2879 61.0904 8.06635C59.9844 7.8448 58.8432 7.87246 57.7492 8.14733C57.0349 8.33244 56.3193 8.64518 55.8553 9.22028C55.3913 9.79538 55.2539 10.682 55.6959 11.2742L55.061 10.7081Z" fill="#2F2E41"/>
<path id="Vector_21" d="M60.314 0C56.5449 0.00420114 52.9314 1.50693 50.2661 4.17854C47.6008 6.85016 46.1013 10.4725 46.0967 14.251C46.0973 15.4036 46.2386 16.5518 46.5177 17.67C46.5467 17.785 46.5758 17.8999 46.6066 18.0131C47.4267 21.0272 49.213 23.6872 51.6901 25.583C54.1672 27.4788 57.1975 28.5051 60.314 28.5036C63.431 28.5036 66.4617 27.4769 68.9398 25.5814C71.418 23.686 73.2063 21.0269 74.0298 18.0131C74.0606 17.8982 74.0897 17.785 74.117 17.67C74.6326 15.5707 74.6653 13.3813 74.2126 11.2674C73.7599 9.15356 72.8336 7.17055 71.5039 5.46834C70.1743 3.76614 68.4759 2.3893 66.5373 1.44195C64.5987 0.49459 62.4706 0.00151251 60.314 0ZM73.7919 17.67C73.7645 17.785 73.7338 17.8999 73.7013 18.0131C73.1239 20.0746 72.0806 21.975 70.6524 23.567C69.2243 25.1591 67.4495 26.4 65.4657 27.1935C63.482 27.987 61.3426 28.3118 59.2134 28.1427C57.0843 27.9737 55.0226 27.3152 53.1882 26.2185C50.1395 24.3794 47.9037 21.4455 46.9352 18.0131C46.9027 17.8982 46.8719 17.785 46.8428 17.67C46.5576 16.5528 46.4133 15.4042 46.4133 14.251C46.4155 12.277 46.8361 10.326 47.6471 8.52719C48.4581 6.72842 49.6412 5.12292 51.1178 3.81704C52.5945 2.51116 54.331 1.53471 56.2125 0.952354C58.0939 0.369998 60.0773 0.195036 62.0313 0.439051C63.9853 0.683067 65.8653 1.34049 67.5467 2.36778C69.2282 3.39508 70.6727 4.76879 71.7846 6.39793C72.8966 8.02707 73.6505 9.87446 73.9966 11.8177C74.3426 13.761 74.2729 15.7558 73.7919 17.67Z" fill="#3F3D56"/>
<path id="Vector_22" d="M21.8035 75.5487C19.603 76.9615 17.0536 77.7319 14.4409 77.7737C11.8282 77.8155 9.25555 77.1271 7.01123 75.7855C7.03513 75.7392 7.06078 75.6928 7.08819 75.6482C7.80809 74.3473 8.85723 73.2595 10.13 72.4944C11.4027 71.7294 12.854 71.314 14.3378 71.2901C15.8216 71.2663 17.2855 71.6349 18.582 72.3587C19.8785 73.0825 20.9619 74.1361 21.723 75.4132C21.7333 75.4269 21.7418 75.4424 21.7504 75.4561C21.7675 75.4853 21.7863 75.5179 21.8035 75.5487Z" fill="#6C63FF"/>
<path id="Vector_23" d="M20.7716 60.977C20.7715 62.3614 20.3621 63.7146 19.5949 64.8656C18.8277 66.0167 17.7372 66.9138 16.4614 67.4435C15.1857 67.9733 13.7818 68.1119 12.4275 67.8418C11.0731 67.5718 9.82902 66.9051 8.85258 65.9263C7.87614 64.9474 7.21117 63.7002 6.94177 62.3425C6.67238 60.9847 6.81064 59.5774 7.33909 58.2984C7.86754 57.0195 8.76244 55.9263 9.91062 55.1572C11.0588 54.3881 12.4087 53.9776 13.7896 53.9776C14.7077 53.9732 15.6176 54.1513 16.4667 54.5015C17.3157 54.8517 18.0872 55.3671 18.7364 56.0179C19.3856 56.6687 19.8997 57.4421 20.249 58.2933C20.5983 59.1445 20.7759 60.0566 20.7716 60.977Z" fill="#2F2E41"/>
<path id="Vector_24" d="M19.2604 65.326C19.1805 65.5275 19.0885 65.724 18.9849 65.9144C18.3238 67.1267 17.2094 68.026 15.8869 68.4146C14.5644 68.8033 13.1421 68.6494 11.9328 67.9868C11.3335 67.6589 10.8045 67.2159 10.3761 66.683C9.94768 66.1501 9.6282 65.5378 9.43593 64.8811C9.24365 64.2244 9.18235 63.5362 9.25552 62.8557C9.32868 62.1752 9.53489 61.5159 9.86235 60.9153C10.1898 60.3148 10.6321 59.7848 11.164 59.3557C11.6958 58.9266 12.3068 58.6067 12.962 58.4144C13.6173 58.2221 14.3038 58.1612 14.9826 58.235C15.6613 58.3088 16.3189 58.516 16.9177 58.8447C18.0286 59.4537 18.8796 60.4481 19.3109 61.6415C19.7423 62.8348 19.7243 64.145 19.2604 65.326Z" fill="#A0616A"/>
<path id="Vector_25" d="M24.567 53.9263C24.4574 53.8062 24.3428 53.6878 24.2247 53.5729C22.3232 51.6837 19.928 50.3716 17.315 49.7876C14.702 49.2036 11.9776 49.3716 9.45574 50.2721C6.93384 51.1727 4.71705 52.7692 3.06077 54.8777C1.40449 56.9862 0.376131 59.5209 0.0941696 62.1897C-0.187792 64.8586 0.28812 67.553 1.46707 69.9625C2.64603 72.372 4.48005 74.3986 6.75783 75.8088C9.03561 77.219 11.6645 77.9553 14.3415 77.933C17.0185 77.9107 19.6348 77.1306 21.8888 75.6827C22.7306 75.1412 23.5135 74.5127 24.2247 73.8076C24.3411 73.6927 24.4557 73.576 24.567 73.4559C27.0499 70.8139 28.4327 67.321 28.4327 63.6911C28.4327 60.0612 27.0499 56.5683 24.567 53.9263ZM24.2247 73.3564C23.4732 74.1371 22.6336 74.8273 21.7228 75.4134C21.7211 75.4151 21.7194 75.4151 21.7177 75.4168C19.5418 76.8133 17.0209 77.5749 14.4376 77.6161C11.8543 77.6573 9.31056 76.9765 7.09142 75.6501C7.08975 75.6501 7.08975 75.6484 7.088 75.6484C5.38601 74.6309 3.92073 73.2604 2.79042 71.6287C1.66011 69.997 0.890908 68.1418 0.534407 66.1877C0.177906 64.2335 0.242345 62.2255 0.723405 60.2984C1.20447 58.3713 2.09102 56.5695 3.32361 55.014C4.55621 53.4585 6.10634 52.1852 7.87005 51.2795C9.63375 50.3739 11.5702 49.8567 13.5497 49.7628C15.5291 49.6689 17.5056 50.0004 19.3468 50.735C21.1879 51.4697 22.8511 52.5905 24.2247 54.0223C24.3428 54.1424 24.4558 54.2659 24.567 54.3912C26.8523 56.9464 28.1161 60.2575 28.1161 63.6894C28.1161 67.1213 26.8523 70.4324 24.567 72.9876C24.4574 73.1128 24.3428 73.2364 24.2247 73.3564Z" fill="#3F3D56"/>
<path id="Vector_26" d="M19.4482 55.1645C19.1043 54.5792 18.6057 54.1006 18.0075 53.7815C17.4093 53.4624 16.7347 53.3153 16.0583 53.3563C15.3484 53.4096 14.6729 53.6719 14.0097 53.9312L10.6377 55.2499C9.76516 55.5911 8.80954 56.009 8.43091 56.8678C8.07949 57.6649 8.34168 58.5854 8.60708 59.4152L9.86868 63.3597C10.0415 62.4737 10.2171 61.5788 10.5836 60.7541C10.9501 59.9293 11.5297 59.1689 12.331 58.7568C13.2069 58.3063 14.2392 58.3156 15.2225 58.3631C16.615 58.4303 18.1292 58.6079 19.1186 59.5925C19.6438 60.1517 19.9999 60.8489 20.1454 61.603C20.2887 62.3531 20.3608 63.1151 20.3608 63.8788C20.9318 62.8947 21.4129 61.8609 21.798 60.7899C22.1148 59.9924 22.2953 59.1471 22.332 58.2895C22.3395 57.4331 22.0977 56.5496 21.528 55.9113C20.9583 55.273 20.0301 54.9284 19.2138 55.1811" fill="#2F2E41"/>
<path id="Vector_27" d="M8.81536 36.3423L8.47314 36.3383C8.47722 35.9952 8.48708 35.647 8.50245 35.3035L8.84436 35.3189C8.82916 35.6586 8.81941 36.003 8.81536 36.3423Z" fill="#E6E6E6"/>
<path id="Vector_28" d="M8.99455 33.3598L8.6543 33.3226C8.72576 32.6668 8.81935 32.0053 8.93246 31.3567L9.26962 31.4159C9.15774 32.0572 9.0652 32.7112 8.99455 33.3598ZM9.66915 29.4937L9.33651 29.4129C9.49141 28.7722 9.66928 28.1284 9.8652 27.4992L10.1919 27.6014C9.99819 28.2235 9.8223 28.8603 9.66915 29.4937ZM10.8367 25.745L10.5173 25.6217C10.7536 25.0062 11.0133 24.3902 11.2891 23.791L11.5999 23.9347C11.3272 24.5273 11.0704 25.1363 10.8367 25.745ZM12.4781 22.1779L12.1773 22.0144C12.4906 21.435 12.8272 20.858 13.1776 20.2992L13.4674 20.4818C13.1208 21.0344 12.788 21.605 12.4781 22.1779ZM14.5631 18.8531L14.2857 18.6522C14.6707 18.1177 15.0782 17.5887 15.4966 17.08L15.7607 17.2983C15.3469 17.8014 14.944 18.3244 14.5631 18.8531ZM17.0548 15.8237L16.8052 15.589C17.2548 15.1085 17.7262 14.6361 18.206 14.1849L18.4401 14.4352C17.9656 14.8814 17.4995 15.3486 17.0548 15.8237ZM19.9109 13.1383L19.6932 12.8736C20.2005 12.4543 20.7279 12.0461 21.2608 11.6604L21.4612 11.9385C20.9342 12.32 20.4126 12.7237 19.9109 13.1383ZM23.0846 10.841L22.9025 10.5505C23.4591 10.1997 24.0341 9.8627 24.6116 9.54882L24.7747 9.85038C24.2037 10.1608 23.6351 10.494 23.0846 10.841ZM26.5245 8.97125L26.3811 8.65964C26.9775 8.3838 27.5907 8.12387 28.2037 7.88706L28.3268 8.20722C27.7206 8.44135 27.1142 8.69842 26.5245 8.97125ZM30.174 7.5618L30.0719 7.23427C30.6992 7.03767 31.3414 6.85908 31.9806 6.70352L32.0613 7.03691C31.4293 7.1908 30.7943 7.36737 30.174 7.5618ZM33.9785 6.63559L33.9194 6.29768C34.5663 6.184 35.226 6.08994 35.8803 6.01807L35.9175 6.35916C35.2705 6.4302 34.6182 6.52326 33.9785 6.63559Z" fill="#E6E6E6"/>
<path id="Vector_29" d="M37.8835 6.20714L37.8682 5.86437C38.211 5.84895 38.5583 5.83907 38.9004 5.83496L38.9045 6.17807C38.5661 6.18209 38.2226 6.19189 37.8835 6.20714Z" fill="#E6E6E6"/>
<path id="Vector_30" d="M10.079 35.2396L9.8345 34.9992L8.65474 36.2089L7.53728 34.9409L7.28076 35.1686L8.64208 36.7126L10.079 35.2396Z" fill="#E6E6E6"/>
<path id="Vector_31" d="M37.8043 7.44514L37.5645 7.19999L38.7711 6.0173L37.5063 4.89705L37.7334 4.63989L39.2736 6.0046L37.8043 7.44514Z" fill="#E6E6E6"/>
<path id="Vector_32" d="M89.0076 9.59955C88.7063 9.44062 88.4028 9.28444 88.0972 9.13099L88.2503 8.82422C88.5582 8.97861 88.8637 9.13583 89.167 9.29588L89.0076 9.59955Z" fill="#E6E6E6"/>
<path id="Vector_33" d="M112.264 72.9248L111.948 72.7946C112.205 72.1648 112.453 71.5222 112.684 70.8848L113.005 71.0018C112.773 71.6437 112.524 72.2907 112.264 72.9248ZM113.668 69.0501L113.341 68.9463C113.547 68.2984 113.741 67.6377 113.919 66.9824L114.25 67.0728C114.07 67.7325 113.874 68.3978 113.668 69.0501ZM114.75 65.0729L114.416 64.9963C114.568 64.3333 114.707 63.6587 114.831 62.9913L115.168 63.0541C115.043 63.726 114.902 64.4053 114.75 65.0729ZM115.502 61.0196L115.163 60.9708C115.26 60.298 115.343 59.6141 115.412 58.9382L115.752 58.973C115.683 59.6535 115.599 60.3422 115.502 61.0196ZM115.918 56.9176L115.577 56.8969C115.617 56.2188 115.645 55.5304 115.658 54.8506L116 54.8571C115.987 55.5415 115.959 56.2348 115.918 56.9176ZM115.997 52.795L115.654 52.8025C115.648 52.5041 115.639 52.206 115.627 51.9081C115.611 51.5261 115.592 51.1385 115.567 50.7561L115.909 50.7345C115.933 51.1195 115.953 51.5097 115.969 51.8943C115.981 52.1942 115.99 52.4945 115.997 52.795ZM115.397 48.7162C115.327 48.0402 115.241 47.3567 115.143 46.6847L115.482 46.635C115.581 47.3117 115.666 47.9999 115.737 48.6806L115.397 48.7162ZM114.807 44.6649C114.682 43.9975 114.541 43.3231 114.389 42.6604L114.723 42.5833C114.876 43.2505 115.018 43.9295 115.144 44.6016L114.807 44.6649ZM113.89 40.6745C113.711 40.0185 113.516 39.3577 113.311 38.7104L113.637 38.6064C113.844 39.2582 114.04 39.9235 114.22 40.584L113.89 40.6745ZM112.652 36.7715C112.42 36.1325 112.172 35.4897 111.915 34.8608L112.232 34.7305C112.491 35.3638 112.74 36.011 112.974 36.6543L112.652 36.7715ZM111.101 32.9815C110.818 32.3634 110.519 31.7428 110.211 31.1369L110.517 30.9813C110.826 31.5913 111.128 32.2161 111.412 32.8384L111.101 32.9815ZM109.247 29.3301C108.915 28.7373 108.567 28.1432 108.211 27.5643L108.502 27.3843C108.86 27.9671 109.212 28.5653 109.546 29.1622L109.247 29.3301ZM107.102 25.8423C106.723 25.2784 106.326 24.7147 105.924 24.1672L106.2 23.9638C106.605 24.5151 107.004 25.0826 107.386 25.6505L107.102 25.8423ZM104.679 22.5417C104.254 22.0104 103.813 21.4813 103.367 20.9689L103.625 20.7435C104.074 21.2594 104.518 21.7922 104.946 22.3271L104.679 22.5417ZM101.992 19.4515C101.525 18.957 101.042 18.4661 100.555 17.992L100.794 17.7461C101.284 18.2233 101.77 18.7177 102.241 19.2155L101.992 19.4515ZM99.0595 16.593C98.5535 16.139 98.0312 15.6895 97.507 15.257L97.7246 14.9921C98.2523 15.4276 98.7782 15.8803 99.2878 16.3374L99.0595 16.593ZM95.9005 13.9862C95.3608 13.577 94.8042 13.1727 94.2461 12.7846L94.4411 12.5027C95.0031 12.8934 95.5636 13.3005 96.107 13.7125L95.9005 13.9862ZM92.5438 11.6522C91.9727 11.2887 91.3849 10.9315 90.7969 10.5902L90.9683 10.2932C91.5604 10.6368 92.1522 10.9966 92.7272 11.3625L92.5438 11.6522Z" fill="#E6E6E6"/>
<path id="Vector_34" d="M111.006 75.7533L110.698 75.6042C110.847 75.2955 110.992 74.986 111.134 74.6758L111.445 74.8186C111.302 75.1309 111.156 75.4425 111.006 75.7533Z" fill="#E6E6E6"/>
<path id="Vector_35" d="M88.5257 10.7552L88.8486 10.6411L88.2861 9.04618L89.9142 8.60014L89.8235 8.26904L87.8408 8.81252L88.5257 10.7552Z" fill="#E6E6E6"/>
<path id="Vector_36" d="M110.048 74.0556L110.374 73.9482L110.9 75.5555L112.461 74.9119L112.591 75.2296L110.69 76.0132L110.048 74.0556Z" fill="#E6E6E6"/>
</g>
<defs>
<clipPath id="clip0_67_1198">
<rect width="116" height="107" fill="white"/>
</clipPath>
</defs>
</svg>
