<svg width="485" height="497" viewBox="0 0 485 497" fill="none" xmlns="http://www.w3.org/2000/svg">
<g clip-path="url(#clip0_72_1638)">
<path d="M304.858 471.044L290.177 496.494H319.539L304.858 471.044L290.177 496.494H319.539L304.858 471.044Z" fill="#F2F2F2"/>
<path d="M267.32 127.873V197.687C267.317 199.58 266.564 201.395 265.227 202.733C263.889 204.072 262.076 204.826 260.184 204.829H206.679L207.172 204.199C235.321 185.39 255.268 160.296 266.691 128.673L267.32 127.873Z" fill="#F2F2F2"/>
<path d="M321.539 58.3413H18.3167C13.4606 58.3472 8.80506 60.2805 5.37129 63.7171C1.93751 67.1538 0.00585565 71.8132 0 76.6734V258.96C0.00585565 263.82 1.93751 268.48 5.37129 271.916C8.80506 275.353 13.4606 277.286 18.3167 277.292H321.539C326.395 277.286 331.05 275.353 334.484 271.916C337.918 268.48 339.85 263.82 339.855 258.96V76.6734C339.85 71.8132 337.918 67.1538 334.484 63.7171C331.05 60.2805 326.395 58.3472 321.539 58.3413ZM338.241 258.96C338.241 261.155 337.81 263.329 336.97 265.358C336.131 267.386 334.901 269.229 333.35 270.781C331.799 272.334 329.958 273.565 327.931 274.405C325.904 275.245 323.732 275.677 321.539 275.676H18.3167C16.1232 275.677 13.9511 275.245 11.9245 274.405C9.89792 273.565 8.05651 272.334 6.50548 270.781C4.95446 269.229 3.7242 267.386 2.885 265.358C2.04579 263.329 1.61408 261.155 1.61452 258.96V185.737C1.61452 181.471 1.8217 177.256 2.23609 173.093C5.35277 142.072 19.875 113.318 42.9835 92.4116C66.092 71.5053 96.138 59.9386 127.288 59.9572H321.539C325.968 59.9577 330.216 61.719 333.348 64.8538C336.481 67.9886 338.24 72.2401 338.241 76.6734V258.96Z" fill="#E6E6E6"/>
<path d="M224.7 143.344H66.9861C65.694 143.344 64.4548 143.858 63.5412 144.772C62.6275 145.687 62.1143 146.927 62.1143 148.22C62.1143 149.513 62.6275 150.754 63.5412 151.668C64.4548 152.582 65.694 153.096 66.9861 153.096H224.7C225.992 153.096 227.231 152.582 228.145 151.668C229.058 150.754 229.572 149.513 229.572 148.22C229.572 146.927 229.058 145.687 228.145 144.772C227.231 143.858 225.992 143.344 224.7 143.344Z" fill="#E6E6E6"/>
<path d="M115.882 115.996H66.9862C65.693 115.996 64.4528 116.51 63.5384 117.425C62.6241 118.34 62.1104 119.581 62.1104 120.876C62.1104 122.17 62.6241 123.411 63.5384 124.326C64.4528 125.241 65.693 125.755 66.9862 125.755H115.882C117.175 125.755 118.415 125.241 119.33 124.326C120.244 123.411 120.758 122.17 120.758 120.876C120.758 119.581 120.244 118.34 119.33 117.425C118.415 116.51 117.175 115.996 115.882 115.996Z" fill="#E6E6E6"/>
<path d="M66.9861 143.344H91.1634C88.112 146.843 84.798 150.103 81.2503 153.096H66.9861C65.694 153.096 64.4548 152.582 63.5412 151.668C62.6275 150.754 62.1143 149.513 62.1143 148.22C62.1143 146.927 62.6275 145.687 63.5412 144.772C64.4548 143.858 65.694 143.344 66.9861 143.344Z" fill="#6C63FF"/>
<path d="M66.9862 115.996H107.793C106.49 119.336 104.989 122.595 103.297 125.755H66.9862C65.693 125.755 64.4528 125.241 63.5384 124.326C62.6241 123.411 62.1104 122.17 62.1104 120.876C62.1104 119.581 62.6241 118.34 63.5384 117.425C64.4528 116.51 65.693 115.996 66.9862 115.996Z" fill="#6C63FF"/>
<path d="M111.708 60.9186C83.4701 64.457 57.2665 77.4785 37.3814 97.8544C17.4962 118.23 5.10594 144.755 2.23609 173.093C1.48535 172.947 0.742677 172.777 0 172.6V76.6734C0.00585565 71.8132 1.93751 67.1538 5.37129 63.7171C8.80506 60.2805 13.4606 58.3472 18.3167 58.3413H111.062C111.297 59.1896 111.507 60.0541 111.708 60.9186Z" fill="#6C63FF"/>
<path d="M110.795 75.1455C119.216 75.1455 126.042 68.3135 126.042 59.8857C126.042 51.458 119.216 44.626 110.795 44.626C102.375 44.626 95.5483 51.458 95.5483 59.8857C95.5483 68.3135 102.375 75.1455 110.795 75.1455Z" fill="white"/>
<path d="M110.795 75.9531C107.62 75.9531 104.516 75.0108 101.876 73.2452C99.2361 71.4797 97.1784 68.9703 95.9633 66.0343C94.7482 63.0983 94.4302 59.8677 95.0497 56.7509C95.6691 53.634 97.1982 50.7711 99.4434 48.524C101.689 46.2769 104.549 44.7466 107.663 44.1266C110.778 43.5066 114.005 43.8248 116.939 45.041C119.872 46.2571 122.38 48.3165 124.144 50.9588C125.908 53.6011 126.849 56.7076 126.849 59.8855C126.845 64.1454 125.152 68.2295 122.142 71.2417C119.132 74.2539 115.052 75.9483 110.795 75.9531ZM110.795 45.4338C107.939 45.4338 105.148 46.2813 102.773 47.8693C100.399 49.4573 98.5478 51.7143 97.4549 54.355C96.362 56.9958 96.076 59.9015 96.6332 62.7049C97.1903 65.5082 98.5656 68.0833 100.585 70.1044C102.604 72.1255 105.177 73.5019 107.978 74.0595C110.779 74.6172 113.683 74.331 116.321 73.2372C118.96 72.1433 121.215 70.291 122.801 67.9144C124.388 65.5379 125.235 62.7438 125.235 59.8855C125.231 56.054 123.708 52.3806 121.001 49.6713C118.294 46.962 114.624 45.438 110.795 45.4338Z" fill="#3F3D56"/>
<path d="M108.715 67.8275C108.452 67.8275 108.192 67.7662 107.957 67.6483C107.721 67.5304 107.517 67.3593 107.359 67.1484L103.199 61.5975C103.065 61.4192 102.968 61.2163 102.913 61.0003C102.858 60.7844 102.845 60.5597 102.877 60.339C102.908 60.1184 102.983 59.9061 103.097 59.7143C103.21 59.5225 103.36 59.3549 103.538 59.2212C103.716 59.0874 103.919 58.9901 104.135 58.9348C104.351 58.8795 104.575 58.8673 104.796 58.8988C105.016 58.9303 105.228 59.005 105.42 59.1186C105.612 59.2322 105.779 59.3824 105.913 59.5607L108.634 63.192L115.623 52.6991C115.873 52.3253 116.261 52.0659 116.702 51.978C117.143 51.8902 117.6 51.9809 117.974 52.2304C118.348 52.4799 118.608 52.8677 118.696 53.3087C118.785 53.7496 118.695 54.2077 118.446 54.5823L110.127 67.0716C109.976 67.2975 109.774 67.4839 109.536 67.6154C109.299 67.7468 109.034 67.8194 108.762 67.827L108.715 67.8275Z" fill="#6C63FF"/>
<path d="M231.077 182.601C239.498 182.601 246.324 175.769 246.324 167.341C246.324 158.914 239.498 152.082 231.077 152.082C222.656 152.082 215.83 158.914 215.83 167.341C215.83 175.769 222.656 182.601 231.077 182.601Z" fill="white"/>
<path d="M231.077 183.409C227.901 183.409 224.797 182.466 222.157 180.701C219.517 178.935 217.46 176.426 216.245 173.49C215.029 170.554 214.711 167.323 215.331 164.206C215.95 161.09 217.479 158.227 219.725 155.98C221.97 153.732 224.83 152.202 227.945 151.582C231.059 150.962 234.287 151.28 237.22 152.497C240.154 153.713 242.661 155.772 244.425 158.414C246.189 161.057 247.131 164.163 247.131 167.341C247.126 171.601 245.433 175.685 242.423 178.697C239.414 181.709 235.333 183.404 231.077 183.409ZM231.077 152.889C228.221 152.889 225.429 153.737 223.054 155.325C220.68 156.913 218.829 159.17 217.736 161.811C216.643 164.451 216.357 167.357 216.914 170.16C217.472 172.964 218.847 175.539 220.866 177.56C222.886 179.581 225.459 180.957 228.26 181.515C231.061 182.073 233.964 181.787 236.602 180.693C239.241 179.599 241.496 177.747 243.083 175.37C244.669 172.993 245.516 170.199 245.516 167.341C245.512 163.51 243.989 159.836 241.282 157.127C238.575 154.418 234.905 152.894 231.077 152.889Z" fill="#E6E6E6"/>
<path d="M228.997 175.283C228.734 175.283 228.474 175.222 228.239 175.104C228.003 174.986 227.798 174.815 227.64 174.604L223.481 169.053C223.347 168.875 223.25 168.672 223.195 168.456C223.139 168.24 223.127 168.015 223.159 167.795C223.222 167.349 223.46 166.947 223.82 166.677C224.18 166.407 224.632 166.291 225.077 166.354C225.523 166.418 225.925 166.656 226.194 167.016L228.916 170.648L235.905 160.155C236.155 159.781 236.543 159.521 236.984 159.434C237.424 159.346 237.882 159.436 238.256 159.686C238.63 159.935 238.889 160.323 238.978 160.764C239.066 161.205 238.976 161.663 238.728 162.038L230.408 174.527C230.258 174.753 230.055 174.94 229.818 175.071C229.581 175.202 229.315 175.275 229.044 175.283L228.997 175.283Z" fill="#E6E6E6"/>
<path d="M190.007 7.54503C183.275 2.62063 175.148 -0.0228122 166.81 0.000148317C160.5 0.0739981 154.304 1.69541 148.766 4.72234C143.227 7.74927 138.515 12.0894 135.042 17.3623C134.451 18.266 135.743 19.3656 136.341 18.4523C140.572 12.0046 146.692 7.02317 153.861 4.18983C159.626 1.96638 165.858 1.22745 171.983 2.0408C178.108 2.85415 183.931 5.19373 188.918 8.84498C189.794 9.48953 190.888 8.19337 190.007 7.54503Z" fill="#E6E6E6"/>
<path d="M125.523 11.4537L121.742 25.5144C121.719 25.6428 121.726 25.7746 121.763 25.8998C121.799 26.025 121.863 26.1403 121.951 26.2366C122.039 26.333 122.147 26.408 122.268 26.4558C122.39 26.5036 122.52 26.523 122.65 26.5124L138.473 23.9764C139.544 23.8048 139.404 22.1135 138.325 22.2864L122.502 24.8225L123.41 25.8205L127.191 11.7598C127.475 10.7039 125.805 10.4063 125.523 11.4537Z" fill="#E6E6E6"/>
<path d="M134.14 199.517C140.872 204.441 148.999 207.085 157.337 207.062C163.647 206.988 169.843 205.367 175.381 202.34C180.92 199.313 185.632 194.973 189.105 189.7C189.696 188.796 188.404 187.696 187.807 188.61C183.575 195.057 177.456 200.039 170.286 202.872C164.521 205.096 158.289 205.835 152.164 205.021C146.039 204.208 140.216 201.868 135.229 198.217C134.353 197.573 133.259 198.869 134.14 199.517Z" fill="#E6E6E6"/>
<path d="M198.624 195.608L202.405 181.548C202.428 181.419 202.421 181.287 202.384 181.162C202.348 181.037 202.284 180.922 202.196 180.825C202.108 180.729 202 180.654 201.879 180.606C201.757 180.558 201.627 180.539 201.497 180.55L185.674 183.086C184.603 183.257 184.743 184.949 185.822 184.776L201.645 182.24L200.737 181.242L196.956 195.302C196.672 196.358 198.342 196.656 198.624 195.608Z" fill="#E6E6E6"/>
<path d="M332.897 40.7416H272.432C270.488 40.7416 268.624 39.9688 267.25 38.5932C265.875 37.2177 265.103 35.352 265.103 33.4067C265.103 31.4613 265.875 29.5957 267.25 28.2201C268.624 26.8446 270.488 26.0718 272.432 26.0718H332.897C334.841 26.0718 336.705 26.8446 338.079 28.2201C339.454 29.5957 340.226 31.4613 340.226 33.4067C340.226 35.352 339.454 37.2177 338.079 38.5932C336.705 39.9688 334.841 40.7416 332.897 40.7416Z" fill="#F2F2F2"/>
<path d="M331.507 33.4067L334.393 30.5186C334.475 30.4373 334.54 30.3406 334.584 30.2341C334.629 30.1275 334.652 30.0132 334.652 29.8977C334.652 29.7822 334.63 29.6678 334.586 29.5611C334.542 29.4543 334.477 29.3573 334.396 29.2756C334.314 29.194 334.217 29.1292 334.11 29.0852C334.004 29.0411 333.889 29.0185 333.774 29.0188C333.659 29.0191 333.544 29.0421 333.438 29.0867C333.332 29.1313 333.235 29.1964 333.154 29.2785L330.268 32.1665L327.382 29.2785C327.301 29.1964 327.205 29.1313 327.098 29.0867C326.992 29.0421 326.877 29.0191 326.762 29.0188C326.647 29.0185 326.532 29.0411 326.426 29.0852C326.319 29.1292 326.222 29.194 326.14 29.2756C326.059 29.3573 325.994 29.4543 325.95 29.5611C325.906 29.6678 325.884 29.7822 325.884 29.8977C325.884 30.0132 325.907 30.1275 325.952 30.2341C325.996 30.3406 326.061 30.4373 326.143 30.5186L329.029 33.4067L326.164 36.2743C326.082 36.3556 326.017 36.4523 325.972 36.5588C325.928 36.6654 325.905 36.7797 325.904 36.8952C325.904 37.0107 325.927 37.1251 325.971 37.2318C326.015 37.3386 326.079 37.4356 326.161 37.5173C326.243 37.5989 326.339 37.6637 326.446 37.7077C326.553 37.7518 326.667 37.7744 326.782 37.7741C326.898 37.7739 327.012 37.7508 327.119 37.7062C327.225 37.6617 327.322 37.5965 327.403 37.5145L330.268 34.6469L333.133 37.5145C333.298 37.6777 333.52 37.769 333.752 37.7685C333.984 37.768 334.206 37.6756 334.37 37.5117C334.533 37.3477 334.626 37.1254 334.626 36.8935C334.627 36.6617 334.535 36.439 334.372 36.2743L331.507 33.4067Z" fill="white"/>
<path d="M236.85 262.786C236.743 262.786 236.636 262.764 236.537 262.723C236.438 262.681 236.348 262.62 236.273 262.543L231.667 257.83C231.519 257.679 231.437 257.476 231.437 257.265C231.437 257.054 231.519 256.851 231.667 256.7L236.273 251.988C236.347 251.911 236.435 251.849 236.533 251.807C236.631 251.764 236.736 251.741 236.843 251.739C236.949 251.738 237.055 251.757 237.154 251.797C237.254 251.836 237.344 251.895 237.42 251.97C237.496 252.044 237.557 252.133 237.599 252.232C237.64 252.33 237.662 252.435 237.663 252.542C237.664 252.649 237.643 252.755 237.603 252.854C237.562 252.952 237.503 253.042 237.427 253.118L233.373 257.265L237.427 261.413C237.538 261.527 237.613 261.671 237.643 261.827C237.673 261.983 237.656 262.145 237.594 262.291C237.533 262.438 237.429 262.563 237.297 262.651C237.164 262.739 237.009 262.786 236.85 262.786Z" fill="#3F3D56"/>
<path d="M244.59 262.786C244.432 262.786 244.276 262.739 244.144 262.651C244.011 262.563 243.908 262.438 243.846 262.291C243.785 262.145 243.768 261.983 243.797 261.827C243.827 261.671 243.902 261.527 244.013 261.413L248.067 257.265L244.013 253.118C243.866 252.964 243.785 252.758 243.789 252.546C243.792 252.333 243.879 252.13 244.031 251.981C244.184 251.832 244.388 251.749 244.601 251.751C244.814 251.752 245.017 251.837 245.167 251.988L249.773 256.7C249.921 256.851 250.004 257.054 250.004 257.265C250.004 257.476 249.921 257.679 249.773 257.83L245.167 262.543C245.092 262.62 245.003 262.681 244.904 262.723C244.804 262.764 244.698 262.786 244.59 262.786Z" fill="#3F3D56"/>
<path d="M260.109 177.81C260.54 176.626 261.225 175.551 262.117 174.66C263.008 173.77 264.083 173.086 265.267 172.656C266.451 172.227 267.715 172.062 268.969 172.174C270.223 172.286 271.438 172.672 272.527 173.305L348.677 153.333L349.926 169.034L275.414 185.667C274.231 187.428 272.443 188.693 270.39 189.223C268.337 189.753 266.161 189.511 264.275 188.542C262.388 187.574 260.922 185.946 260.155 183.969C259.387 181.991 259.371 179.799 260.109 177.81Z" fill="#A0616A"/>
<path d="M374.916 150.162C373.104 147.55 370.573 145.522 367.63 144.325C364.687 143.127 361.46 142.812 358.341 143.418L330.339 148.854C330.339 148.854 339.979 181.152 352.187 180.438C357.332 180.138 363.843 177.113 369.654 173.713C371.614 172.576 373.316 171.045 374.656 169.217C375.995 167.388 376.941 165.302 377.436 163.09C377.93 160.878 377.961 158.587 377.528 156.362C377.094 154.137 376.205 152.026 374.916 150.162Z" fill="#3F3D56"/>
<path d="M346.87 480.056L339.45 479.994L336.166 450.683L347.116 450.775L346.87 480.056Z" fill="#A0616A"/>
<path d="M350.22 495.079L348.84 476.634L346.903 476.505L339 475.964L336.457 475.794L336.408 481.102L324.558 489.149C324.038 489.502 323.63 489.996 323.379 490.572C323.129 491.149 323.047 491.784 323.144 492.406C323.24 493.027 323.511 493.608 323.924 494.081C324.337 494.554 324.876 494.9 325.478 495.079C325.776 495.171 326.086 495.217 326.398 495.217L341.147 495.338L341.276 495.079L343.73 490.103L344.626 495.079L344.675 495.37L350.245 495.419L350.22 495.079Z" fill="#2F2E41"/>
<path d="M424.989 474.63L417.896 476.812L405.925 449.861L416.392 446.641L424.989 474.63Z" fill="#A0616A"/>
<path d="M425.836 470.777L423.947 471.237L416.254 473.104H416.246L413.776 473.71L415.334 478.792L406.462 490.038C406.08 490.529 405.842 491.117 405.777 491.737C405.712 492.356 405.821 492.981 406.093 493.541C406.364 494.101 406.787 494.574 407.313 494.906C407.839 495.238 408.448 495.415 409.069 495.419C409.398 495.418 409.724 495.369 410.038 495.273L410.668 495.08L424.141 490.935L425.021 485.158L427.515 489.893L432.835 488.252L425.836 470.777Z" fill="#2F2E41"/>
<path d="M331.945 233.592L317.786 274.776L317.318 278.072C313.751 281.462 318.232 282.579 316.552 283.473C314.871 284.367 313.741 286.873 316.006 287.321C318.271 287.769 325.572 448.402 335.203 454.639C344.834 460.876 350.695 465.387 348.926 456.255C348.214 452.575 349.222 432.847 350.68 410.6C350.845 408.079 353.455 405.41 351.191 402.959C348.926 400.507 351.47 398.894 351.612 396.86C353.644 367.809 355.989 339.128 355.989 339.128C355.989 339.128 370.999 390.72 374.897 386.727C378.795 382.733 377.252 392.566 378.443 395.504C379.439 397.96 375.192 402.783 381.433 402.857C387.675 402.931 402.333 453.08 403.82 453.023C406.766 452.911 415.047 453.228 419.965 452.215C422.394 451.715 411.614 413.747 402.612 380.961C401.894 378.346 397.987 378.286 400.5 373.238C403.013 368.19 390.511 335.528 391.584 334.017C394.431 330.008 395.515 328.265 392.707 328.002C389.899 327.74 389.069 329.282 388.918 325.392C388.766 321.503 388.281 311.912 388.281 311.912C388.281 311.912 386.247 273.98 372.002 253.023L370.787 240.571L331.945 233.592Z" fill="#2F2E41"/>
<path d="M332.591 234.474C320.32 236.258 300.252 247.147 314.205 223.163L328.875 186.542C318.125 178.188 327.157 162.752 336.166 147.325L357.083 126.39H375.255L380.06 144.682C386 157.484 386.757 172.09 382.175 185.439C379.185 194.135 386.533 213.007 385.062 214.415C381.833 217.507 376.183 213.741 381.833 219.664C387.484 225.587 388.616 227.482 386.435 229.766C384.255 232.05 379.412 239.322 379.412 239.322L372.002 253.023L332.591 234.474Z" fill="#3F3D56"/>
<path d="M370.526 122.093C381.186 117.944 386.467 105.932 382.321 95.2635C378.176 84.5948 366.174 79.3095 355.514 83.4584C344.854 87.6073 339.573 99.6194 343.719 110.288C347.864 120.957 359.866 126.242 370.526 122.093Z" fill="#A0616A"/>
<path d="M390.884 129.705C393.7 133.739 395.583 138.349 396.398 143.202C394.129 144.655 391.487 145.418 388.793 145.399C388.702 145.046 388.61 144.693 388.506 144.339C387.725 141.605 386.564 138.994 385.056 136.584C385.263 139.183 384.911 141.796 384.024 144.248C382.6 143.6 381.074 143.207 379.516 143.084C378.246 143.084 376.993 143.379 375.857 143.947C374.537 139.566 373.322 135.538 372.459 132.648C372.433 139.893 361.823 146.21 350.245 145.294C349.827 145.033 354.022 133.118 353.617 132.844C352.689 132.229 351.787 131.562 350.885 130.908C354.675 125.049 358.791 118.772 358.085 117.83C358.138 118.994 353.982 124.592 349.461 129.875C346.952 128.031 361.209 98.03 354.165 95.5975C354.048 96.6568 352.493 96.6568 350.598 96.4345C350.098 94.6867 349.355 93.018 348.39 91.4778C348.515 93.0293 348.329 94.5902 347.841 96.0683C345.97 96.0688 344.104 96.2661 342.274 96.6568C341.851 95.9901 341.384 95.3522 340.876 94.7474C340.926 95.4845 340.904 96.2247 340.811 96.9576C338.942 97.363 337.4 97.8338 337.178 98.2131C335.715 97.6769 338.21 95.2574 337.296 94.0019C334.97 90.8632 338.42 86.2859 340.602 83.0425C345.084 76.3989 354.923 74.0971 361.888 78.0859C362.202 77.0004 363.809 76.2811 365.874 75.7972C366.748 75.6042 367.644 75.5207 368.539 75.5487C377.425 75.7057 389.76 83.0425 390.244 91.9226C390.283 92.8118 390.348 93.7796 390.414 94.8128C391.041 104.752 390.27 113.92 397.052 121.191C399.508 123.82 399.534 136.27 398.594 142.679C396.15 140.102 394.412 130.084 390.884 129.705Z" fill="#2F2E41"/>
<path d="M441.199 482.996C441.574 483.013 441.946 482.915 442.263 482.714C442.581 482.512 442.829 482.219 442.973 481.872C443.118 481.525 443.153 481.142 443.073 480.775C442.994 480.407 442.803 480.073 442.527 479.818L442.401 479.319C442.418 479.279 442.435 479.239 442.451 479.199C442.829 478.305 443.463 477.543 444.272 477.009C445.081 476.474 446.03 476.191 447 476.195C447.969 476.198 448.916 476.489 449.722 477.029C450.527 477.57 451.155 478.336 451.526 479.233C453.01 482.81 454.9 486.394 455.365 490.177C455.57 491.849 455.484 493.544 455.11 495.186C458.596 487.576 460.406 479.304 460.417 470.932C460.418 468.831 460.302 466.731 460.068 464.643C459.875 462.932 459.608 461.232 459.265 459.545C457.397 450.39 453.385 441.809 447.56 434.507C444.74 432.968 442.46 430.6 441.027 427.724C440.507 426.69 440.14 425.586 439.937 424.446C440.255 424.488 441.136 419.64 440.896 419.343C441.34 418.67 442.133 418.335 442.617 417.678C445.024 414.411 448.341 414.982 450.073 419.421C453.772 421.29 453.808 424.388 451.538 427.369C450.094 429.265 449.896 431.83 448.629 433.86C448.759 434.027 448.895 434.189 449.025 434.356C451.408 437.423 453.485 440.716 455.225 444.188C454.802 440.298 455.307 436.363 456.7 432.707C458.111 429.3 460.756 426.43 463.086 423.484C463.702 422.693 464.538 422.102 465.49 421.787C466.441 421.472 467.465 421.445 468.431 421.712C469.397 421.979 470.263 422.526 470.919 423.285C471.574 424.044 471.99 424.98 472.114 425.976C472.119 426.019 472.123 426.062 472.128 426.106C471.782 426.301 471.443 426.509 471.112 426.728C470.696 427.006 470.373 427.404 470.187 427.869C470 428.334 469.958 428.845 470.066 429.334C470.175 429.823 470.428 430.268 470.793 430.611C471.159 430.953 471.619 431.177 472.114 431.254L472.164 431.262C472.041 432.51 471.823 433.746 471.513 434.961C474.501 446.528 468.05 450.74 458.838 450.93C458.634 451.034 458.436 451.138 458.233 451.237C459.982 456.199 461.079 461.366 461.497 466.611C461.733 469.705 461.719 472.813 461.455 475.905L461.471 475.795C462.138 472.357 463.971 469.255 466.659 467.013C470.651 463.73 476.291 462.521 480.599 459.883C481.056 459.589 481.588 459.432 482.132 459.431C482.676 459.429 483.209 459.584 483.669 459.876C484.128 460.167 484.494 460.585 484.724 461.078C484.954 461.571 485.038 462.12 484.967 462.66L484.949 462.775C484.307 463.037 483.682 463.338 483.077 463.678C482.731 463.873 482.393 464.081 482.061 464.3C481.645 464.578 481.322 464.976 481.136 465.441C480.949 465.906 480.907 466.417 481.016 466.906C481.124 467.395 481.377 467.84 481.743 468.183C482.108 468.525 482.568 468.75 483.063 468.826L483.114 468.834C483.15 468.839 483.182 468.844 483.218 468.849C482.121 471.471 480.581 473.884 478.666 475.983C476.798 486.08 468.773 487.038 460.188 484.097H460.183C459.241 488.194 457.876 492.181 456.111 495.995H441.564C441.512 495.833 441.465 495.667 441.418 495.505C442.764 495.589 444.116 495.509 445.443 495.265C444.364 493.939 443.284 492.603 442.205 491.278C442.181 491.253 442.158 491.227 442.137 491.2C441.59 490.521 441.037 489.848 440.49 489.17L440.489 489.169C440.46 487.089 440.699 485.015 441.199 482.996Z" fill="#F2F2F2"/>
<path d="M278.495 496.039C278.495 496.165 278.519 496.29 278.567 496.407C278.616 496.524 278.686 496.63 278.776 496.719C278.865 496.809 278.971 496.879 279.088 496.928C279.204 496.976 279.33 497 279.456 497H483.926C484.181 497 484.425 496.899 484.605 496.718C484.786 496.538 484.887 496.294 484.887 496.039C484.887 495.784 484.786 495.539 484.605 495.359C484.425 495.178 484.181 495.077 483.926 495.077H279.456C279.33 495.077 279.204 495.101 279.088 495.15C278.971 495.198 278.865 495.269 278.776 495.358C278.686 495.447 278.616 495.553 278.568 495.67C278.519 495.787 278.495 495.912 278.495 496.039Z" fill="#CCCCCC"/>
<path d="M375.968 288.597L333.627 327.917L278.433 310.879L265.58 254.519L307.92 215.199L363.115 232.237L375.968 288.597Z" fill="#F2F2F2"/>
<path d="M305.576 259.414C304.955 258.318 304.582 257.098 304.484 255.842C304.385 254.585 304.563 253.322 305.004 252.142C305.446 250.962 306.141 249.893 307.04 249.01C307.939 248.128 309.021 247.454 310.208 247.035L344.44 176.086L357.188 185.324L321.48 252.858C322.05 254.902 321.852 257.084 320.923 258.991C319.994 260.898 318.398 262.398 316.437 263.206C314.477 264.014 312.288 264.075 310.286 263.376C308.285 262.677 306.608 261.267 305.576 259.414Z" fill="#A0616A"/>
<path d="M359.057 154.047C355.896 153.732 352.712 154.344 349.892 155.808C347.072 157.272 344.738 159.525 343.174 162.293L329.137 187.144C329.137 187.144 359.945 200.762 367.325 191.003C370.435 186.89 372.36 179.969 373.547 173.337C373.954 171.107 373.895 168.817 373.374 166.611C372.853 164.404 371.882 162.33 370.521 160.518C369.16 158.706 367.439 157.196 365.466 156.082C363.493 154.968 361.311 154.275 359.057 154.047Z" fill="#3F3D56"/>
<path d="M271.357 144.84V214.654C271.354 216.547 270.601 218.362 269.263 219.7C267.926 221.039 266.112 221.792 264.221 221.796H210.716L211.208 221.166C239.357 202.357 259.305 177.262 270.727 145.64L271.357 144.84Z" fill="#6C63FF"/>
<path d="M45.729 195.941L31.0474 221.391H60.4097L45.729 195.941L31.0474 221.391H60.4097L45.729 195.941Z" fill="#F2F2F2"/>
<path d="M156.844 315.84C183.74 315.84 205.544 294.018 205.544 267.099C205.544 240.18 183.74 218.358 156.844 218.358C129.948 218.358 108.145 240.18 108.145 267.099C108.145 294.018 129.948 315.84 156.844 315.84Z" fill="#F2F2F2"/>
</g>
<defs>
<clipPath id="clip0_72_1638">
<rect width="485" height="497" fill="white"/>
</clipPath>
</defs>
</svg>
