<svg width="337" height="303" viewBox="0 0 337 303" fill="none" xmlns="http://www.w3.org/2000/svg">
<g clip-path="url(#clip0_72_1597)">
<path d="M172.589 0.660938L161.624 3.49378L26.5277 38.395L15.5623 41.2278C10.2399 42.6093 5.68173 46.0494 2.88792 50.7934C0.0941123 55.5374 -0.707203 61.1979 0.659775 66.533L48.2081 251.247C49.5871 256.579 53.021 261.145 57.7564 263.944C62.4919 266.743 68.1422 267.546 73.4678 266.176L73.4961 266.169L230.466 225.617L230.494 225.609C235.817 224.228 240.375 220.788 243.169 216.044C245.963 211.3 246.764 205.639 245.397 200.304L197.849 15.5904C196.47 10.2584 193.036 5.692 188.3 2.89314C183.565 0.0942835 177.914 -0.708493 172.589 0.660938Z" fill="#F2F2F2"/>
<path d="M174.08 6.45189L161.092 9.8072L30.0404 43.6636L17.0529 47.0188C13.2626 48.0026 10.0166 50.4523 8.02709 53.8307C6.03754 57.209 5.46689 61.24 6.44035 65.0392L53.9887 249.753C54.9707 253.55 57.416 256.802 60.7883 258.795C64.1605 260.788 68.1842 261.36 71.9767 260.385L72.005 260.377L228.975 219.825L229.003 219.818C232.794 218.834 236.04 216.384 238.029 213.006C240.019 209.627 240.589 205.596 239.616 201.797L192.067 17.0835C191.085 13.2865 188.64 10.0347 185.268 8.04156C181.896 6.04843 177.872 5.47673 174.08 6.45189Z" fill="white"/>
<path d="M164.273 66.267L84.8656 86.7814C83.9787 87.0105 83.0373 86.8773 82.2484 86.4111C81.4596 85.9448 80.8879 85.1837 80.6592 84.2953C80.4305 83.4068 80.5635 82.4636 81.0289 81.6734C81.4943 80.8831 82.254 80.3104 83.1409 80.0813L162.548 59.5669C163.435 59.3386 164.375 59.4724 165.164 59.9387C165.952 60.4051 166.523 61.1658 166.752 62.0538C166.98 62.9418 166.848 63.8843 166.383 64.6744C165.918 65.4644 165.159 66.0372 164.273 66.267Z" fill="#F2F2F2"/>
<path d="M180.977 74.0099L87.7758 98.088C86.8889 98.3172 85.9475 98.1839 85.1586 97.7177C84.3697 97.2514 83.7981 96.4904 83.5694 95.6019C83.3407 94.7134 83.4736 93.7702 83.939 92.98C84.4044 92.1897 85.1642 91.617 86.0511 91.3879L179.253 67.3098C180.139 67.0807 181.081 67.2139 181.87 67.6801C182.659 68.1464 183.23 68.9075 183.459 69.796C183.688 70.6844 183.555 71.6276 183.089 72.4179C182.624 73.2081 181.864 73.7808 180.977 74.0099Z" fill="#F2F2F2"/>
<path d="M177.316 116.937L97.9086 137.451C97.4694 137.565 97.0123 137.591 96.5632 137.527C96.1142 137.463 95.682 137.312 95.2914 137.081C94.9008 136.85 94.5594 136.544 94.2867 136.181C94.0141 135.818 93.8154 135.405 93.7022 134.965C93.5889 134.525 93.5633 134.067 93.6267 133.617C93.6901 133.168 93.8414 132.735 94.0718 132.343C94.3023 131.952 94.6074 131.61 94.9698 131.337C95.3322 131.064 95.7447 130.865 96.1839 130.751L175.591 110.237C176.03 110.123 176.487 110.098 176.936 110.161C177.386 110.225 177.818 110.376 178.208 110.607C178.599 110.838 178.94 111.144 179.213 111.507C179.486 111.87 179.684 112.283 179.798 112.723C179.911 113.163 179.936 113.621 179.873 114.071C179.81 114.521 179.658 114.954 179.428 115.345C179.197 115.736 178.892 116.078 178.53 116.351C178.168 116.625 177.755 116.823 177.316 116.937Z" fill="#F2F2F2"/>
<path d="M194.021 124.68L100.819 148.758C100.38 148.871 99.9229 148.897 99.4739 148.833C99.0248 148.77 98.5927 148.618 98.2021 148.387C97.8115 148.157 97.4701 147.851 97.1974 147.488C96.9247 147.125 96.7261 146.711 96.6128 146.272C96.4996 145.832 96.4739 145.374 96.5374 144.924C96.6008 144.474 96.752 144.041 96.9825 143.65C97.2129 143.258 97.518 142.916 97.8804 142.643C98.2428 142.37 98.6554 142.171 99.0945 142.058L192.296 117.979C193.183 117.75 194.124 117.884 194.913 118.35C195.702 118.816 196.274 119.577 196.502 120.466C196.731 121.354 196.598 122.297 196.133 123.088C195.667 123.878 194.908 124.451 194.021 124.68Z" fill="#F2F2F2"/>
<path d="M190.359 167.607L110.952 188.121C110.065 188.349 109.124 188.216 108.336 187.75C107.547 187.283 106.976 186.522 106.748 185.634C106.519 184.746 106.652 183.804 107.117 183.013C107.582 182.223 108.341 181.651 109.227 181.421L188.634 160.906C189.521 160.677 190.463 160.811 191.251 161.277C192.04 161.743 192.612 162.504 192.841 163.393C193.069 164.281 192.936 165.224 192.471 166.015C192.006 166.805 191.246 167.378 190.359 167.607Z" fill="#F2F2F2"/>
<path d="M207.064 175.35L113.862 199.428C113.423 199.542 112.966 199.568 112.516 199.504C112.067 199.441 111.634 199.29 111.243 199.059C110.852 198.828 110.511 198.522 110.238 198.159C109.965 197.796 109.766 197.382 109.653 196.942C109.54 196.502 109.514 196.044 109.578 195.594C109.641 195.144 109.793 194.71 110.023 194.319C110.254 193.928 110.56 193.586 110.922 193.312C111.285 193.039 111.698 192.841 112.138 192.727L205.339 168.649C206.226 168.42 207.167 168.554 207.956 169.02C208.745 169.486 209.317 170.247 209.545 171.136C209.774 172.024 209.641 172.967 209.176 173.757C208.71 174.548 207.951 175.12 207.064 175.35Z" fill="#F2F2F2"/>
<path d="M71.3092 107.816L43.2077 115.076C42.7824 115.185 42.3313 115.121 41.9531 114.897C41.575 114.674 41.3008 114.309 41.1907 113.884L34.7401 88.8243C34.6309 88.3983 34.6949 87.9463 34.918 87.5675C35.141 87.1887 35.505 86.914 35.93 86.8037L64.0315 79.5439C64.4567 79.4345 64.9079 79.4986 65.286 79.7221C65.6642 79.9456 65.9384 80.3102 66.0485 80.736L72.4991 105.795C72.6083 106.221 72.5443 106.673 72.3212 107.052C72.0982 107.431 71.7342 107.706 71.3092 107.816Z" fill="#E6E6E6"/>
<path d="M84.3526 158.486L56.2512 165.746C55.8259 165.855 55.3747 165.791 54.9966 165.567C54.6185 165.344 54.3443 164.979 54.2342 164.554L47.7835 139.494C47.6743 139.068 47.7383 138.616 47.9614 138.237C48.1845 137.859 48.5485 137.584 48.9735 137.474L77.0749 130.214C77.5002 130.104 77.9514 130.169 78.3295 130.392C78.7076 130.615 78.9818 130.98 79.0919 131.406L85.5426 156.465C85.6517 156.891 85.5878 157.343 85.3647 157.722C85.1416 158.101 84.7776 158.375 84.3526 158.486Z" fill="#E6E6E6"/>
<path d="M97.3961 209.156L69.2946 216.416C68.8694 216.525 68.4182 216.461 68.0401 216.237C67.6619 216.014 67.3877 215.649 67.2776 215.223L60.827 190.164C60.7178 189.738 60.7818 189.286 61.0049 188.907C61.228 188.529 61.5919 188.254 62.0169 188.144L90.1184 180.884C90.5437 180.774 90.9948 180.838 91.373 181.062C91.7511 181.285 92.0253 181.65 92.1354 182.076L98.5861 207.135C98.6952 207.561 98.6312 208.013 98.4082 208.392C98.1851 208.771 97.8211 209.045 97.3961 209.156Z" fill="#E6E6E6"/>
<path d="M282.106 47.4832H119.943C114.445 47.4894 109.173 49.6802 105.285 53.575C101.398 57.4698 99.2108 62.7506 99.2046 68.2587V259.015C99.2108 264.524 101.398 269.804 105.285 273.699C109.173 277.594 114.445 279.785 119.943 279.791H282.106C287.605 279.785 292.876 277.594 296.764 273.699C300.652 269.804 302.838 264.524 302.845 259.015V68.2587C302.838 62.7506 300.652 57.4698 296.764 53.575C292.876 49.6802 287.605 47.4894 282.106 47.4832Z" fill="#E6E6E6"/>
<path d="M282.107 53.4639H119.943C116.028 53.4683 112.274 55.0284 109.505 57.802C106.737 60.5756 105.179 64.3361 105.175 68.2586V259.015C105.179 262.938 106.737 266.698 109.505 269.472C112.274 272.245 116.028 273.806 119.943 273.81H282.107C286.022 273.806 289.776 272.245 292.545 269.472C295.313 266.698 296.87 262.938 296.875 259.015V68.2586C296.87 64.3361 295.313 60.5756 292.545 57.802C289.776 55.0285 286.022 53.4683 282.107 53.4639Z" fill="white"/>
<path d="M299.143 303C320.051 303 337 286.02 337 265.075C337 244.13 320.051 227.15 299.143 227.15C278.236 227.15 261.287 244.13 261.287 265.075C261.287 286.02 278.236 303 299.143 303Z" fill="#6C63FF"/>
<path d="M317.249 260.128H304.081V246.937C304.081 245.625 303.561 244.367 302.635 243.439C301.709 242.512 300.453 241.99 299.143 241.99C297.834 241.99 296.578 242.512 295.652 243.439C294.726 244.367 294.205 245.625 294.205 246.937V260.128H281.038C279.728 260.128 278.472 260.65 277.546 261.577C276.62 262.505 276.1 263.763 276.1 265.075C276.1 266.387 276.62 267.645 277.546 268.573C278.472 269.501 279.728 270.022 281.038 270.022H294.205V283.213C294.205 284.525 294.726 285.783 295.652 286.711C296.578 287.639 297.834 288.16 299.143 288.16C300.453 288.16 301.709 287.639 302.635 286.711C303.561 285.783 304.081 284.525 304.081 283.213V270.022H317.249C318.558 270.022 319.814 269.501 320.74 268.573C321.666 267.645 322.186 266.387 322.186 265.075C322.186 263.763 321.666 262.505 320.74 261.577C319.814 260.65 318.558 260.128 317.249 260.128Z" fill="white"/>
<path d="M257.701 158.284H175.696C175.242 158.285 174.793 158.196 174.373 158.022C173.954 157.848 173.573 157.594 173.252 157.272C172.931 156.951 172.676 156.57 172.502 156.15C172.328 155.73 172.239 155.279 172.239 154.825C172.239 154.37 172.328 153.92 172.502 153.5C172.676 153.08 172.931 152.698 173.252 152.377C173.573 152.056 173.954 151.801 174.373 151.627C174.793 151.454 175.242 151.364 175.696 151.365H257.701C258.616 151.366 259.494 151.731 260.141 152.38C260.788 153.028 261.151 153.908 261.151 154.825C261.151 155.742 260.788 156.621 260.141 157.27C259.494 157.918 258.616 158.283 257.701 158.284Z" fill="#E6E6E6"/>
<path d="M271.947 169.961H175.696C175.242 169.961 174.793 169.872 174.373 169.699C173.954 169.525 173.573 169.27 173.252 168.949C172.931 168.628 172.676 168.246 172.502 167.826C172.328 167.406 172.239 166.956 172.239 166.501C172.239 166.047 172.328 165.596 172.502 165.176C172.676 164.756 172.931 164.375 173.252 164.053C173.573 163.732 173.954 163.477 174.373 163.304C174.793 163.13 175.242 163.041 175.696 163.042H271.947C272.863 163.042 273.741 163.406 274.389 164.055C275.036 164.704 275.4 165.584 275.4 166.501C275.4 167.419 275.036 168.299 274.389 168.948C273.741 169.596 272.863 169.961 271.947 169.961Z" fill="#E6E6E6"/>
<path d="M257.701 210.612H175.696C175.242 210.613 174.793 210.523 174.373 210.35C173.954 210.176 173.573 209.921 173.252 209.6C172.931 209.279 172.676 208.897 172.502 208.477C172.328 208.057 172.239 207.607 172.239 207.152C172.239 206.698 172.328 206.247 172.502 205.827C172.676 205.407 172.931 205.026 173.252 204.705C173.573 204.383 173.954 204.129 174.373 203.955C174.793 203.781 175.242 203.692 175.696 203.693H257.701C258.617 203.693 259.496 204.057 260.143 204.706C260.791 205.355 261.155 206.235 261.155 207.152C261.155 208.07 260.791 208.95 260.143 209.599C259.496 210.247 258.617 210.612 257.701 210.612Z" fill="#E6E6E6"/>
<path d="M271.947 222.288H175.696C175.242 222.289 174.793 222.2 174.373 222.026C173.954 221.852 173.573 221.598 173.252 221.276C172.931 220.955 172.676 220.573 172.502 220.153C172.328 219.733 172.239 219.283 172.239 218.829C172.239 218.374 172.328 217.924 172.502 217.504C172.676 217.084 172.931 216.702 173.252 216.381C173.573 216.06 173.954 215.805 174.373 215.631C174.793 215.458 175.242 215.368 175.696 215.369H271.947C272.401 215.368 272.85 215.458 273.269 215.631C273.689 215.805 274.07 216.06 274.391 216.381C274.712 216.702 274.967 217.084 275.141 217.504C275.315 217.924 275.404 218.374 275.404 218.829C275.404 219.283 275.315 219.733 275.141 220.153C274.967 220.573 274.712 220.955 274.391 221.276C274.07 221.598 273.689 221.852 273.269 222.026C272.85 222.2 272.401 222.289 271.947 222.288Z" fill="#E6E6E6"/>
<path d="M157.326 175.261H128.305C127.866 175.261 127.445 175.086 127.135 174.775C126.825 174.464 126.65 174.042 126.649 173.602V147.723C126.65 147.284 126.825 146.862 127.135 146.551C127.445 146.24 127.866 146.065 128.305 146.064H157.326C157.765 146.065 158.186 146.24 158.497 146.551C158.807 146.862 158.982 147.284 158.982 147.723V173.602C158.982 174.042 158.807 174.464 158.497 174.775C158.186 175.086 157.765 175.261 157.326 175.261Z" fill="#E6E6E6"/>
<path d="M157.326 227.589H128.305C127.866 227.589 127.445 227.414 127.135 227.103C126.825 226.792 126.65 226.37 126.649 225.93V200.051C126.65 199.611 126.825 199.19 127.135 198.879C127.445 198.568 127.866 198.393 128.305 198.392H157.326C157.765 198.393 158.186 198.568 158.497 198.879C158.807 199.19 158.982 199.611 158.982 200.051V225.93C158.982 226.37 158.807 226.792 158.497 227.103C158.186 227.414 157.765 227.589 157.326 227.589Z" fill="#E6E6E6"/>
<path d="M257.792 100.033H197.333C196.417 100.033 195.539 99.6689 194.891 99.02C194.243 98.3712 193.879 97.4912 193.879 96.5737C193.879 95.6561 194.243 94.7761 194.891 94.1273C195.539 93.4785 196.417 93.114 197.333 93.114H257.792C258.708 93.114 259.586 93.4785 260.234 94.1273C260.882 94.7761 261.245 95.6561 261.245 96.5737C261.245 97.4912 260.882 98.3712 260.234 99.02C259.586 99.6689 258.708 100.033 257.792 100.033Z" fill="#CCCCCC"/>
<path d="M272.037 111.71H197.333C196.879 111.71 196.43 111.62 196.011 111.447C195.592 111.273 195.212 111.018 194.891 110.697C194.57 110.375 194.316 109.994 194.142 109.574C193.969 109.154 193.879 108.705 193.879 108.25C193.879 107.796 193.969 107.346 194.142 106.926C194.316 106.506 194.57 106.125 194.891 105.804C195.212 105.483 195.592 105.228 196.011 105.054C196.43 104.88 196.879 104.791 197.333 104.791H272.037C272.953 104.791 273.832 105.155 274.479 105.804C275.127 106.453 275.491 107.333 275.491 108.25C275.491 109.168 275.127 110.048 274.479 110.697C273.832 111.345 272.953 111.71 272.037 111.71Z" fill="#CCCCCC"/>
<path d="M183.953 125.86H128.215C127.775 125.86 127.355 125.685 127.044 125.374C126.734 125.063 126.559 124.641 126.559 124.201V80.6225C126.559 80.1827 126.734 79.761 127.044 79.45C127.355 79.139 127.775 78.9641 128.215 78.9636H183.953C184.392 78.9641 184.812 79.139 185.123 79.45C185.433 79.761 185.608 80.1827 185.608 80.6225V124.201C185.608 124.641 185.433 125.063 185.123 125.374C184.812 125.685 184.392 125.86 183.953 125.86Z" fill="#6C63FF"/>
</g>
<defs>
<clipPath id="clip0_72_1597">
<rect width="337" height="303" fill="white"/>
</clipPath>
</defs>
</svg>
