<svg width="390" height="253" viewBox="0 0 390 253" fill="none" xmlns="http://www.w3.org/2000/svg">
<g clip-path="url(#clip0_9_1352)">
<path d="M12.3603 194.177C14.293 174.44 25.9747 154.738 44.5617 147.846C37.6934 168.289 38.2739 190.502 46.2005 210.558C49.2855 218.281 53.5205 226.55 51.0147 234.481C49.4556 239.415 45.4273 243.265 40.8763 245.724C36.3251 248.184 31.2356 249.433 26.2096 250.658L25.2362 251.507C16.7399 233.589 10.4275 213.914 12.3603 194.177Z" fill="#F0F0F0"/>
<path d="M44.7575 148.213C34.263 160.606 27.6578 176.433 26.503 192.658C26.2533 196.166 26.3051 199.746 27.1595 203.175C28.018 206.511 29.7537 209.556 32.1863 211.994C34.4088 214.312 36.9506 216.427 38.571 219.245C40.279 222.216 40.4309 225.639 39.3988 228.869C38.1359 232.821 35.529 236.084 32.8688 239.186C29.9151 242.63 26.7927 246.16 25.6161 250.654C25.4736 251.199 24.6373 250.946 24.7797 250.402C26.8267 242.583 34.242 237.978 37.6509 230.894C39.2416 227.589 39.8463 223.784 38.1856 220.382C36.7335 217.407 34.1142 215.224 31.8436 212.896C29.4594 210.452 27.6098 207.749 26.6074 204.457C25.582 201.088 25.3901 197.503 25.5491 194.004C25.9686 186.072 27.6321 178.256 30.4785 170.842C33.6803 162.361 38.3083 154.492 44.1626 147.573C44.5251 147.145 45.1176 147.788 44.7575 148.213Z" fill="white"/>
<path d="M26.6003 187.364C23.8845 186.779 21.465 185.247 19.7739 183.042C18.0829 180.837 17.2303 178.103 17.3685 175.327C17.3752 175.214 17.4255 175.107 17.5089 175.031C17.5922 174.954 17.7021 174.912 17.8154 174.915C17.9287 174.918 18.0365 174.964 18.1161 175.045C18.1957 175.126 18.2409 175.234 18.2421 175.348C18.1087 177.932 18.9031 180.479 20.482 182.53C22.0609 184.58 24.3204 185.998 26.8525 186.527C27.4026 186.643 27.1473 187.479 26.6003 187.364Z" fill="white"/>
<path d="M30.9047 210.967C35.703 207.928 39.1802 203.191 40.6429 197.702C40.7874 197.158 41.6237 197.411 41.4794 197.954C39.9466 203.664 36.318 208.586 31.3178 211.737C30.841 212.037 30.4305 211.265 30.9047 210.967Z" fill="white"/>
<path d="M34.512 163.168C35.5157 163.613 36.6142 163.802 37.7089 163.718C38.8037 163.634 39.8604 163.279 40.7841 162.685C41.2568 162.379 41.6669 163.151 41.1972 163.455C40.1736 164.107 39.0061 164.497 37.7968 164.593C36.5875 164.689 35.3731 164.487 34.2598 164.005C34.151 163.968 34.0603 163.891 34.0061 163.79C33.9518 163.689 33.9381 163.571 33.9677 163.46C34.0016 163.35 34.0778 163.257 34.1798 163.202C34.2817 163.147 34.4011 163.135 34.512 163.168Z" fill="white"/>
<path d="M102.642 181.494C102.352 181.693 102.062 181.893 101.772 182.1C97.8905 184.801 94.2344 187.813 90.8402 191.107C90.5737 191.358 90.3074 191.616 90.0487 191.873C81.9558 199.896 75.422 209.352 70.7794 219.761C68.9358 223.904 67.41 228.182 66.2151 232.557C64.5653 238.6 63.2571 245.283 59.8099 250.28C59.4561 250.805 59.0702 251.308 58.6542 251.786L26.3473 252.629C26.2729 252.594 26.1983 252.566 26.1236 252.531L24.8352 252.624C24.8811 252.394 24.9336 252.156 24.9795 251.926C25.0055 251.793 25.0388 251.659 25.0648 251.526C25.0845 251.437 25.1045 251.348 25.1171 251.266C25.1235 251.236 25.1303 251.207 25.137 251.184C25.1496 251.103 25.17 251.029 25.1828 250.954C25.4727 249.626 25.7724 248.297 26.082 246.968C26.0818 246.961 26.0818 246.961 26.0888 246.953C28.4733 236.833 31.7232 226.823 36.3884 217.625C36.5288 217.348 36.6687 217.064 36.824 216.787C38.9498 212.652 41.4099 208.699 44.1796 204.965C45.7028 202.926 47.3282 200.965 49.0496 199.09C53.5066 194.253 58.6964 190.149 64.4284 186.926C75.8562 180.503 89.21 177.808 101.691 181.224C102.01 181.311 102.322 181.399 102.642 181.494Z" fill="#F0F0F0"/>
<path d="M102.58 181.906C86.7428 185.48 71.9443 194.138 61.2579 206.397C58.9475 209.048 56.8344 211.938 55.4531 215.19C54.1311 218.371 53.6844 221.848 54.1597 225.259C54.5389 228.449 55.296 231.668 54.8936 234.895C54.4694 238.296 52.531 241.12 49.7631 243.078C46.3764 245.472 42.3315 246.507 38.3408 247.381C33.9099 248.352 29.2922 249.29 25.6481 252.17C25.2066 252.519 24.6913 251.813 25.1321 251.465C31.4722 246.454 40.164 247.244 47.1488 243.642C50.408 241.961 53.1806 239.287 53.902 235.57C54.5328 232.32 53.7549 229 53.343 225.773C52.9105 222.385 53.0598 219.114 54.2411 215.881C55.4494 212.574 57.454 209.595 59.6865 206.897C64.7946 200.817 70.8265 195.578 77.5612 191.373C85.2209 186.53 93.6521 183.035 102.49 181.037C103.037 180.913 103.123 181.784 102.58 181.906Z" fill="white"/>
<path d="M64.5215 202.229C62.7052 200.126 61.6953 197.446 61.672 194.666C61.6488 191.887 62.6138 189.19 64.3946 187.057C64.7564 186.627 65.4419 187.169 65.0796 187.6C63.4176 189.583 62.519 192.095 62.5459 194.683C62.5729 197.271 63.5236 199.764 65.2265 201.713C65.5961 202.137 64.889 202.65 64.5215 202.229Z" fill="white"/>
<path d="M53.7546 223.667C59.4146 224.131 65.0413 222.444 69.5129 218.941C69.9557 218.594 70.4712 219.3 70.029 219.647C65.3689 223.282 59.5098 225.027 53.621 224.531C53.0598 224.483 53.1964 223.62 53.7546 223.667Z" fill="white"/>
<path d="M85.3998 187.675C85.9331 188.636 86.6964 189.448 87.6212 190.04C88.546 190.632 89.6033 190.986 90.6982 191.068C91.2598 191.108 91.1225 191.972 90.5646 191.932C89.3553 191.835 88.1881 191.444 87.1649 190.792C86.1417 190.14 85.2936 189.247 84.6948 188.192C84.63 188.097 84.6037 187.981 84.6213 187.868C84.6388 187.754 84.6989 187.652 84.7893 187.581C84.8829 187.513 84.9996 187.485 85.1139 187.502C85.2283 187.52 85.331 187.582 85.3998 187.675Z" fill="white"/>
<path d="M292.255 17.3171C291.773 15.8922 285.724 11.0484 289.43 10.2342L292.47 14.2892L306.445 0.307861L307.851 1.71406L292.255 17.3171Z" fill="#6C63FF"/>
<path d="M292.255 64.8594C291.773 63.4344 285.724 58.5906 289.43 57.7765L292.47 61.8314L306.445 47.8501L307.851 49.2563L292.255 64.8594Z" fill="#6C63FF"/>
<path d="M292.255 113.081C291.773 111.656 285.724 106.812 289.43 105.998L292.47 110.053L306.445 96.0715L307.851 97.4777L292.255 113.081Z" fill="#6C63FF"/>
<path d="M279.386 74.0951C281.768 74.0951 283.699 72.1635 283.699 69.7807C283.699 67.3979 281.768 65.4663 279.386 65.4663C277.004 65.4663 275.074 67.3979 275.074 69.7807C275.074 72.1635 277.004 74.0951 279.386 74.0951Z" fill="#3F3D56"/>
<path d="M279.386 27.0678C281.768 27.0678 283.699 25.1362 283.699 22.7534C283.699 20.3706 281.768 18.439 279.386 18.439C277.004 18.439 275.074 20.3706 275.074 22.7534C275.074 25.1362 277.004 27.0678 279.386 27.0678Z" fill="#3F3D56"/>
<path d="M390 12.8303H320.57V13.6932H390V12.8303Z" fill="#3F3D56"/>
<path d="M281.542 124.226C283.924 124.226 285.855 122.294 285.855 119.912C285.855 117.529 283.924 115.597 281.542 115.597C279.161 115.597 277.23 117.529 277.23 119.912C277.23 122.294 279.161 124.226 281.542 124.226Z" fill="#3F3D56"/>
<path d="M390 60.3726H320.57V61.2354H390V60.3726Z" fill="#3F3D56"/>
<path d="M390 108.594H320.57V109.457H390V108.594Z" fill="#3F3D56"/>
<path d="M303.147 119.509H281.585V97.5059H296.247V98.3687H282.447V118.647H302.284V108.723H303.147V119.509Z" fill="#3F3D56"/>
<path d="M303.147 71.1879H281.585V49.1843H296.247V50.0472H282.447V70.325H302.284V60.4018H303.147V71.1879Z" fill="#3F3D56"/>
<path d="M303.147 22.0035H281.585V0H296.247V0.862884H282.447V21.1407H302.284V11.2175H303.147V22.0035Z" fill="#3F3D56"/>
<path d="M162.365 78.424C162.365 78.424 156.602 102.767 163.646 102.767C170.689 102.767 187.337 75.2211 187.337 75.2211L181.574 68.1746L171.231 82.5415L170.689 75.2211L162.365 78.424Z" fill="#A0616A"/>
<path d="M185.801 76.2793C188.897 76.2793 191.407 73.7681 191.407 70.6705C191.407 67.5729 188.897 65.0618 185.801 65.0618C182.705 65.0618 180.195 67.5729 180.195 70.6705C180.195 73.7681 182.705 76.2793 185.801 76.2793Z" fill="#A0616A"/>
<path d="M157.479 244.217L164.941 244.216L168.492 215.419L157.478 215.42L157.479 244.217Z" fill="#A0616A"/>
<path d="M157.216 252.005L180.164 252.004V251.714C180.164 249.344 179.223 247.071 177.548 245.395C175.873 243.72 173.601 242.778 171.232 242.778H171.231L167.04 239.596L159.219 242.778L157.216 242.778L157.216 252.005Z" fill="#2F2E41"/>
<path d="M77.209 234.903L83.8859 238.236L99.9161 214.056L90.0613 209.135L77.209 234.903Z" fill="#A0616A"/>
<path d="M73.4973 241.753L94.0302 252.005L94.1598 251.745C95.2175 249.625 95.3899 247.171 94.6392 244.923C93.8885 242.675 92.276 240.818 90.1566 239.759L90.1561 239.759L87.8257 235.04L79.4077 234.393L77.6153 233.498L73.4973 241.753Z" fill="#2F2E41"/>
<path d="M245.744 252.033H0V253H245.744V252.033Z" fill="#CCCCCC"/>
<path d="M109.233 122.585C109.233 122.585 106.251 158.458 105.611 166.145C105.172 170.964 104.095 175.703 102.409 180.239C102.409 180.239 101.129 182.801 101.129 185.363L86.6151 211.752C86.6151 211.752 82.1801 215.013 82.8204 217.576C83.4607 220.138 80.1465 221.675 80.1465 221.675L95.4304 224.622C95.4304 224.622 94.7901 222.7 96.711 222.06C98.6319 221.419 100.161 215.863 100.161 215.863L121.618 180.879L136.985 148.85C136.985 148.85 145.949 177.676 147.87 180.879C147.87 180.879 154.913 216.752 156.194 219.955C157.475 223.158 158.115 223.158 157.475 224.439C156.834 225.721 156.834 227.002 157.475 227.642C158.115 228.283 170.281 227.642 170.281 227.642L167.079 182.16L161.316 127.71L131.863 118.742L109.233 122.585Z" fill="#2F2E41"/>
<path d="M138.07 36.9451C145.496 36.9451 151.516 30.9223 151.516 23.4927C151.516 16.0631 145.496 10.0403 138.07 10.0403C130.644 10.0403 124.624 16.0631 124.624 23.4927C124.624 30.9223 130.644 36.9451 138.07 36.9451Z" fill="#A0616A"/>
<path d="M162.597 56.6043L146.59 46.9018C146.59 46.9018 146.147 40.8768 141.586 40.5933C139.296 40.451 135.86 40.2334 130.704 39.9008C129.614 39.8305 128.878 45.7952 127.63 45.7143L110.733 50.1984L113.294 93.7586C113.294 93.7586 109.453 111.055 110.733 114.258C112.014 117.461 107.532 118.742 108.812 119.382C110.093 120.023 108.812 124.507 108.812 124.507C108.812 124.507 133.784 137.319 161.317 127.71L158.755 119.382C159.104 118.294 159.169 117.134 158.945 116.013C158.721 114.892 158.215 113.847 157.475 112.976C157.475 112.976 160.036 109.133 156.834 105.93C156.834 105.93 158.115 100.165 154.914 97.6022L154.273 88.6339L156.194 84.1498L162.597 56.6043Z" fill="#E6E6E6"/>
<path d="M126.402 31.1776L126.026 30.3042C125.978 30.1913 121.223 18.9447 125.437 12.0075C127.389 8.79593 130.936 6.98274 135.982 6.61871C143.877 6.04759 149.28 7.92123 152.046 12.1836C152.51 12.906 152.771 13.7401 152.801 14.5981C152.831 15.4562 152.63 16.3065 152.218 17.0597C151.806 17.8129 151.199 18.4412 150.46 18.8784C149.722 19.3156 148.879 19.5457 148.021 19.5445H147.915L146.464 17.6601L146.379 17.8433C145.854 18.9801 144.648 19.6024 143.236 19.4661C142.995 19.4488 142.782 19.6563 142.611 20.1004C142.554 20.2947 142.445 20.4699 142.297 20.6076C142.148 20.7453 141.965 20.8404 141.767 20.8831C140.723 21.0863 139.236 19.771 138.57 19.1154C138.544 19.2662 138.486 19.4099 138.4 19.5365C138.314 19.6631 138.202 19.7698 138.071 19.8493C137.37 20.2544 136.277 19.7252 135.964 19.5567C133.466 20.0876 131.849 19.9456 131.157 19.1352C130.687 22.4588 129.68 28.4413 128.471 28.7729C128.345 28.8019 128.213 28.7896 128.094 28.7377C127.975 28.6857 127.876 28.597 127.812 28.4845C127.521 28.1065 127.261 27.9182 127.098 27.9711C126.705 28.0962 126.473 29.3914 126.44 30.2273L126.402 31.1776Z" fill="#2F2E41"/>
<path d="M155.554 57.245L161.941 56.2068C166.542 60.6296 169.677 66.3581 170.921 72.6192C172.842 82.8687 173.482 84.7904 173.482 84.7904L158.115 88.634L149.791 72.6192L155.554 57.245Z" fill="#E6E6E6"/>
<path d="M127.211 70.5765L123.264 120.638L223.996 128.588L227.943 78.5262L127.211 70.5765Z" fill="white"/>
<path d="M137.973 74.4549C135.508 72.6937 132.378 72.5664 131.183 72.5917C131.547 73.7308 132.681 76.6522 135.146 78.4142C137.617 80.1799 140.743 80.3034 141.937 80.2787C141.572 79.14 140.439 76.2174 137.973 74.4549Z" fill="#6C63FF"/>
<path d="M147.698 106.311L131.523 105.034C131.045 104.996 130.565 105.053 130.109 105.201C129.653 105.349 129.231 105.586 128.866 105.897C128.501 106.209 128.202 106.589 127.984 107.016C127.766 107.444 127.635 107.91 127.597 108.388C127.559 108.866 127.616 109.347 127.764 109.803C127.912 110.259 128.149 110.682 128.46 111.046C128.771 111.411 129.151 111.711 129.578 111.929C130.005 112.147 130.471 112.278 130.949 112.316L147.124 113.592C148.089 113.669 149.045 113.358 149.781 112.729C150.518 112.1 150.974 111.204 151.05 110.239C151.126 109.273 150.816 108.317 150.187 107.58C149.559 106.843 148.663 106.387 147.698 106.311Z" fill="#6C63FF"/>
<path d="M223.972 73.6601L133.286 66.5024C132.231 66.4193 131.17 66.5449 130.164 66.872C129.158 67.199 128.226 67.7212 127.421 68.4087C126.617 69.0961 125.955 69.9354 125.475 70.8785C124.995 71.8217 124.705 72.8503 124.622 73.9056L121.134 118.107C120.966 120.239 121.652 122.35 123.04 123.976C124.427 125.603 126.404 126.611 128.535 126.78L219.221 133.937C220.276 134.021 221.337 133.895 222.343 133.568C223.349 133.241 224.281 132.719 225.086 132.031C225.89 131.344 226.552 130.504 227.032 129.561C227.512 128.618 227.802 127.59 227.885 126.534L231.2 84.5224L231.266 83.6641L231.372 82.3285C231.455 81.2732 231.33 80.2119 231.003 79.2051C230.676 78.1984 230.154 77.2659 229.467 76.461C228.78 75.656 227.941 74.9944 226.998 74.5138C226.055 74.0332 225.027 73.7431 223.972 73.6601ZM221.294 112.118L220.72 119.4C220.615 120.686 220.005 121.878 219.024 122.716C218.043 123.554 216.77 123.969 215.484 123.87L203.351 122.914C202.066 122.809 200.874 122.199 200.037 121.217C199.2 120.235 198.785 118.962 198.883 117.675L199.458 110.393C199.563 109.107 200.173 107.915 201.154 107.078C202.136 106.24 203.408 105.825 204.694 105.923L216.822 106.881C218.108 106.986 219.299 107.596 220.137 108.577C220.975 109.558 221.391 110.831 221.294 112.118ZM126.794 108.321C126.889 107.142 127.446 106.049 128.345 105.282C129.243 104.514 130.409 104.134 131.587 104.226L147.761 105.503C148.346 105.548 148.915 105.708 149.438 105.974C149.96 106.239 150.425 106.605 150.806 107.051C151.188 107.496 151.477 108.012 151.659 108.569C151.84 109.127 151.91 109.715 151.865 110.299C151.819 110.884 151.659 111.453 151.393 111.976C151.127 112.498 150.761 112.963 150.316 113.344C149.87 113.725 149.354 114.015 148.797 114.196C148.239 114.377 147.652 114.447 147.068 114.4L147.059 114.403L130.885 113.125C130.301 113.079 129.732 112.918 129.21 112.652C128.688 112.385 128.224 112.018 127.844 111.572C127.464 111.126 127.176 110.609 126.996 110.051C126.815 109.493 126.747 108.905 126.794 108.321ZM130.257 72.3032L130.146 71.8505L130.612 71.8078C130.794 71.7883 135.096 71.4018 138.445 73.7953C141.794 76.1888 142.821 80.3881 142.866 80.5637L142.972 81.0174L142.508 81.0643C141.849 81.1133 141.187 81.1089 140.529 81.0512C138.435 80.9286 136.413 80.2452 134.674 79.0727C131.324 76.6792 130.297 72.4798 130.257 72.3032Z" fill="#6C63FF"/>
<path d="M207.688 116.947L202.432 116.533C202.057 116.504 201.686 116.625 201.4 116.869C201.114 117.114 200.937 117.462 200.907 117.837C200.878 118.212 200.998 118.584 201.242 118.87C201.486 119.156 201.833 119.334 202.208 119.364L207.465 119.779C207.84 119.808 208.211 119.687 208.497 119.443C208.783 119.198 208.96 118.85 208.99 118.475C209.019 118.1 208.899 117.728 208.655 117.442C208.411 117.155 208.063 116.978 207.688 116.947Z" fill="#6C63FF"/>
<path d="M217.393 117.713L212.136 117.298C211.761 117.27 211.391 117.391 211.105 117.635C210.819 117.88 210.642 118.228 210.613 118.603C210.583 118.978 210.703 119.349 210.947 119.635C211.191 119.922 211.538 120.1 211.913 120.13L217.17 120.545C217.545 120.574 217.915 120.452 218.201 120.208C218.487 119.963 218.664 119.615 218.693 119.241C218.723 118.866 218.602 118.494 218.359 118.208C218.115 117.922 217.768 117.744 217.393 117.713Z" fill="#6C63FF"/>
<path d="M207.975 113.306L202.719 112.892C202.344 112.863 201.973 112.984 201.687 113.229C201.402 113.473 201.225 113.821 201.195 114.196C201.166 114.571 201.286 114.942 201.53 115.229C201.773 115.515 202.121 115.693 202.495 115.723L207.752 116.138C208.127 116.167 208.498 116.046 208.784 115.802C209.07 115.557 209.247 115.209 209.276 114.834C209.306 114.459 209.186 114.087 208.942 113.801C208.698 113.515 208.35 113.337 207.975 113.306Z" fill="#6C63FF"/>
<path d="M217.68 114.072L212.423 113.658C212.048 113.629 211.677 113.75 211.391 113.994C211.106 114.239 210.929 114.587 210.899 114.962C210.869 115.337 210.99 115.709 211.234 115.995C211.478 116.281 211.825 116.459 212.2 116.489L217.457 116.904C217.832 116.933 218.203 116.812 218.489 116.568C218.775 116.323 218.952 115.975 218.981 115.6C219.011 115.225 218.89 114.853 218.646 114.567C218.403 114.28 218.055 114.103 217.68 114.072Z" fill="#6C63FF"/>
<path d="M208.262 109.665L203.006 109.251C202.631 109.222 202.26 109.343 201.974 109.587C201.688 109.832 201.511 110.18 201.481 110.555C201.452 110.93 201.572 111.302 201.816 111.588C202.06 111.874 202.408 112.052 202.782 112.082L208.039 112.497C208.414 112.526 208.785 112.405 209.07 112.16C209.356 111.916 209.533 111.568 209.563 111.193C209.592 110.818 209.472 110.446 209.228 110.16C208.984 109.874 208.637 109.696 208.262 109.665Z" fill="#6C63FF"/>
<path d="M217.967 110.431L212.71 110.016C212.336 109.988 211.965 110.109 211.679 110.353C211.394 110.598 211.217 110.946 211.187 111.321C211.157 111.696 211.278 112.067 211.521 112.353C211.765 112.64 212.113 112.818 212.487 112.848L217.744 113.263C218.119 113.292 218.49 113.17 218.775 112.926C219.061 112.681 219.238 112.333 219.267 111.959C219.297 111.584 219.177 111.212 218.933 110.926C218.689 110.64 218.342 110.462 217.967 110.431Z" fill="#6C63FF"/>
<path d="M123.274 87.8523L123.206 88.7129L229.66 97.0792L229.727 96.2186L123.274 87.8523Z" fill="white"/>
<path d="M231.266 83.664L231.2 84.5226L227.495 84.2318L188.022 81.1297L188.093 80.2703L227.562 83.3732L231.266 83.664Z" fill="#3F3D56"/>
<path d="M101.129 74.541C101.129 74.541 95.3659 98.8835 102.409 98.8835C109.452 98.8835 126.1 71.338 126.1 71.338L120.337 64.2915L109.994 78.6585L109.452 71.338L101.129 74.541Z" fill="#A0616A"/>
<path d="M124.565 72.3962C127.661 72.3962 130.171 69.8851 130.171 66.7875C130.171 63.6898 127.661 61.1787 124.565 61.1787C121.468 61.1787 118.958 63.6898 118.958 66.7875C118.958 69.8851 121.468 72.3962 124.565 72.3962Z" fill="#A0616A"/>
<path d="M115.397 54.042L111.556 50.1985C111.556 50.1985 103.872 54.6826 103.232 59.1668C102.591 63.6509 99.3899 77.7439 99.3899 77.7439L111.235 78.7048L115.077 72.9395L115.397 54.042Z" fill="#E6E6E6"/>
</g>
<defs>
<clipPath id="clip0_9_1352">
<rect width="390" height="253" fill="white"/>
</clipPath>
</defs>
</svg>
