<svg width="617" height="443" viewBox="0 0 617 443" fill="none" xmlns="http://www.w3.org/2000/svg">
<path d="M208.053 78.1422H16.0332C8.71033 78.1422 2.75024 72.1799 2.75024 64.8543C2.75024 57.5287 8.71033 51.5664 16.0332 51.5664H208.053C215.376 51.5664 221.336 57.5287 221.336 64.8543C221.336 72.1799 215.376 78.1422 208.053 78.1422ZM16.0332 53.2089C9.61337 53.2089 4.39214 58.4321 4.39214 64.8543C4.39214 71.2765 9.61337 76.4997 16.0332 76.4997H208.053C214.473 76.4997 219.694 71.2765 219.694 64.8543C219.694 58.4321 214.473 53.2089 208.053 53.2089H16.0332Z" fill="#E2E3E4"/>
<path d="M208.053 233.646H16.0331C8.93191 233.646 3.16064 227.873 3.16064 220.769C3.16064 213.665 8.93191 207.892 16.0331 207.892H208.053C215.154 207.892 220.925 213.665 220.925 220.769C220.925 227.873 215.154 233.646 208.053 233.646Z" fill="#6C63FF"/>
<path d="M145.127 25.7545H12.8725C5.77127 25.7545 0 19.9811 0 12.8772C0 5.77341 5.77127 0 12.8725 0H145.127C152.228 0 158 5.77341 158 12.8772C158 19.9811 152.228 25.7545 145.127 25.7545Z" fill="#E2E3E4"/>
<path d="M208.053 130.111H16.0332C8.71033 130.111 2.75024 124.149 2.75024 116.823C2.75024 109.498 8.71033 103.535 16.0332 103.535H208.053C215.376 103.535 221.336 109.498 221.336 116.823C221.336 124.149 215.376 130.111 208.053 130.111ZM16.0332 105.178C9.61337 105.178 4.39214 110.401 4.39214 116.823C4.39214 123.245 9.61337 128.469 16.0332 128.469H208.053C214.473 128.469 219.694 123.245 219.694 116.823C219.694 110.401 214.473 105.178 208.053 105.178H16.0332Z" fill="#E2E3E4"/>
<path d="M208.053 182.088H16.0332C8.71033 182.088 2.75024 176.126 2.75024 168.8C2.75024 161.475 8.71033 155.512 16.0332 155.512H208.053C215.376 155.512 221.336 161.475 221.336 168.8C221.336 176.126 215.376 182.088 208.053 182.088ZM16.0332 157.155C9.61337 157.155 4.39214 162.378 4.39214 168.8C4.39214 175.222 9.61337 180.446 16.0332 180.446H208.053C214.473 180.446 219.694 175.222 219.694 168.8C219.694 162.378 214.473 157.155 208.053 157.155H16.0332Z" fill="#E2E3E4"/>
<path d="M9.43259 42.0235H59.7567C60.9553 42.0235 61.9322 42.9926 61.9322 44.1998C61.9322 45.3988 60.9553 46.3761 59.7567 46.3761H9.43259C8.23401 46.3761 7.25708 45.4071 7.25708 44.1998C7.25708 43.0008 8.23401 42.0235 9.43259 42.0235Z" fill="#E2E3E4"/>
<path d="M9.43259 95.2242H59.7567C60.9553 95.2242 61.9322 96.1933 61.9322 97.3923C61.9322 98.5913 60.9553 99.5686 59.7567 99.5686H9.43259C8.23401 99.5686 7.25708 98.5996 7.25708 97.4005C7.25708 96.2015 8.23401 95.2242 9.43259 95.2242Z" fill="#E2E3E4"/>
<path d="M9.43259 148.433H59.7567C60.9553 148.433 61.9322 149.402 61.9322 150.609C61.9322 151.809 60.9553 152.778 59.7567 152.778H9.43259C8.23401 152.778 7.25708 151.809 7.25708 150.601C7.25708 149.402 8.23401 148.433 9.43259 148.433Z" fill="#E2E3E4"/>
<path d="M367.03 108.619L348.673 114.663V88.2272H365.33L367.03 108.619Z" fill="#9F616A"/>
<path d="M350.947 95.5445C361.049 95.5445 369.238 87.3524 369.238 77.247C369.238 67.1416 361.049 58.9495 350.947 58.9495C340.846 58.9495 332.657 67.1416 332.657 77.247C332.657 87.3524 340.846 95.5445 350.947 95.5445Z" fill="#9F616A"/>
<path d="M355.971 75.432C352.909 75.3417 350.898 72.2456 349.708 69.4205C348.517 66.5954 347.294 63.3514 344.453 62.1852C342.13 61.2326 338.034 67.6794 336.203 65.963C334.29 64.1727 336.154 54.9829 338.181 53.3321C340.209 51.6814 342.984 51.3611 345.595 51.2379C351.965 50.9423 358.377 51.4597 364.624 52.7655C368.491 53.5703 372.464 54.7858 375.255 57.578C378.786 61.1258 379.689 66.4722 379.943 71.4736C380.206 76.59 379.91 81.9446 377.423 86.4204C374.935 90.8962 369.731 94.1977 364.739 93.0561C364.238 90.346 364.747 87.5619 364.944 84.8025C365.133 82.0513 364.936 79.0784 363.253 76.8857C361.578 74.6929 357.983 73.8224 356.029 75.7688" fill="#2F2E43"/>
<path d="M378.474 81.7721C380.304 80.4335 382.496 79.3084 384.746 79.5876C387.176 79.8832 389.236 81.8871 389.86 84.2605C390.484 86.6339 389.786 89.2455 388.276 91.1837C386.773 93.1218 384.532 94.403 382.168 95.0436C380.797 95.4131 379.295 95.5692 377.989 95.0107C376.068 94.1813 375.026 91.7257 375.781 89.7711" fill="#2F2E43"/>
<path d="M308.48 253.931C307.256 259.943 309.498 265.437 313.471 266.201C317.444 266.965 321.656 262.702 322.871 256.691C323.388 254.293 323.306 251.812 322.633 249.447L337.763 155.209L318.84 151.644L311.534 247.32C309.982 249.258 308.939 251.525 308.48 253.939V253.931Z" fill="#9F616A"/>
<path d="M348.476 102.533H335.563C326.434 103.921 323.954 108.791 321.877 117.792C318.709 131.524 314.661 149.805 315.466 150.076C316.755 150.503 338.74 160.851 349.946 158.485L348.476 102.533Z" fill="#E2E3E4"/>
<path d="M360.963 402.709H343.772V427.109H360.963V402.709Z" fill="#9F616A"/>
<path d="M327.033 441.875C325.227 441.875 323.618 441.834 322.403 441.719C317.838 441.3 313.479 437.925 311.287 435.954C310.302 435.067 309.99 433.654 310.499 432.439C310.869 431.568 311.599 430.911 312.51 430.657L324.578 427.207L344.117 414.018L344.339 414.412C344.421 414.56 346.342 418.018 346.982 420.35C347.228 421.237 347.163 421.976 346.793 422.551C346.539 422.945 346.177 423.175 345.89 423.306C346.243 423.676 347.351 424.431 350.767 424.974C355.75 425.762 356.801 420.596 356.842 420.383L356.874 420.21L357.022 420.112C359.395 418.584 360.856 417.886 361.357 418.034C361.669 418.124 362.194 418.289 363.614 432.357C363.754 432.8 364.747 436.036 364.074 439.132C363.344 442.499 348.632 441.341 345.685 441.078C345.603 441.087 334.586 441.875 327.041 441.875H327.033Z" fill="#2F2E43"/>
<path d="M409.913 383.539L395.327 392.64L408.234 413.343L422.82 404.243L409.913 383.539Z" fill="#9F616A"/>
<path d="M390.541 438.532C388.522 438.532 386.667 438.286 385.345 438.056C384.048 437.826 383.03 436.791 382.816 435.494C382.668 434.558 382.939 433.613 383.58 432.915L391.994 423.602L401.6 402.069L401.994 402.282C402.141 402.364 405.598 404.278 407.379 405.92C408.06 406.545 408.397 407.21 408.381 407.891C408.372 408.368 408.192 408.746 408.011 409.017C408.504 409.148 409.842 409.197 413.027 407.85C417.674 405.888 415.835 400.944 415.753 400.738L415.687 400.574L415.761 400.418C416.968 397.864 417.83 396.501 418.339 396.361C418.659 396.271 419.184 396.131 427.829 407.325C428.182 407.62 430.735 409.846 431.802 412.827C432.96 416.071 419.866 422.879 417.23 424.21C417.148 424.275 403.447 434.237 397.815 437.071C395.582 438.196 392.939 438.541 390.533 438.541L390.541 438.532Z" fill="#2F2E43"/>
<path d="M373.622 198.669H325.49L321.122 243.46L340.234 408.959H364.805L354.978 313.374L394.835 399.671L416.672 384.379L385.55 303.814C385.55 303.814 396.666 233.63 387.931 216.145C379.196 198.669 373.622 198.669 373.622 198.669Z" fill="#2F2E43"/>
<path d="M397.569 201.396H321.122L344.059 102.533H377.365L397.569 201.396Z" fill="#E2E3E4"/>
<path d="M404.448 253.931C405.671 259.943 403.43 265.437 399.457 266.201C395.484 266.965 391.272 262.702 390.057 256.691C389.54 254.293 389.622 251.812 390.295 249.447L375.165 155.209L394.088 151.644L401.394 247.32C402.946 249.258 403.989 251.525 404.448 253.939V253.931Z" fill="#9F616A"/>
<path d="M364.452 102.533H377.365C386.494 103.921 388.974 108.791 391.051 117.792C394.22 131.524 398.267 149.805 397.462 150.076C396.173 150.503 374.188 160.851 362.982 158.485L364.452 102.533Z" fill="#E2E3E4"/>
</svg>
