<svg width="309" height="264" viewBox="0 0 309 264" fill="none" xmlns="http://www.w3.org/2000/svg">
<path d="M96.1607 191.147L92.1616 199.296H91.3139L90.1946 197.047L89.097 199.296H88.2494L84.2285 191.147H86.0759L88.7275 196.525L89.3252 195.286L87.2931 191.147H89.0318L90.1946 193.526L91.3791 191.147H93.107L91.064 195.286L91.6725 196.536L94.3241 191.147H96.1607Z" fill="url(#paint0_linear_29_656)"/>
<path d="M121.107 195.221C121.107 195.801 120.997 196.344 120.776 196.851C120.555 197.358 120.252 197.802 119.868 198.182C119.484 198.562 119.037 198.861 118.526 199.078C118.015 199.296 117.474 199.404 116.901 199.404C116.322 199.404 115.778 199.296 115.271 199.078C114.764 198.861 114.319 198.562 113.935 198.182C113.551 197.802 113.248 197.358 113.027 196.851C112.806 196.344 112.696 195.801 112.696 195.221C112.696 194.649 112.806 194.108 113.027 193.597C113.248 193.086 113.551 192.643 113.935 192.266C114.319 191.889 114.764 191.591 115.271 191.37C115.778 191.149 116.322 191.038 116.901 191.038C117.474 191.038 118.015 191.149 118.526 191.37C119.037 191.591 119.484 191.889 119.868 192.266C120.252 192.643 120.555 193.086 120.776 193.597C120.997 194.108 121.107 194.649 121.107 195.221ZM119.477 195.221C119.477 194.874 119.408 194.544 119.27 194.233C119.133 193.921 118.948 193.649 118.716 193.418C118.484 193.186 118.211 193.003 117.896 192.869C117.581 192.735 117.249 192.668 116.901 192.668C116.546 192.668 116.213 192.735 115.902 192.869C115.59 193.003 115.317 193.186 115.081 193.418C114.846 193.649 114.661 193.921 114.527 194.233C114.393 194.544 114.326 194.874 114.326 195.221C114.326 195.569 114.395 195.899 114.532 196.21C114.67 196.521 114.855 196.793 115.087 197.025C115.318 197.257 115.592 197.44 115.907 197.574C116.222 197.708 116.554 197.775 116.901 197.775C117.249 197.775 117.581 197.708 117.896 197.574C118.211 197.44 118.484 197.257 118.716 197.025C118.948 196.793 119.133 196.521 119.27 196.21C119.408 195.899 119.477 195.569 119.477 195.221Z" fill="url(#paint1_linear_29_656)"/>
<path d="M143.349 199.296H142.187L139.013 194.721V199.296H137.264V191.147H138.394L141.6 195.819V191.147H143.349V199.296Z" fill="url(#paint2_linear_29_656)"/>
<path d="M164.839 195.2C164.839 195.815 164.743 196.375 164.551 196.878C164.359 197.382 164.085 197.813 163.73 198.171C163.375 198.53 162.946 198.807 162.443 199.002C161.939 199.198 161.376 199.296 160.753 199.296H158.808V191.147H160.753C161.376 191.147 161.939 191.241 162.443 191.429C162.946 191.618 163.375 191.889 163.73 192.244C164.085 192.599 164.359 193.027 164.551 193.526C164.743 194.026 164.839 194.584 164.839 195.2ZM163.209 195.2C163.209 194.345 162.991 193.691 162.557 193.238C162.122 192.786 161.51 192.559 160.72 192.559H160.427V197.883H160.72C161.51 197.883 162.122 197.65 162.557 197.182C162.991 196.715 163.209 196.054 163.209 195.2Z" fill="url(#paint3_linear_29_656)"/>
<path d="M183.298 199.296H178.702V191.147H183.298V192.657H180.332V194.537H182.951V195.906H180.332V197.785H183.298V199.296Z" fill="url(#paint4_linear_29_656)"/>
<path d="M203.003 199.296H201.231L199.775 196.145H198.688V199.296H197.091V191.147H200.155C200.467 191.147 200.764 191.212 201.046 191.342C201.329 191.473 201.574 191.652 201.78 191.88C201.986 192.108 202.151 192.375 202.274 192.679C202.398 192.983 202.459 193.309 202.459 193.657C202.459 194.091 202.363 194.491 202.171 194.857C201.979 195.223 201.709 195.522 201.362 195.754L203.003 199.296ZM200.883 193.657C200.883 193.548 200.864 193.439 200.824 193.331C200.784 193.222 200.731 193.124 200.666 193.037C200.601 192.95 200.523 192.88 200.432 192.826C200.342 192.771 200.25 192.744 200.155 192.744H198.688V194.537H200.155C200.25 194.537 200.342 194.51 200.432 194.455C200.523 194.401 200.601 194.332 200.666 194.249C200.731 194.166 200.784 194.071 200.824 193.966C200.864 193.861 200.883 193.758 200.883 193.657Z" fill="url(#paint5_linear_29_656)"/>
<path d="M220.229 196.894C220.229 197.264 220.159 197.601 220.017 197.905C219.876 198.209 219.684 198.474 219.441 198.698C219.199 198.923 218.918 199.096 218.599 199.22C218.28 199.343 217.943 199.404 217.588 199.404C217.262 199.404 216.962 199.354 216.686 199.252C216.411 199.151 216.165 199.008 215.948 198.823C215.73 198.638 215.544 198.417 215.388 198.16C215.232 197.903 215.114 197.622 215.035 197.318L216.491 196.645C216.563 196.927 216.69 197.175 216.871 197.389C217.052 197.602 217.302 197.709 217.621 197.709C217.73 197.709 217.846 197.689 217.969 197.65C218.092 197.61 218.202 197.555 218.3 197.487C218.398 197.418 218.48 197.333 218.545 197.231C218.61 197.13 218.643 197.018 218.643 196.894C218.643 196.721 218.565 196.574 218.409 196.454C218.253 196.335 218.059 196.221 217.828 196.112C217.596 196.004 217.342 195.888 217.067 195.765C216.792 195.641 216.538 195.486 216.306 195.297C216.074 195.109 215.88 194.875 215.725 194.597C215.569 194.318 215.491 193.968 215.491 193.548C215.491 193.222 215.551 192.907 215.67 192.603C215.79 192.299 215.955 192.031 216.165 191.799C216.375 191.567 216.625 191.382 216.915 191.245C217.204 191.107 217.52 191.038 217.86 191.038C218.425 191.038 218.911 191.196 219.316 191.511C219.722 191.826 220.019 192.244 220.207 192.766L218.719 193.461C218.661 193.266 218.561 193.095 218.42 192.95C218.279 192.806 218.103 192.733 217.893 192.733C217.661 192.733 217.467 192.813 217.311 192.972C217.156 193.132 217.078 193.324 217.078 193.548C217.078 193.722 217.156 193.865 217.311 193.977C217.467 194.089 217.661 194.198 217.893 194.303C218.125 194.408 218.378 194.522 218.653 194.645C218.929 194.769 219.182 194.926 219.414 195.118C219.646 195.31 219.84 195.547 219.996 195.83C220.151 196.112 220.229 196.467 220.229 196.894Z" fill="url(#paint6_linear_29_656)"/>
<path d="M83.5233 155.891H73.7783V184.378H83.4738C93.8372 184.378 100.024 178.912 100.024 169.757C100.025 160.816 94.1644 155.891 83.5233 155.891ZM81.5508 183.11H79.4601V157.159H82.5371C89.8801 157.159 93.6032 161.464 93.6032 169.956C93.6034 178.93 89.7737 183.11 81.5508 183.11Z" fill="white"/>
<path d="M110.964 184.378V155.891H105.283V184.378H110.964Z" fill="white"/>
<path d="M132.653 170.762L137.673 170.768V182.631C136.256 183.267 134.828 183.586 133.484 183.586C126.459 183.541 122.746 178.883 122.746 170.114C122.746 159.012 128.583 156.682 133.478 156.682C137.107 156.705 139.794 158.472 142.081 160.843L143.354 159.571C140.694 156.935 136.757 155.494 131.79 155.494C122.075 155.494 116.275 160.959 116.275 170.114C116.275 179.294 122.075 184.775 131.79 184.775C133.953 184.775 135.921 184.5 137.673 183.972L137.673 183.973L143.354 184.775V169.494H132.653L132.653 170.762Z" fill="white"/>
<path d="M154.932 184.378V155.891H149.25V184.378H154.932Z" fill="white"/>
<path d="M158.608 155.891V157.159H169.901V184.378H175.583V157.159H186.876V155.891H158.608Z" fill="white"/>
<path d="M198.582 155.891H195.378L183.452 184.378H185.11L189.163 174.603H200.484L204.59 184.378H210.545L198.582 155.891ZM189.689 173.335L194.821 161.012L199.956 173.335H189.689Z" fill="white"/>
<path d="M220.229 183.11V155.891H214.548V184.378H235.221V183.11H220.229Z" fill="white"/>
<path fill-rule="evenodd" clip-rule="evenodd" d="M175.27 118.732C178.981 112.954 181.144 106.091 181.144 98.7293C181.144 78.2536 164.482 61.5958 144.004 61.5958C123.524 61.5958 106.862 78.2536 106.862 98.7293C106.862 119.203 123.524 135.862 144.004 135.862C151.386 135.862 158.268 133.687 164.056 129.958C172.26 135.745 178.932 138.294 181.273 135.954C183.614 133.613 181.062 126.937 175.27 118.732ZM168.88 98.7293C168.88 102.155 167.649 106.593 166.39 109.566C169.706 113.422 172.434 117.014 174.379 120.055C177.236 124.523 178.406 127.8 177.251 128.954C176.134 130.071 173.032 129.015 168.784 126.358C165.866 124.533 162.407 121.95 158.679 118.796C155.547 116.144 152.223 113.091 148.872 109.74C138.197 99.0675 130.515 88.6816 129.365 83.8043C129.319 83.8431 129.231 83.8582 129.225 83.9184C129.225 83.9184 131.854 101.455 153.721 121.624C150.734 122.896 147.45 123.601 144.004 123.601C130.286 123.601 119.126 112.443 119.126 98.7293C119.126 85.0142 130.286 73.8566 144.004 73.8566C157.72 73.8566 168.88 85.0142 168.88 98.7293Z" fill="url(#paint7_linear_29_656)"/>
<defs>
<linearGradient id="paint0_linear_29_656" x1="73.7786" y1="132" x2="235.221" y2="132" gradientUnits="userSpaceOnUse">
<stop stop-color="#4568DC"/>
<stop offset="1" stop-color="#B06AB3"/>
</linearGradient>
<linearGradient id="paint1_linear_29_656" x1="73.7785" y1="132" x2="235.221" y2="132" gradientUnits="userSpaceOnUse">
<stop stop-color="#4568DC"/>
<stop offset="1" stop-color="#B06AB3"/>
</linearGradient>
<linearGradient id="paint2_linear_29_656" x1="73.7785" y1="132" x2="235.221" y2="132" gradientUnits="userSpaceOnUse">
<stop stop-color="#4568DC"/>
<stop offset="1" stop-color="#B06AB3"/>
</linearGradient>
<linearGradient id="paint3_linear_29_656" x1="73.7785" y1="132" x2="235.221" y2="132" gradientUnits="userSpaceOnUse">
<stop stop-color="#4568DC"/>
<stop offset="1" stop-color="#B06AB3"/>
</linearGradient>
<linearGradient id="paint4_linear_29_656" x1="73.7783" y1="132" x2="235.221" y2="132" gradientUnits="userSpaceOnUse">
<stop stop-color="#4568DC"/>
<stop offset="1" stop-color="#B06AB3"/>
</linearGradient>
<linearGradient id="paint5_linear_29_656" x1="73.7786" y1="132" x2="235.221" y2="132" gradientUnits="userSpaceOnUse">
<stop stop-color="#4568DC"/>
<stop offset="1" stop-color="#B06AB3"/>
</linearGradient>
<linearGradient id="paint6_linear_29_656" x1="73.7784" y1="132" x2="235.221" y2="132" gradientUnits="userSpaceOnUse">
<stop stop-color="#4568DC"/>
<stop offset="1" stop-color="#B06AB3"/>
</linearGradient>
<linearGradient id="paint7_linear_29_656" x1="63.7783" y1="129" x2="225.221" y2="129" gradientUnits="userSpaceOnUse">
<stop stop-color="#4568DC"/>
<stop offset="1" stop-color="#B06AB3"/>
</linearGradient>
</defs>
</svg>
