<svg width="28" height="23" viewBox="0 0 28 23" fill="none" xmlns="http://www.w3.org/2000/svg">
<path id="Vector" d="M28 2.70588C26.9694 3.17941 25.8585 3.49059 24.7075 3.63941C25.8853 2.92235 26.7954 1.78588 27.2237 0.419412C26.1128 1.09588 24.8815 1.56941 23.5832 1.84C22.5258 0.676471 21.0402 0 19.3537 0C16.2084 0 13.6386 2.59765 13.6386 5.80412C13.6386 6.26412 13.6922 6.71059 13.7859 7.13C9.02103 6.88647 4.7782 4.57294 1.95411 1.06882C1.45889 1.92118 1.17782 2.92235 1.17782 3.97765C1.17782 5.99353 2.18164 7.77941 3.73423 8.79412C2.78394 8.79412 1.90057 8.52353 1.12428 8.11765C1.12428 8.11765 1.12428 8.11765 1.12428 8.15823C1.12428 10.9724 3.10516 13.3265 5.72849 13.8541C5.24665 13.9894 4.73805 14.0571 4.21606 14.0571C3.85468 14.0571 3.49331 14.0165 3.14532 13.9488C3.86807 16.2353 5.96941 17.94 8.49904 17.9806C6.54493 19.55 4.06883 20.47 1.3652 20.47C0.910134 20.47 0.455067 20.4429 0 20.3888C2.54302 22.0394 5.56788 23 8.80688 23C19.3537 23 25.1491 14.1518 25.1491 6.48059C25.1491 6.22353 25.1491 5.98 25.1358 5.72294C26.26 4.91118 27.2237 3.88294 28 2.70588Z" fill="#6D6D6D"/>
</svg>
