<svg width="195" height="182" viewBox="0 0 195 182" fill="none" xmlns="http://www.w3.org/2000/svg">
<g id="undraw_file_manager_re_ms29 1" clip-path="url(#clip0_9_531)">
<path id="Vector" d="M187.895 21.8475H189.831C191.315 10.4271 179.9 1.75454 166.808 0.695801C171.95 1.87866 176.655 4.49028 180.385 8.23129C184.114 11.9723 186.717 16.6913 187.895 21.8475Z" fill="#F2F2F2"/>
<path id="Vector_2" d="M157.761 55.9213C156.665 55.9079 155.615 55.8708 154.611 55.8101C155.653 55.9711 156.71 56.0084 157.761 55.9213Z" fill="#F2F2F2"/>
<path id="Vector_3" d="M133.394 28.0574C133.647 13.0143 145.601 0.772036 160.605 0.772036C162.666 0.552635 164.743 0.527147 166.808 0.695903C162.711 -0.236384 158.457 -0.231891 154.362 0.709048C150.267 1.64999 146.436 3.50323 143.152 6.13135C139.869 8.75947 137.218 12.095 135.395 15.8907C133.573 19.6863 132.626 23.8447 132.624 28.0574C132.624 42.3214 133.133 54.4909 154.611 55.8101C143.73 54.1529 133.196 39.8695 133.394 28.0574Z" fill="#F2F2F2"/>
<path id="Vector_4" d="M187.574 28.4968C182.655 36.9341 163.317 43.1219 160.605 55.3431C159.683 55.6467 158.728 55.8408 157.761 55.9213C158.652 55.9322 159.571 55.9287 160.527 55.9067C175.809 55.9067 188.344 43.7621 188.581 28.4968L187.574 28.4968Z" fill="#F2F2F2"/>
<path id="Vector_5" d="M162.801 48.5608C159.225 40.781 157.659 32.3964 158.756 23.2108C158.586 22.1422 159.18 21.0713 160.084 20.817L176.276 16.2809C177.179 16.029 178.05 16.6896 178.221 17.7576L182.267 43.1077C182.436 44.1763 181.842 45.2472 180.939 45.5015L164.747 50.0376C163.843 50.2895 162.973 49.6289 162.801 48.5608Z" fill="#F2F2F2"/>
<path id="Vector_6" d="M170.47 19.0854C170.704 17.2742 169.671 15.6476 168.163 15.4522C166.655 15.2569 165.244 16.5668 165.011 18.378C164.777 20.1892 165.81 21.8158 167.318 22.0112C168.826 22.2065 170.237 20.8966 170.47 19.0854Z" fill="#F2F2F2"/>
<path id="Vector_7" d="M140.86 36.1641C137.284 28.3843 135.717 19.9997 136.814 10.814C136.645 9.74543 137.239 8.67457 138.142 8.42024L154.334 3.88413C155.238 3.63223 156.108 4.29284 156.28 5.36087L160.326 30.711C160.495 31.7796 159.901 32.8504 158.998 33.1047L142.806 37.6408C141.902 37.8927 141.032 37.2321 140.86 36.1641Z" fill="#F2F2F2"/>
<path id="Vector_8" d="M148.529 6.68843C148.762 4.87723 147.729 3.25061 146.222 3.05527C144.714 2.85993 143.303 4.16985 143.069 5.98104C142.836 7.79224 143.869 9.41885 145.377 9.61419C146.884 9.80953 148.296 8.49962 148.529 6.68843Z" fill="#F2F2F2"/>
<path id="Vector_9" d="M163.022 120.388H0V120.92H163.022V120.388Z" fill="#3F3D56"/>
<path id="Vector_10" d="M66.3117 57.6192C66.1194 56.9443 68.808 63.1301 68.1684 63.2046C65.2553 63.5397 58.8003 65.0504 56.7713 65.8643C56.6799 65.8537 56.5886 65.843 56.4999 65.8297C56.2822 65.8058 56.0699 65.7712 55.8603 65.7313C51.1359 64.835 47.5617 60.9438 47.4649 56.2468C47.4595 56.1803 47.4595 56.1112 47.4595 56.0447C47.4589 55.7204 47.476 55.3963 47.5106 55.0739C47.5551 54.6336 47.6314 54.1971 47.739 53.768L47.7283 53.7653C45.8471 51.9939 46.6399 48.7092 49.037 47.3235C50.0786 46.723 51.2337 46.347 52.4285 46.2197C52.7525 46.1845 53.0781 46.1667 53.404 46.1665H56.4649C57.0983 46.0297 57.7403 45.9364 58.3864 45.8872H58.3918C64.5539 45.4165 69.4127 49.1826 68.9585 53.7653C68.9559 53.7706 68.9505 53.776 68.9478 53.7813C68.8161 53.9781 68.7006 54.1643 68.5984 54.3425C68.499 54.51 68.4157 54.6696 68.3431 54.8212C67.7815 55.9915 69.2252 57.4641 68.2679 57.7389C66.9946 58.1045 71.6166 70.1199 66.5769 70.1199C69.0283 70.8187 66.8422 59.481 66.3117 57.6192Z" fill="#2F2E41"/>
<path id="Vector_11" d="M94.4297 173.758L98.4041 173.725L100.163 157.996L94.2979 158.045L94.4297 173.758Z" fill="#FFB6B6"/>
<path id="Vector_12" d="M107.16 180.095C107.163 180.568 106.98 181.022 106.649 181.359C106.319 181.696 105.869 181.888 105.398 181.892L97.4965 181.959L96.1132 179.147L95.6052 181.973L92.6237 182L93.3766 171.921L94.4139 171.852L98.6448 171.559L100.01 171.468L100.034 174.319L106.381 178.636C106.619 178.798 106.814 179.016 106.95 179.27C107.085 179.524 107.157 179.807 107.16 180.095Z" fill="#2F2E41"/>
<path id="Vector_13" d="M99.4675 165.869C97.8866 165.678 93.8973 165.338 93.8973 165.338C93.8973 165.338 92.0141 161.396 92.3191 160.17C92.6188 158.938 93.3668 158.688 92.6719 158.045C90.9796 151.773 91.2502 141.586 91.2502 141.586C91.2502 141.586 82.1416 137.163 72.9189 132.043C63.9032 127.035 54.7787 121.362 53.9538 118.503C53.4093 116.458 53.0437 114.369 52.861 112.26C52.7231 110.877 52.6382 109.521 52.5851 108.305C52.4605 105.523 52.5109 103.467 52.5109 103.467L64.004 103.276L71.6166 103.1H72.4123V104.43L74.4123 107.84C74.4123 107.84 77.8684 111.869 77.4626 112.244C76.9719 112.699 77.1205 113.104 78.8631 113.433C79.3586 113.52 79.8635 113.541 80.3644 113.494C83.1787 113.279 84.3564 114.893 84.4253 115.247C84.8975 117.745 89.6321 123.171 94.0671 127.801H94.0697C98.1625 132.078 101.998 135.674 101.998 135.674L102.215 140.262L103.237 161.712C103.237 161.712 101.322 160.638 103.032 162.954C104.743 165.274 101.048 166.058 99.4675 165.869Z" fill="#2F2E41"/>
<path id="Vector_14" d="M142.586 115.992L144.209 112.353L130.675 104.207L128.28 109.576L142.586 115.992Z" fill="#FFB6B6"/>
<path id="Vector_15" d="M153.628 107.019C154.058 107.212 154.394 107.569 154.562 108.01C154.73 108.451 154.717 108.942 154.525 109.373L151.299 116.606L148.174 116.698L150.525 118.337L149.31 121.067L140.482 116.188L140.851 115.213L142.345 111.234L142.83 109.951L145.426 111.115L151.981 107.123C152.227 106.973 152.505 106.885 152.792 106.867C153.079 106.849 153.366 106.902 153.628 107.019Z" fill="#2F2E41"/>
<path id="Vector_16" d="M135.625 107.186C135.616 107.206 135.604 107.225 135.595 107.242C134.856 108.603 133.642 111.752 133.567 111.946C133.565 111.95 133.563 111.954 133.563 111.958C133.563 111.958 129.559 111.751 128.536 111.015C127.51 110.273 129.062 111.445 126.698 109.894C125.475 109.088 121.288 107.829 117.538 106.801C114.048 105.844 110.939 105.091 110.939 105.091C110.939 105.091 108.191 107.6 104.209 111.066L104.207 111.068C100.509 114.28 95.7433 118.319 91.1248 121.936C81.2369 124.852 70.8006 127.379 68.1917 125.959C66.3577 124.911 64.6183 123.705 62.9933 122.354L65.6798 115.293L72.7846 107.833L80.2633 104.786L83.189 103.593L87.2857 101.926L109.466 92.8894L134.028 101.42C134.028 101.42 132.318 102.807 135.102 102.075C137.849 101.356 136.397 105.727 135.625 107.186Z" fill="#2F2E41"/>
<path id="Vector_17" d="M58.089 66.1304H66.0464L67.2993 68.9033L72.6284 71.2843C73.3214 71.5944 73.9321 72.0635 74.4111 72.6538C74.8901 73.244 75.2241 73.9389 75.3861 74.6824C77.305 83.4784 74.8778 85.3059 74.7996 88.206C74.5344 98.0469 73.1676 100.004 73.3205 102.434C73.3663 103.161 73.8088 106.036 75.2326 105.765C76.6563 105.494 75.8889 106.631 76.2258 107.072C76.5169 107.454 78.0481 106.947 77.087 108.216C76.1258 109.484 80.2349 112.941 77.7173 112.941C72.9429 112.941 63.394 115.335 59.6805 115.335C55.9671 115.335 53.0974 116.439 51.4579 116.399C50.4586 116.374 50.7711 111.702 51.1705 107.656C51.2609 106.74 53.0154 106.764 51.4409 105.065C49.8664 103.366 51.7198 102.484 51.7231 102.036C51.7267 101.561 52.6157 100.365 51.5063 98.4081C50.3969 96.4511 51.4196 97.2609 51.3714 96.6464C51 91.9108 50.4679 85.8726 50.4679 85.8726L48.1222 79.2526C47.5226 77.5605 47.6019 75.7011 48.3433 74.0664C49.0847 72.4318 50.4303 71.1498 52.0962 70.4909L54.8478 69.4025L58.089 66.1304Z" fill="#6C63FF"/>
<path id="Vector_18" d="M113.975 63.6886C113.799 64.0194 113.552 64.3078 113.253 64.5337C112.954 64.7596 112.61 64.9178 112.244 64.9971C111.878 65.0765 111.5 65.0753 111.134 64.9935C110.769 64.9117 110.426 64.7513 110.128 64.5234L98.9188 70.887L96.4012 68.2107L109.77 60.7502C110.19 60.2768 110.768 59.9742 111.396 59.8998C112.023 59.8253 112.656 59.9843 113.174 60.3465C113.693 60.7087 114.061 61.249 114.208 61.865C114.356 62.4809 114.273 63.1298 113.975 63.6886Z" fill="#FFB6B6"/>
<path id="Vector_19" d="M63.5037 78.7095L63.333 80.7587L85.6493 80.471L107.863 67.949L104.615 62.937L85.0909 71.1685L71.2143 71.4507C69.2614 71.4904 67.3925 72.2543 65.9684 73.5949C64.5444 74.9355 63.6663 76.7577 63.5037 78.7095Z" fill="#6C63FF"/>
<path id="Vector_20" d="M60.8108 64.6693C64.8132 64.6693 68.0579 61.4158 68.0579 57.4024C68.0579 53.389 64.8132 50.1355 60.8108 50.1355C56.8083 50.1355 53.5637 53.389 53.5637 57.4024C53.5637 61.4158 56.8083 64.6693 60.8108 64.6693Z" fill="#FFB6B6"/>
<path id="Vector_21" d="M68.9585 54.1615C68.8376 54.2254 68.7194 54.2839 68.5984 54.3424C68.4721 54.4036 68.3458 54.4647 68.2195 54.5206C65.7928 55.6244 63.8176 55.7467 62.619 54.1615C62.5869 53.3274 62.4001 52.5067 62.0681 51.7412C62.1267 52.5966 61.9019 53.4475 61.4285 54.1615H59.0152C56.5294 55.8159 55.2529 55.9888 56.9782 61.4199C57.4593 62.9333 59.372 71.7396 58.6195 73.0455C58.4018 73.0215 56.0699 65.7712 55.8603 65.7313C51.1358 64.835 47.5616 60.9438 47.4649 56.2467C47.4703 56.0074 47.4864 55.768 47.5106 55.5339C47.8218 55.0648 48.1639 54.617 48.5345 54.1935C48.5326 52.9379 48.8205 51.699 49.3756 50.5736C50.0779 49.1478 51.1727 47.9535 52.5306 47.1319C53.34 46.7384 54.1838 46.4206 55.0514 46.1824C55.0729 46.1771 55.0917 46.1718 55.1132 46.1665C55.3792 46.0946 55.6506 46.0282 55.9221 45.9723C56.4828 45.8536 57.0499 45.7674 57.6205 45.7143C57.6608 45.7116 57.7011 45.709 57.7387 45.709C57.9666 45.7095 58.1902 45.771 58.3864 45.8872C58.3891 45.8872 58.3891 45.8899 58.3918 45.8899C58.532 45.972 58.6544 46.0814 58.7519 46.2117C58.9235 46.4308 59.0163 46.7017 59.0152 46.9803H61.7026C61.802 46.9803 61.9015 46.983 62.0009 46.9883C63.7945 47.0498 65.5007 47.7802 66.7855 49.0365C68.0704 50.2929 68.8414 51.9848 68.9478 53.7812C68.9558 53.9089 68.9585 54.0339 68.9585 54.1615Z" fill="#2F2E41"/>
<path id="Vector_22" d="M50.9274 55.4915C53.5642 55.4915 55.7018 53.348 55.7018 50.704C55.7018 48.0599 53.5642 45.9165 50.9274 45.9165C48.2905 45.9165 46.153 48.0599 46.153 50.704C46.153 53.348 48.2905 55.4915 50.9274 55.4915Z" fill="#2F2E41"/>
<path id="Vector_23" d="M56.7628 46.9803C56.854 49.6228 54.6252 51.7678 51.9884 51.7678C50.7221 51.7678 49.5077 51.2634 48.6123 50.3656C47.7169 49.4677 47.2139 48.25 47.2139 46.9803C47.2139 44.3362 50.4073 44.3089 51.9884 42.1928C54.2249 39.1994 56.6398 43.4167 56.7628 46.9803Z" fill="#2F2E41"/>
<path id="Vector_24" d="M63.0053 121.873C62.2639 110.842 64.4342 100.466 70.4616 90.9576C70.6133 90.3321 71.0062 89.7924 71.5541 89.4569C72.1021 89.1215 72.7604 89.0177 73.3846 89.1683L96.6688 94.8149C97.2926 94.9669 97.8309 95.3609 98.1654 95.9103C98.4999 96.4598 98.6034 97.1199 98.4532 97.7458L90.9969 128.661C90.8453 129.286 90.4524 129.826 89.9044 130.162C89.3565 130.497 88.6982 130.601 88.074 130.45L64.7898 124.804C64.1659 124.652 63.6277 124.258 63.2931 123.708C62.9586 123.159 62.8551 122.499 63.0053 121.873Z" fill="#F2F2F2"/>
<path id="Vector_25" opacity="0.2" d="M67.5684 124.216C66.9445 124.063 66.4063 123.67 66.0718 123.12C65.7372 122.571 65.6337 121.911 65.7839 121.285C65.0425 110.254 67.2129 99.878 73.2402 90.3695C73.3418 89.9593 73.5497 89.5832 73.8428 89.2794L73.3846 89.1683C72.7604 89.0177 72.1021 89.1215 71.5542 89.4569C71.0062 89.7924 70.6133 90.332 70.4617 90.9576C64.4343 100.466 62.264 110.842 63.0054 121.873C62.8551 122.499 62.9586 123.159 63.2932 123.708C63.6277 124.258 64.1659 124.652 64.7898 124.804L88.074 130.45C88.4879 130.549 88.9205 130.537 89.328 130.414C89.7355 130.291 90.1034 130.062 90.3944 129.751L67.5684 124.216Z" fill="black"/>
<path id="Vector_26" d="M88.6501 111.201L73.0364 107.461C72.7882 107.401 72.5737 107.245 72.4402 107.027C72.3066 106.808 72.265 106.546 72.3243 106.297C72.3836 106.048 72.5391 105.833 72.7565 105.699C72.974 105.565 73.2357 105.523 73.484 105.582L89.0977 109.322C89.3454 109.383 89.5592 109.539 89.6922 109.757C89.8253 109.975 89.8667 110.237 89.8075 110.485C89.7482 110.734 89.5932 110.949 89.3762 111.083C89.1593 111.217 88.8982 111.26 88.6501 111.201Z" fill="white"/>
<path id="Vector_27" d="M77.6989 103.132L74.2639 102.309C74.0155 102.25 73.8007 102.094 73.6665 101.877C73.5324 101.659 73.4899 101.397 73.5484 101.148C73.607 100.899 73.7617 100.683 73.9787 100.548C74.1956 100.413 74.4571 100.37 74.7056 100.429L74.7115 100.43L78.1465 101.253C78.3942 101.313 78.608 101.47 78.741 101.688C78.874 101.906 78.9155 102.168 78.8563 102.416C78.797 102.665 78.642 102.88 78.425 103.014C78.2081 103.148 77.947 103.19 77.6989 103.132Z" fill="white"/>
<path id="Vector_28" d="M86.6821 119.461L71.0684 115.72C70.8207 115.66 70.6068 115.504 70.4736 115.286C70.3405 115.068 70.299 114.806 70.3583 114.557C70.4175 114.308 70.5727 114.093 70.7897 113.959C71.0067 113.825 71.2679 113.783 71.5161 113.841L87.1298 117.582C87.253 117.611 87.3694 117.664 87.4723 117.738C87.5751 117.812 87.6624 117.906 87.7291 118.014C87.7958 118.122 87.8406 118.242 87.861 118.367C87.8813 118.492 87.8769 118.62 87.8479 118.744C87.8188 118.867 87.7658 118.984 87.6918 119.087C87.6177 119.19 87.5242 119.277 87.4165 119.344C87.3087 119.411 87.189 119.456 87.064 119.476C86.939 119.496 86.8112 119.491 86.688 119.462L86.6821 119.461Z" fill="white"/>
<path id="Vector_29" d="M87.6661 115.331L72.0524 111.59C71.8039 111.531 71.589 111.375 71.4551 111.157C71.3211 110.939 71.279 110.677 71.3381 110.427C71.3971 110.178 71.5525 109.963 71.77 109.828C71.9875 109.694 72.2493 109.652 72.4979 109.711L72.5001 109.712L88.1137 113.452C88.3615 113.512 88.5754 113.668 88.7085 113.886C88.8417 114.104 88.8831 114.367 88.8239 114.615C88.7647 114.864 88.6095 115.079 88.3925 115.213C88.1755 115.347 87.9143 115.389 87.6661 115.331Z" fill="white"/>
<path id="Vector_30" d="M84.3654 95.9318C86.5834 95.9318 88.3815 94.1288 88.3815 91.9047C88.3815 89.6807 86.5834 87.8777 84.3654 87.8777C82.1474 87.8777 80.3493 89.6807 80.3493 91.9047C80.3493 94.1288 82.1474 95.9318 84.3654 95.9318Z" fill="#3F3D56"/>
<path id="Vector_31" d="M64.1157 124.178C63.7881 123.997 63.5037 123.746 63.2823 123.443C63.0608 123.141 62.9076 122.793 62.8331 122.426C62.7587 122.058 62.7648 121.678 62.851 121.313C62.9373 120.948 63.1016 120.606 63.3327 120.31L57.1311 108.989L59.8322 106.499L67.0999 119.999C67.5666 120.426 67.861 121.01 67.9271 121.64C67.9932 122.27 67.8266 122.903 67.4588 123.418C67.0909 123.933 66.5474 124.295 65.9313 124.435C65.3151 124.575 64.6691 124.484 64.1157 124.178Z" fill="#FFB6B6"/>
<path id="Vector_32" d="M56.8722 74.0654L50.2021 73.4201C49.8909 73.39 49.5769 73.4254 49.2802 73.5242C48.9835 73.623 48.7106 73.7829 48.4792 73.9936C48.2478 74.2044 48.0628 74.4613 47.9363 74.748C47.8098 75.0346 47.7444 75.3446 47.7444 75.6581V95.5613L59.9457 117.995L64.9854 114.803L57.028 95.1211L56.8722 74.0654Z" fill="#6C63FF"/>
<path id="Vector_33" d="M109.53 72.4503C111.077 61.5039 115.337 51.8011 123.193 43.7458C123.47 43.1652 123.966 42.7185 124.571 42.5037C125.177 42.289 125.842 42.3238 126.422 42.6004L148.041 52.9473C148.62 53.2252 149.065 53.7221 149.28 54.329C149.494 54.9359 149.459 55.6032 149.183 56.1845L135.52 84.889C135.243 85.4696 134.747 85.9163 134.142 86.1311C133.537 86.3458 132.871 86.311 132.292 86.0344L110.672 75.6875C110.093 75.4096 109.648 74.9126 109.434 74.3058C109.22 73.6989 109.254 73.0316 109.53 72.4503Z" fill="#F2F2F2"/>
<path id="Vector_34" opacity="0.2" d="M113.512 75.6875C112.933 75.4095 112.488 74.9126 112.274 74.3057C112.059 73.6988 112.094 73.0315 112.37 72.4503C113.917 61.5038 118.177 51.8011 126.033 43.7458C126.217 43.3654 126.498 43.0406 126.847 42.804L126.422 42.6004C125.842 42.3238 125.177 42.289 124.571 42.5037C123.966 42.7184 123.471 43.1651 123.193 43.7458C115.337 51.8011 111.077 61.5038 109.53 72.4503C109.254 73.0315 109.22 73.6988 109.434 74.3057C109.648 74.9126 110.093 75.4095 110.672 75.6875L132.292 86.0344C132.676 86.2169 133.102 86.2942 133.526 86.2584C133.95 86.2226 134.357 86.0751 134.706 85.8308L113.512 75.6875Z" fill="black"/>
<path id="Vector_35" d="M136.82 67.3196L122.313 60.4263C122.083 60.3166 121.905 60.1194 121.819 59.8782C121.733 59.6369 121.746 59.3714 121.855 59.1399C121.965 58.9084 122.161 58.73 122.402 58.6439C122.643 58.5577 122.907 58.571 123.138 58.6807L137.645 65.5741C137.875 65.6843 138.052 65.8815 138.137 66.1223C138.222 66.3631 138.209 66.628 138.1 66.859C137.991 67.0899 137.795 67.268 137.555 67.3544C137.315 67.4407 137.051 67.4282 136.82 67.3196Z" fill="white"/>
<path id="Vector_36" d="M127.767 57.1564L124.575 55.6399C124.461 55.586 124.358 55.51 124.273 55.4163C124.187 55.3225 124.121 55.2128 124.078 55.0934C124.035 54.974 124.016 54.8473 124.022 54.7206C124.028 54.5938 124.059 54.4694 124.113 54.3545C124.166 54.2397 124.242 54.1366 124.336 54.0511C124.429 53.9657 124.539 53.8996 124.658 53.8566C124.777 53.8136 124.904 53.7946 125.03 53.8006C125.156 53.8067 125.28 53.8376 125.395 53.8917L125.4 53.8944L128.592 55.4109C128.822 55.5211 128.999 55.7182 129.084 55.9591C129.17 56.2 129.156 56.465 129.047 56.6961C128.938 56.9271 128.742 57.1053 128.502 57.1916C128.262 57.2779 127.998 57.2653 127.767 57.1564Z" fill="white"/>
<path id="Vector_37" d="M133.193 74.9935L118.687 68.1001C118.457 67.9899 118.279 67.7928 118.194 67.5519C118.109 67.311 118.122 67.0459 118.231 66.8149C118.34 66.5839 118.537 66.4057 118.777 66.3194C119.017 66.2331 119.281 66.2457 119.512 66.3546L134.018 73.2479C134.133 73.3019 134.235 73.3779 134.321 73.4717C134.406 73.5654 134.472 73.6751 134.515 73.7944C134.558 73.9138 134.577 74.0404 134.571 74.1671C134.565 74.2938 134.534 74.4181 134.48 74.5328C134.426 74.6476 134.351 74.7507 134.257 74.8361C134.164 74.9215 134.054 74.9876 133.935 75.0306C133.816 75.0736 133.69 75.0927 133.564 75.0868C133.437 75.0808 133.313 75.05 133.199 74.9961L133.193 74.9935Z" fill="white"/>
<path id="Vector_38" d="M135.007 71.1565L120.5 64.2632C120.269 64.1538 120.091 63.9568 120.005 63.7157C119.919 63.4745 119.931 63.2089 120.041 62.9773C120.15 62.7457 120.346 62.5671 120.587 62.4807C120.827 62.3943 121.092 62.4072 121.323 62.5166L121.325 62.5176L135.832 69.411C136.062 69.5212 136.239 69.7183 136.324 69.9592C136.409 70.2001 136.396 70.465 136.287 70.696C136.177 70.927 135.981 71.1051 135.742 71.1915C135.502 71.2778 135.237 71.2652 135.007 71.1565Z" fill="white"/>
<path id="Vector_39" d="M136.602 51.579C138.82 51.579 140.618 49.776 140.618 47.552C140.618 45.3279 138.82 43.5249 136.602 43.5249C134.384 43.5249 132.586 45.3279 132.586 47.552C132.586 49.776 134.384 51.579 136.602 51.579Z" fill="#3F3D56"/>
<path id="Vector_40" d="M171.259 86.6311C166.903 77.1564 164.996 66.9454 166.332 55.7587C166.125 54.4573 166.849 53.1531 167.949 52.8434L187.668 47.3191C188.769 47.0124 189.829 47.8169 190.038 49.1176L194.965 79.99C195.171 81.2914 194.448 82.5955 193.348 82.9052L173.628 88.4295C172.528 88.7363 171.468 87.9318 171.259 86.6311Z" fill="#F2F2F2"/>
<path id="Vector_41" opacity="0.2" d="M175.548 86.648C174.447 86.9548 173.387 86.1503 173.179 84.8496C168.823 75.375 166.916 65.1639 168.251 53.9772C168.188 53.5618 168.218 53.1376 168.337 52.7349L167.949 52.8435C166.849 53.1533 166.125 54.4574 166.332 55.7588C164.996 66.9455 166.903 77.1565 171.259 86.6312C171.468 87.9319 172.528 88.7364 173.628 88.4296L193.348 82.9054C193.723 82.779 194.061 82.5593 194.328 82.2668C194.596 81.9743 194.786 81.6184 194.879 81.2325L175.548 86.648Z" fill="black"/>
<path id="Vector_42" d="M187.175 65.5248L173.967 69.27C173.53 69.3935 173.107 69.074 173.024 68.5565C172.976 68.3184 173.015 68.0713 173.132 67.8589C173.249 67.6465 173.437 67.4826 173.664 67.3963L186.871 63.6511C187.309 63.5286 187.731 63.8491 187.813 64.3669C187.86 64.6044 187.822 64.8509 187.705 65.0628C187.588 65.2747 187.4 65.4383 187.175 65.5248Z" fill="white"/>
<path id="Vector_43" d="M176.04 63.3082L173.135 64.1321C172.697 64.2579 172.274 63.9407 172.188 63.4237C172.14 63.1854 172.178 62.9377 172.295 62.7246C172.411 62.5115 172.6 62.3468 172.826 62.2599L172.831 62.2585L175.737 61.4345C176.175 61.3121 176.597 61.6325 176.679 62.1503C176.726 62.3878 176.687 62.6343 176.571 62.8462C176.454 63.0581 176.266 63.2217 176.04 63.3082Z" fill="white"/>
<path id="Vector_44" d="M188.51 73.7618L175.302 77.507C174.864 77.6295 174.442 77.309 174.36 76.7912C174.313 76.5537 174.351 76.3072 174.468 76.0953C174.585 75.8834 174.773 75.7198 174.999 75.6333L188.206 71.8881C188.643 71.7624 189.067 72.0796 189.152 72.5966C189.2 72.8348 189.163 73.0826 189.046 73.2957C188.929 73.5088 188.741 73.6735 188.515 73.7604L188.51 73.7618Z" fill="white"/>
<path id="Vector_45" d="M187.842 69.6434L174.635 73.3886C174.197 73.5134 173.774 73.1951 173.69 72.6779C173.642 72.4396 173.68 72.1919 173.797 71.9791C173.914 71.7662 174.103 71.6019 174.329 71.5155L174.331 71.515L187.539 67.7697C187.976 67.6473 188.398 67.9677 188.481 68.4855C188.528 68.7231 188.489 68.9695 188.372 69.1814C188.256 69.3933 188.068 69.557 187.842 69.6434Z" fill="white"/>
<path id="Vector_46" d="M180.599 50.7346C180.883 48.5288 179.625 46.5478 177.788 46.31C175.952 46.0721 174.233 47.6673 173.949 49.8731C173.665 52.0788 174.923 54.0598 176.759 54.2977C178.595 54.5356 180.314 52.9403 180.599 50.7346Z" fill="#3F3D56"/>
</g>
<defs>
<clipPath id="clip0_9_531">
<rect width="195" height="182" fill="white"/>
</clipPath>
</defs>
</svg>
