<svg width="41" height="45" viewBox="0 0 41 45" fill="none" xmlns="http://www.w3.org/2000/svg">
<path d="M31.7989 18.1946L9.66685 17.7605L9.75393 13.3214L31.886 13.7556M31.6247 27.0727L9.49269 26.6386L9.57977 22.1995L31.7118 22.6337M24.811 35.8206L9.31853 35.5167L9.40561 31.0776L24.898 31.3815M20.9941 4.66036C21.5811 4.67188 22.1394 4.91676 22.5463 5.34115C22.9532 5.76553 23.1753 6.33465 23.1638 6.92331C23.1522 7.51196 22.908 8.07193 22.4848 8.48003C22.0615 8.88813 21.494 9.11093 20.907 9.09942C20.3201 9.08791 19.7617 8.84302 19.3548 8.41864C18.9479 7.99425 18.7258 7.42513 18.7374 6.83648C18.7489 6.24782 18.9932 5.68785 19.4164 5.27975C19.8396 4.87165 20.4071 4.64885 20.9941 4.66036ZM36.4865 4.96427L27.2353 4.7828C26.3563 2.18991 23.9584 0.277749 21.0812 0.221308C18.204 0.164868 15.7329 1.98151 14.7529 4.53793L5.50168 4.35645C4.32773 4.33342 3.19268 4.77902 2.34623 5.59522C1.49979 6.41142 1.01129 7.53137 0.988194 8.70868L0.378637 39.7821C0.355542 40.9594 0.799745 42.0976 1.61353 42.9464C2.42731 43.7952 3.54401 44.2849 4.71797 44.308L35.7028 44.9158C36.8768 44.9388 38.0118 44.4932 38.8583 43.677C39.7047 42.8608 40.1932 41.7409 40.2163 40.5636L40.8259 9.49016C40.849 8.31285 40.4048 7.17461 39.591 6.32584C38.7772 5.47707 37.6605 4.9873 36.4865 4.96427Z" fill="#EB8F8F"/>
</svg>
