<svg width="41" height="41" viewBox="0 0 41 41" fill="none" xmlns="http://www.w3.org/2000/svg">
<path d="M21.6853 29.657L12.153 27.2566L13.0053 23.898L19.1686 25.4374L23.152 9.74011L26.521 10.6012M12.2225 7.00047C12.6187 6.76418 13.0923 6.69466 13.5393 6.8072C13.9862 6.91975 14.3697 7.20514 14.6056 7.60059C14.8415 7.99604 14.9103 8.46916 14.7969 8.91587C14.6836 9.36258 14.3973 9.74628 14.0011 9.98257C13.605 10.2189 13.1313 10.2884 12.6844 10.1758C12.2375 10.0633 11.8539 9.7779 11.6181 9.38245C11.3822 8.987 11.3134 8.51388 11.4267 8.06717C11.5401 7.62046 11.8264 7.23676 12.2225 7.00047ZM22.6789 0.763953L16.4349 4.48804C14.776 3.13262 12.3858 2.86016 10.4439 4.01837C8.50201 5.17658 7.60589 7.40908 8.0101 9.51289L1.76616 13.237C0.973813 13.7096 0.401311 14.477 0.174596 15.3704C-0.0521187 16.2638 0.0855238 17.21 0.557244 18.0009L13.0076 38.8757C13.4793 39.6666 14.2465 40.2373 15.1403 40.4624C16.0341 40.6875 16.9814 40.5485 17.7738 40.0759L38.6865 27.6029C39.4788 27.1303 40.0513 26.3629 40.2781 25.4695C40.5048 24.5761 40.3671 23.6298 39.8954 22.8389L27.4451 1.96419C26.9733 1.17329 26.2062 0.602513 25.3123 0.377424C24.4185 0.152335 23.4712 0.291374 22.6789 0.763953Z" fill="#5797D2"/>
</svg>
